<svg width="128" height="128" viewBox="0 0 128 128" fill="none" 
    xmlns="http://www.w3.org/2000/svg">
    <path d="M100.244 32.5001C97.9062 33.4423 96.9582 35.1318 96.7765 35.8587C98.0427 36.4747 100.628 37.6662 100.842 37.5045C101.109 37.3024 102.483 36.9063 103.218 37.0114C103.954 37.1165 104.819 37.3509 106.42 38.8464C108.02 40.3419 108.036 41.6757 109.047 42.7428C110.057 43.8098 111.464 44.0928 112.919 43.1146C114.374 42.1365 113.831 41.1148 113.461 40.0679C113.09 39.0211 112.059 37.4293 110.609 35.7278C109.592 34.535 107.572 33.1108 106.612 32.6964C105.653 32.282 103.167 31.3224 100.244 32.5001Z" fill="#F75B5B"/>
    <mask id="mask0" mask-type="alpha" maskUnits="userSpaceOnUse" x="96" y="31" width="18" height="13">
        <path d="M100.244 32.5001C97.9062 33.4423 96.9582 35.1318 96.7765 35.8587C98.0427 36.4747 100.628 37.6662 100.842 37.5045C101.109 37.3024 102.483 36.9063 103.218 37.0114C103.954 37.1165 104.819 37.3509 106.42 38.8464C108.02 40.3419 108.036 41.6757 109.047 42.7428C110.057 43.8098 111.464 44.0928 112.919 43.1146C114.374 42.1365 113.831 41.1148 113.461 40.0679C113.09 39.0211 111.345 36.5784 110.604 35.6406C109.862 34.7028 107.572 33.1108 106.612 32.6964C105.653 32.282 103.167 31.3224 100.244 32.5001Z" fill="#F75B5B"/>
    </mask>
    <g mask="url(#mask0)">
        <path d="M108.869 34.3519C109.702 34.9177 109.871 35.0794 112.232 37.6096C113.021 38.1512 114.608 39.2813 114.641 39.4689C114.673 39.6564 115.172 41.8266 115.417 42.8883C113.733 43.3814 110.347 44.3628 110.276 44.3434C110.187 44.3191 109.176 43.1955 109.637 42.8721C110.098 42.5488 110.785 42.9691 111.132 42.1446C111.48 41.32 109.346 38.806 107.907 36.2192C106.468 33.6324 108.036 33.786 108.869 34.3519Z" fill="#F62727"/>
        <path d="M102.604 36.5668C103.691 36.7996 104.399 37.4291 104.617 37.7147C103.72 37.9384 101.898 38.3824 101.788 38.3695C101.678 38.3565 99.9473 38.0623 99.0958 37.9168C98.9368 37.6446 98.7611 37.0438 99.3302 36.8174C100.042 36.5345 101.246 36.2758 102.604 36.5668Z" fill="#F62727"/>
    </g>
    <path d="M95.3296 45.4044C95.6983 47.6166 96.7804 49.0572 97.2754 49.501L94.9455 54.4425C94.3737 53.9646 93.0355 52.6912 92.2571 51.4213C91.2842 49.8338 90.388 47.5039 90.0296 45.7116C89.6711 43.9194 89.6712 41.4614 90.6441 39.4131C91.617 37.3648 93.4349 36.1359 94.3822 35.7774C95.3296 35.419 96.6866 35.0861 99.0677 35.7006C101.449 36.3151 103.958 38.1585 105.776 40.7445C107.594 43.3305 108.515 45.9165 108.234 48.3744C107.952 50.8324 105.443 51.9333 103.932 51.8053C102.422 51.6773 100.86 50.3459 100.45 49.9362C100.041 49.5266 98.274 47.2222 97.3523 45.0715C96.6149 43.351 96.3622 41.4017 96.3281 40.6421C96.2172 40.608 95.9338 40.6472 95.688 41.0774C95.3808 41.6151 94.8687 42.6392 95.3296 45.4044Z" fill="#F75B5B"/>
    <mask id="mask1" mask-type="alpha" maskUnits="userSpaceOnUse" x="89" y="35" width="20" height="20">
        <path d="M95.3296 45.4044C95.6983 47.6166 96.7804 49.0572 97.2754 49.501L94.9455 54.4425C94.3737 53.9646 93.0355 52.6912 92.2571 51.4213C91.2842 49.8338 90.388 47.5039 90.0296 45.7116C89.6711 43.9194 89.6712 41.4614 90.6441 39.4131C91.617 37.3648 93.4349 36.1359 94.3822 35.7774C95.3296 35.419 96.6866 35.0861 99.0677 35.7006C101.449 36.3151 103.958 38.1585 105.776 40.7445C107.594 43.3305 108.515 45.9165 108.234 48.3744C107.952 50.8324 105.443 51.9333 103.932 51.8053C102.422 51.6773 100.86 50.3459 100.45 49.9362C100.041 49.5266 98.274 47.2222 97.3523 45.0715C96.6149 43.351 96.3622 41.4017 96.3281 40.6421C96.2172 40.608 95.9338 40.6472 95.688 41.0774C95.3808 41.6151 94.8687 42.6392 95.3296 45.4044Z" fill="#F75B5B"/>
    </mask>
    <g mask="url(#mask1)">
        <path d="M95.6053 48.2981C96.4596 47.9277 94.4462 43.6392 95.448 43.0281C95.505 42.3106 95.7347 40.5689 96.325 40.6388C96.9289 40.7103 98.301 41.0836 98.807 41.3416C98.3661 41.0528 95.7701 39.4443 93.9644 40.6791C92.5042 41.6776 92.2675 43.6466 92.8623 45.4458C93.3934 47.0525 94.6866 48.6964 95.6053 48.2981Z" fill="#F62727"/>
        <path d="M104.562 45.381C106.249 48.3984 105.025 49.6245 104.479 50.3255C103.785 51.2058 102.204 51.1404 101.472 51.2122C100.557 51.3018 102.524 52.7111 104.802 53.3568C107.08 54.0025 109.753 50.9712 110.165 47.4198C110.578 43.8683 105.842 39.6711 105.089 39.0254C104.336 38.3797 101.825 36.6937 101.376 37.8775C100.928 39.0613 102.747 42.1356 104.562 45.381Z" fill="#F62727"/>
    </g>
    <path d="M101.727 44.2104C100.929 42.7929 99.2841 41.6188 98.5612 41.2089C98.8484 41.8641 99.5875 43.3196 100.188 43.9684C100.633 44.4718 102.725 45.9823 101.727 44.2104Z" fill="#F62727"/>
    <path d="M97.8222 55.507C96.3516 55.4627 95.2919 54.7741 94.9459 54.4353L94.8783 54.2354C95.5555 52.7566 96.9846 49.727 97.2832 49.4395C97.6563 49.0802 98.1539 48.8452 98.7206 48.7899C99.2852 48.7348 100.255 48.9834 101.015 49.6883C101.669 50.2948 101.922 51.1923 101.886 51.872C101.858 52.3834 101.549 53.1536 101.015 53.9037C100.503 54.6224 99.6604 55.5623 97.8222 55.507Z" fill="#F75B5B"/>
    <mask id="mask2" mask-type="alpha" maskUnits="userSpaceOnUse" x="94" y="48" width="8" height="8">
        <path d="M97.8222 55.507C96.3516 55.4627 95.2919 54.7741 94.9459 54.4353L94.8783 54.2354C95.5555 52.7566 96.9846 49.727 97.2832 49.4395C97.6563 49.0802 98.1539 48.8452 98.7206 48.7899C99.2852 48.7348 100.255 48.9834 101.015 49.6883C101.669 50.2948 101.922 51.1923 101.886 51.872C101.858 52.3834 101.549 53.1536 101.015 53.9037C100.503 54.6224 99.6604 55.5623 97.8222 55.507Z" fill="#F75B5B"/>
    </mask>
    <g mask="url(#mask2)">
        <path d="M96.6499 55.07C96.1237 55.0516 95.0613 54.5008 94.5959 54.2277L94.8205 54.6387C95.6736 55.24 97.8834 56.2303 99.8986 55.3804C102.418 54.318 101.95 52.3602 101.903 51.7722C101.856 51.1842 101.562 50.8168 101.128 50.6831C100.694 50.5495 100.031 50.5583 99.3846 50.9621C98.7384 51.366 98.3577 52.1045 98.1615 53.2238C97.9653 54.3431 97.3076 55.0931 96.6499 55.07Z" fill="#F62727"/>
    </g>
    <path d="M88.9917 49.1218C89.3604 51.334 90.4425 52.7746 90.9375 53.2184L88.6076 58.1599C88.0358 57.682 86.6976 56.4086 85.9192 55.1387C84.9463 53.5513 84.0501 51.2213 83.6917 49.4291C83.3332 47.6368 83.3333 45.1789 84.3062 43.1306C85.2791 41.0823 87.097 39.8533 88.0443 39.4949C88.9917 39.1364 90.3487 38.8035 92.7298 39.418C95.111 40.0325 97.6201 41.876 99.438 44.4619C101.256 47.0479 102.178 49.6339 101.896 52.0918C101.614 54.5498 99.1051 55.6508 97.5945 55.5227C96.0839 55.3947 94.5221 54.0633 94.1124 53.6537C93.7028 53.244 91.9361 50.9397 91.0144 48.789C90.277 47.0684 90.0244 45.1191 89.9902 44.3596C89.8793 44.3254 89.5959 44.3647 89.3501 44.7948C89.0429 45.3325 88.5308 46.3566 88.9917 49.1218Z" fill="#F75B5B"/>
    <mask id="mask3" mask-type="alpha" maskUnits="userSpaceOnUse" x="83" y="39" width="19" height="20">
        <path d="M88.9917 49.1218C89.3604 51.334 90.4425 52.7746 90.9375 53.2184L88.6076 58.1599C88.0358 57.682 86.6976 56.4086 85.9192 55.1387C84.9463 53.5513 84.0501 51.2213 83.6917 49.4291C83.3332 47.6368 83.3333 45.1789 84.3062 43.1306C85.2791 41.0823 87.097 39.8533 88.0443 39.4949C88.9917 39.1364 90.3487 38.8035 92.7298 39.418C95.111 40.0325 97.6201 41.876 99.438 44.4619C101.256 47.0479 102.178 49.6339 101.896 52.0918C101.614 54.5498 99.1051 55.6508 97.5945 55.5227C96.0839 55.3947 94.5221 54.0633 94.1124 53.6537C93.7028 53.244 91.9361 50.9397 91.0144 48.789C90.277 47.0684 90.0244 45.1191 89.9902 44.3596C89.8793 44.3254 89.5959 44.3647 89.3501 44.7948C89.0429 45.3325 88.5308 46.3566 88.9917 49.1218Z" fill="#F75B5B"/>
    </mask>
    <g mask="url(#mask3)">
        <path d="M89.2676 52.0155C90.1218 51.6451 88.1084 47.3566 89.1103 46.7455C89.1672 46.028 89.3969 44.2863 89.9872 44.3562C90.5911 44.4277 91.9633 44.801 92.4692 45.059C92.0283 44.7702 89.4324 43.1617 87.6266 44.3965C86.1665 45.395 85.9298 47.364 86.5246 49.1632C87.0557 50.7699 88.3489 52.4138 89.2676 52.0155Z" fill="#F62727"/>
        <path d="M98.2237 49.0984C99.9106 52.1158 98.6868 53.3419 98.1412 54.0429C97.4475 54.9232 95.8656 54.8578 95.1338 54.9296C94.219 55.0192 96.1861 56.4285 98.4641 57.0742C100.742 57.7199 103.415 54.6887 103.827 51.1372C104.24 47.5857 99.5044 43.3885 98.751 42.7428C97.9977 42.0971 95.4866 40.4111 95.0381 41.5949C94.5897 42.7787 96.4093 45.853 98.2237 49.0984Z" fill="#F62727"/>
    </g>
    <path d="M95.3894 47.9278C94.5916 46.5103 92.9462 45.3362 92.2233 44.9263C92.5105 45.5815 93.2496 47.0371 93.8499 47.6858C94.2953 48.1893 96.3867 49.6997 95.3894 47.9278Z" fill="#F62727"/>
    <path d="M91.4843 59.2243C90.0137 59.1801 88.954 58.4915 88.608 58.1527L88.5404 57.9528C89.2176 56.474 90.6467 53.4444 90.9453 53.1569C91.3184 52.7976 91.816 52.5626 92.3827 52.5073C92.9473 52.4522 93.9168 52.7008 94.677 53.4057C95.331 54.0122 95.5844 54.9097 95.5477 55.5894C95.5201 56.1008 95.2107 56.871 94.677 57.6211C94.1656 58.3398 93.3225 59.2796 91.4843 59.2243Z" fill="#F75B5B"/>
    <mask id="mask4" mask-type="alpha" maskUnits="userSpaceOnUse" x="88" y="52" width="8" height="8">
        <path d="M91.4843 59.2243C90.0137 59.1801 88.954 58.4915 88.608 58.1527L88.5404 57.9528C89.2176 56.474 90.6467 53.4444 90.9453 53.1569C91.3184 52.7976 91.816 52.5626 92.3827 52.5073C92.9473 52.4522 93.9168 52.7008 94.677 53.4057C95.331 54.0122 95.5844 54.9097 95.5477 55.5894C95.5201 56.1008 95.2107 56.871 94.677 57.6211C94.1656 58.3398 93.3225 59.2796 91.4843 59.2243Z" fill="#F75B5B"/>
    </mask>
    <g mask="url(#mask4)">
        <path d="M90.3121 58.7874C89.7859 58.7689 88.7235 58.2181 88.2581 57.945L88.4827 58.356C89.3357 58.9574 91.5456 59.9476 93.5608 59.0977C96.0798 58.0353 95.6121 56.0776 95.5653 55.4896C95.5186 54.9016 95.2246 54.5341 94.7902 54.4005C94.3559 54.2668 93.693 54.2756 93.0468 54.6795C92.4006 55.0834 92.0198 55.8218 91.8237 56.9411C91.6275 58.0604 90.9698 58.8105 90.3121 58.7874Z" fill="#F62727"/>
    </g>
    <path d="M82.5597 52.8456C82.9284 55.0578 84.0105 56.4984 84.5055 56.9422L82.1756 61.8837C81.6038 61.4058 80.2656 60.1324 79.4872 58.8625C78.5143 57.2751 77.6181 54.9451 77.2597 53.1529C76.9012 51.3606 76.9013 48.9026 77.8742 46.8543C78.8471 44.8061 80.665 43.5771 81.6123 43.2187C82.5597 42.8602 83.9167 42.5273 86.2978 43.1418C88.679 43.7563 91.1881 45.5998 93.006 48.1857C94.8238 50.7717 95.7456 53.3577 95.4639 55.8156C95.1823 58.2736 92.6731 59.3745 91.1625 59.2465C89.6519 59.1185 88.0901 57.7871 87.6804 57.3775C87.2707 56.9678 85.5041 54.6635 84.5824 52.5128C83.845 50.7922 83.5924 48.8429 83.5582 48.0833C83.4473 48.0492 83.1639 48.0885 82.9181 48.5186C82.6109 49.0563 82.0988 50.0804 82.5597 52.8456Z" fill="#F75B5B"/>
    <mask id="mask5" mask-type="alpha" maskUnits="userSpaceOnUse" x="77" y="42" width="19" height="20">
        <path d="M82.5597 52.8456C82.9284 55.0578 84.0105 56.4984 84.5055 56.9422L82.1756 61.8837C81.6038 61.4058 80.2656 60.1324 79.4872 58.8625C78.5143 57.2751 77.6181 54.9451 77.2597 53.1529C76.9012 51.3606 76.9013 48.9026 77.8742 46.8543C78.8471 44.8061 80.665 43.5771 81.6123 43.2187C82.5597 42.8602 83.9167 42.5273 86.2978 43.1418C88.679 43.7563 91.1881 45.5998 93.006 48.1857C94.8238 50.7717 95.7456 53.3577 95.4639 55.8156C95.1823 58.2736 92.6731 59.3745 91.1625 59.2465C89.6519 59.1185 88.0901 57.7871 87.6804 57.3775C87.2707 56.9678 85.5041 54.6635 84.5824 52.5128C83.845 50.7922 83.5924 48.8429 83.5582 48.0833C83.4473 48.0492 83.1639 48.0885 82.9181 48.5186C82.6109 49.0563 82.0988 50.0804 82.5597 52.8456Z" fill="#F75B5B"/>
    </mask>
    <g mask="url(#mask5)">
        <path d="M82.8354 55.7393C83.6897 55.3689 81.6763 51.0804 82.6782 50.4693C82.7351 49.7518 82.9648 48.0101 83.5551 48.08C84.159 48.1515 85.5311 48.5248 86.0371 48.7828C85.5962 48.494 83.0002 46.8855 81.1945 48.1203C79.7343 49.1188 79.4976 51.0878 80.0924 52.887C80.6235 54.4937 81.9167 56.1376 82.8354 55.7393Z" fill="#F62727"/>
        <path d="M91.7918 52.8222C93.4788 55.8396 92.2549 57.0657 91.7093 57.7667C91.0156 58.647 89.4337 58.5816 88.7019 58.6534C87.7871 58.7431 89.7542 60.1523 92.0322 60.798C94.3101 61.4438 96.9827 58.4125 97.3952 54.861C97.8078 51.3096 93.0725 47.1124 92.3192 46.4666C91.5658 45.8209 89.0547 44.1349 88.6063 45.3187C88.1578 46.5025 89.9774 49.5768 91.7918 52.8222Z" fill="#F62727"/>
    </g>
    <path d="M88.9574 51.6516C88.1596 50.2342 86.5142 49.06 85.7913 48.6501C86.0785 49.3053 86.8176 50.7609 87.4179 51.4096C87.8633 51.9131 89.9547 53.4235 88.9574 51.6516Z" fill="#F62727"/>
    <path d="M85.0523 62.9481C83.5817 62.9039 82.522 62.2153 82.176 61.8765L82.1084 61.6766C82.7856 60.1978 84.2147 57.1682 84.5133 56.8807C84.8864 56.5213 85.384 56.2864 85.9507 56.2311C86.5153 56.176 87.4848 56.4246 88.245 57.1295C88.899 57.736 89.1524 58.6334 89.1157 59.3132C89.088 59.8246 88.7787 60.5948 88.245 61.3449C87.7336 62.0636 86.8905 63.0034 85.0523 62.9481Z" fill="#F75B5B"/>
    <mask id="mask6" mask-type="alpha" maskUnits="userSpaceOnUse" x="82" y="56" width="8" height="7">
        <path d="M85.0523 62.9481C83.5817 62.9039 82.522 62.2153 82.176 61.8765L82.1084 61.6766C82.7856 60.1978 84.2147 57.1682 84.5133 56.8807C84.8864 56.5213 85.384 56.2864 85.9507 56.2311C86.5153 56.176 87.4848 56.4246 88.245 57.1295C88.899 57.736 89.1524 58.6334 89.1157 59.3132C89.088 59.8246 88.7787 60.5948 88.245 61.3449C87.7336 62.0636 86.8905 63.0034 85.0523 62.9481Z" fill="#F75B5B"/>
    </mask>
    <g mask="url(#mask6)">
        <path d="M83.88 62.5112C83.3539 62.4927 82.2915 61.9419 81.826 61.6688L82.0507 62.0799C82.9037 62.6812 85.1136 63.6714 87.1288 62.8215C89.6478 61.7591 89.1801 59.8014 89.1333 59.2134C89.0865 58.6254 88.7926 58.2579 88.3582 58.1243C87.9239 57.9907 87.261 57.9994 86.6148 58.4033C85.9686 58.8072 85.5878 59.5457 85.3916 60.6649C85.1955 61.7842 84.5378 62.5343 83.88 62.5112Z" fill="#F62727"/>
    </g>
    <path d="M76.1277 56.5017C76.4964 58.7139 77.5785 60.1545 78.0735 60.5983L75.7436 65.5398C75.1718 65.0619 73.8336 63.7885 73.0552 62.5186C72.0823 60.9311 71.1861 58.6012 70.8277 56.809C70.4692 55.0167 70.4692 52.5587 71.4422 50.5104C72.4151 48.4622 74.233 47.2332 75.1803 46.8748C76.1277 46.5163 77.4847 46.1834 79.8658 46.7979C82.2469 47.4124 84.7561 49.2559 86.574 51.8418C88.3918 54.4278 89.3136 57.0138 89.0319 59.4717C88.7503 61.9297 86.2411 63.0306 84.7305 62.9026C83.2199 62.7746 81.6581 61.4432 81.2484 61.0336C80.8387 60.6239 79.0721 58.3196 78.1504 56.1689C77.413 54.4483 77.1603 52.499 77.1262 51.7394C77.0153 51.7053 76.7319 51.7446 76.4861 52.1747C76.1789 52.7124 75.6668 53.7365 76.1277 56.5017Z" fill="#F75B5B"/>
    <mask id="mask7" mask-type="alpha" maskUnits="userSpaceOnUse" x="70" y="46" width="20" height="20">
        <path d="M76.1277 56.5017C76.4964 58.7139 77.5785 60.1545 78.0735 60.5983L75.7436 65.5398C75.1718 65.0619 73.8336 63.7885 73.0552 62.5186C72.0823 60.9311 71.1861 58.6012 70.8277 56.809C70.4692 55.0167 70.4692 52.5587 71.4422 50.5104C72.4151 48.4622 74.233 47.2332 75.1803 46.8748C76.1277 46.5163 77.4847 46.1834 79.8658 46.7979C82.2469 47.4124 84.7561 49.2559 86.574 51.8418C88.3918 54.4278 89.3136 57.0138 89.0319 59.4717C88.7503 61.9297 86.2411 63.0306 84.7305 62.9026C83.2199 62.7746 81.6581 61.4432 81.2484 61.0336C80.8387 60.6239 79.0721 58.3196 78.1504 56.1689C77.413 54.4483 77.1603 52.499 77.1262 51.7394C77.0153 51.7053 76.7319 51.7446 76.4861 52.1747C76.1789 52.7124 75.6668 53.7365 76.1277 56.5017Z" fill="#F75B5B"/>
    </mask>
    <g mask="url(#mask7)">
        <path d="M76.4034 59.3953C77.2577 59.025 75.2443 54.7364 76.2461 54.1254C76.3031 53.4079 76.5328 51.6662 77.123 51.7361C77.727 51.8076 79.0991 52.1809 79.605 52.4389C79.1642 52.15 76.5682 50.5415 74.7625 51.7764C73.3023 52.7748 73.0656 54.7439 73.6604 56.5431C74.1915 58.1497 75.4847 59.7937 76.4034 59.3953Z" fill="#F62727"/>
        <path d="M85.3598 56.4783C87.0468 59.4957 85.8229 60.7218 85.2773 61.4228C84.5836 62.3031 83.0017 62.2377 82.2699 62.3095C81.3551 62.3992 83.3222 63.8084 85.6002 64.4541C87.8781 65.0999 90.5507 62.0686 90.9632 58.5171C91.3758 54.9656 86.6405 50.7685 85.8871 50.1227C85.1338 49.477 82.6227 47.791 82.1743 48.9748C81.7258 50.1586 83.5454 53.2329 85.3598 56.4783Z" fill="#F62727"/>
    </g>
    <path d="M82.5254 55.3077C81.7276 53.8902 80.0822 52.7161 79.3593 52.3062C79.6465 52.9614 80.3856 54.417 80.9859 55.0657C81.4313 55.5692 83.5227 57.0796 82.5254 55.3077Z" fill="#F62727"/>
    <path d="M78.6203 66.6042C77.1497 66.56 76.09 65.8714 75.744 65.5326L75.6764 65.3327C76.3536 63.8539 77.7827 60.8243 78.0813 60.5368C78.4544 60.1774 78.952 59.9425 79.5186 59.8872C80.0833 59.8321 81.0528 60.0807 81.8129 60.7856C82.467 61.3921 82.7204 62.2895 82.6837 62.9693C82.656 63.4807 82.3467 64.2509 81.8129 65.001C81.3016 65.7197 80.4585 66.6595 78.6203 66.6042Z" fill="#F75B5B"/>
    <mask id="mask8" mask-type="alpha" maskUnits="userSpaceOnUse" x="75" y="59" width="8" height="8">
        <path d="M78.6203 66.6042C77.1497 66.56 76.09 65.8714 75.744 65.5326L75.6764 65.3327C76.3536 63.8539 77.7827 60.8243 78.0813 60.5368C78.4544 60.1774 78.952 59.9425 79.5186 59.8872C80.0833 59.8321 81.0528 60.0807 81.8129 60.7856C82.467 61.3921 82.7204 62.2895 82.6837 62.9693C82.656 63.4807 82.3467 64.2509 81.8129 65.001C81.3016 65.7197 80.4585 66.6595 78.6203 66.6042Z" fill="#F75B5B"/>
    </mask>
    <g mask="url(#mask8)">
        <path d="M77.4479 66.1673C76.9218 66.1488 75.8594 65.598 75.3939 65.3249L75.6186 65.7359C76.4716 66.3373 78.6815 67.3275 80.6967 66.4776C83.2157 65.4152 82.748 63.4575 82.7012 62.8695C82.6544 62.2815 82.3604 61.914 81.9261 61.7804C81.4918 61.6467 80.8289 61.6555 80.1827 62.0594C79.5365 62.4632 79.1557 63.2017 78.9595 64.321C78.7634 65.4403 78.1056 66.1903 77.4479 66.1673Z" fill="#F62727"/>
    </g>
    <path d="M69.6955 60.2255C70.0642 62.4377 71.1464 63.8783 71.6414 64.3221L69.3115 69.2636C68.7397 68.7857 67.4014 67.5123 66.6231 66.2424C65.6502 64.6549 64.754 62.325 64.3955 60.5327C64.0371 58.7405 64.0371 56.2825 65.0101 54.2342C65.983 52.1859 67.8009 50.957 68.7482 50.5985C69.6955 50.2401 71.0525 49.9072 73.4337 50.5217C75.8148 51.1362 78.324 52.9796 80.1418 55.5656C81.9597 58.1516 82.8814 60.7376 82.5998 63.1955C82.3182 65.6535 79.809 66.7544 78.2984 66.6264C76.7878 66.4984 75.2259 65.167 74.8163 64.7573C74.4066 64.3477 72.64 62.0433 71.7182 59.8926C70.9808 58.1721 70.7282 56.2228 70.6941 55.4632C70.5831 55.4291 70.2998 55.4683 70.054 55.8985C69.7467 56.4362 69.2347 57.4603 69.6955 60.2255Z" fill="#F75B5B"/>
    <mask id="mask9" mask-type="alpha" maskUnits="userSpaceOnUse" x="64" y="50" width="19" height="20">
        <path d="M69.6955 60.2255C70.0642 62.4377 71.1464 63.8783 71.6414 64.3221L69.3115 69.2636C68.7397 68.7857 67.4014 67.5123 66.6231 66.2424C65.6502 64.6549 64.754 62.325 64.3955 60.5327C64.0371 58.7405 64.0371 56.2825 65.0101 54.2342C65.983 52.1859 67.8009 50.957 68.7482 50.5985C69.6955 50.2401 71.0525 49.9072 73.4337 50.5217C75.8148 51.1362 78.324 52.9796 80.1418 55.5656C81.9597 58.1516 82.8814 60.7376 82.5998 63.1955C82.3182 65.6535 79.809 66.7544 78.2984 66.6264C76.7878 66.4984 75.2259 65.167 74.8163 64.7573C74.4066 64.3477 72.64 62.0433 71.7182 59.8926C70.9808 58.1721 70.7282 56.2228 70.6941 55.4632C70.5831 55.4291 70.2998 55.4683 70.054 55.8985C69.7467 56.4362 69.2347 57.4603 69.6955 60.2255Z" fill="#F75B5B"/>
    </mask>
    <g mask="url(#mask9)">
        <path d="M69.9714 63.1192C70.8257 62.7488 68.8122 58.4603 69.8141 57.8492C69.8711 57.1317 70.1008 55.39 70.691 55.4599C71.295 55.5314 72.6671 55.9047 73.173 56.1627C72.7322 55.8739 70.1362 54.2654 68.3305 55.5002C66.8703 56.4987 66.6336 58.4677 67.2284 60.2669C67.7595 61.8735 69.0527 63.5175 69.9714 63.1192Z" fill="#F62727"/>
        <path d="M78.9275 60.2021C80.6145 63.2195 79.3907 64.4456 78.845 65.1466C78.1513 66.0269 76.5694 65.9615 75.8376 66.0333C74.9228 66.1229 76.89 67.5322 79.1679 68.1779C81.4459 68.8236 84.1184 65.7923 84.531 62.2409C84.9435 58.6894 80.2082 54.4922 79.4549 53.8465C78.7016 53.2008 76.1904 51.5148 75.742 52.6986C75.2936 53.8824 77.1131 56.9567 78.9275 60.2021Z" fill="#F62727"/>
    </g>
    <path d="M76.0934 59.0315C75.2956 57.614 73.6502 56.4399 72.9272 56.03C73.2145 56.6852 73.9536 58.1408 74.5539 58.7895C74.9993 59.293 77.0907 60.8034 76.0934 59.0315Z" fill="#F62727"/>
    <path d="M72.1882 70.328C70.7176 70.2838 69.6579 69.5951 69.3118 69.2564L69.2443 69.0565C69.9215 67.5776 71.3506 64.5481 71.6491 64.2606C72.0223 63.9012 72.5199 63.6662 73.0865 63.611C73.6512 63.5559 74.6207 63.8045 75.3808 64.5093C76.0349 65.1158 76.2883 66.0133 76.2515 66.6931C76.2239 67.2045 75.9145 67.9746 75.3808 68.7248C74.8694 69.4435 74.0264 70.3833 72.1882 70.328Z" fill="#F75B5B"/>
    <mask id="mask10" mask-type="alpha" maskUnits="userSpaceOnUse" x="69" y="63" width="8" height="8">
        <path d="M72.1882 70.328C70.7176 70.2838 69.6579 69.5951 69.3118 69.2564L69.2443 69.0565C69.9215 67.5776 71.3506 64.5481 71.6491 64.2606C72.0223 63.9012 72.5199 63.6662 73.0865 63.611C73.6512 63.5559 74.6207 63.8045 75.3808 64.5093C76.0349 65.1158 76.2883 66.0133 76.2515 66.6931C76.2239 67.2045 75.9145 67.9746 75.3808 68.7248C74.8694 69.4435 74.0264 70.3833 72.1882 70.328Z" fill="#F75B5B"/>
    </mask>
    <g mask="url(#mask10)">
        <path d="M71.0159 69.8911C70.4897 69.8726 69.4273 69.3218 68.9619 69.0487L69.1866 69.4597C70.0396 70.0611 72.2495 71.0513 74.2647 70.2014C76.7837 69.139 76.316 67.1813 76.2692 66.5933C76.2224 66.0053 75.9284 65.6378 75.4941 65.5042C75.0598 65.3705 74.3968 65.3793 73.7507 65.7832C73.1045 66.1871 72.7237 66.9255 72.5275 68.0448C72.3313 69.1641 71.6736 69.9142 71.0159 69.8911Z" fill="#F62727"/>
    </g>
    <path d="M63.2589 63.8929C63.6276 66.1051 64.7098 67.5457 65.2047 67.9895L62.8748 72.931C62.303 72.4531 60.9648 71.1797 60.1864 69.9098C59.2135 68.3224 58.3173 65.9924 57.9589 64.2002C57.6004 62.4079 57.6005 59.9499 58.5734 57.9017C59.5464 55.8534 61.3642 54.6244 62.3116 54.266C63.2589 53.9075 64.6159 53.5746 66.997 54.1891C69.3782 54.8036 71.8873 56.6471 73.7052 59.233C75.5231 61.819 76.4448 64.405 76.1631 66.8629C75.8815 69.3209 73.3723 70.4218 71.8617 70.2938C70.3511 70.1658 68.7893 68.8344 68.3796 68.4248C67.97 68.0151 66.2033 65.7108 65.2816 63.5601C64.5442 61.8395 64.2916 59.8902 64.2574 59.1306C64.1465 59.0965 63.8631 59.1358 63.6173 59.5659C63.3101 60.1036 62.798 61.1277 63.2589 63.8929Z" fill="#F75B5B"/>
    <mask id="mask11" mask-type="alpha" maskUnits="userSpaceOnUse" x="57" y="53" width="20" height="20">
        <path d="M63.2589 63.8929C63.6276 66.1051 64.7098 67.5457 65.2047 67.9895L62.8748 72.931C62.303 72.4531 60.9648 71.1797 60.1864 69.9098C59.2135 68.3224 58.3173 65.9924 57.9589 64.2002C57.6004 62.4079 57.6005 59.9499 58.5734 57.9017C59.5464 55.8534 61.3642 54.6244 62.3116 54.266C63.2589 53.9075 64.6159 53.5746 66.997 54.1891C69.3782 54.8036 71.8873 56.6471 73.7052 59.233C75.5231 61.819 76.4448 64.405 76.1631 66.8629C75.8815 69.3209 73.3723 70.4218 71.8617 70.2938C70.3511 70.1658 68.7893 68.8344 68.3796 68.4248C67.97 68.0151 66.2033 65.7108 65.2816 63.5601C64.5442 61.8395 64.2916 59.8902 64.2574 59.1306C64.1465 59.0965 63.8631 59.1358 63.6173 59.5659C63.3101 60.1036 62.798 61.1277 63.2589 63.8929Z" fill="#F75B5B"/>
    </mask>
    <g mask="url(#mask11)">
        <path d="M63.5348 66.7866C64.389 66.4162 62.3756 62.1277 63.3775 61.5166C63.4344 60.7991 63.6642 59.0574 64.2544 59.1273C64.8583 59.1988 66.2305 59.5721 66.7364 59.8301C66.2955 59.5413 63.6996 57.9328 61.8938 59.1676C60.4337 60.1661 60.197 62.1351 60.7918 63.9343C61.3229 65.541 62.6161 67.1849 63.5348 66.7866Z" fill="#F62727"/>
        <path d="M72.491 63.8695C74.178 66.8869 72.9542 68.113 72.4085 68.814C71.7148 69.6943 70.1329 69.6289 69.4011 69.7007C68.4863 69.7904 70.4534 71.1996 72.7314 71.8453C75.0093 72.4911 77.6819 69.4598 78.0944 65.9083C78.507 62.3569 73.7717 58.1597 73.0184 57.5139C72.265 56.8682 69.7539 55.1822 69.3055 56.366C68.8571 57.5498 70.6766 60.6241 72.491 63.8695Z" fill="#F62727"/>
    </g>
    <path d="M69.6566 62.6989C68.8588 61.2815 67.2134 60.1073 66.4905 59.6974C66.7777 60.3526 67.5168 61.8082 68.1171 62.4569C68.5625 62.9604 70.6539 64.4708 69.6566 62.6989Z" fill="#F62727"/>
    <path d="M65.7514 73.9954C64.2808 73.9512 63.2211 73.2626 62.8751 72.9238L62.8075 72.7239C63.4847 71.2451 64.9138 68.2155 65.2124 67.928C65.5855 67.5687 66.0831 67.3337 66.6498 67.2784C67.2144 67.2233 68.1839 67.4719 68.944 68.1768C69.5981 68.7833 69.8515 69.6807 69.8148 70.3605C69.7871 70.8719 69.4778 71.6421 68.944 72.3922C68.4327 73.1109 67.5896 74.0507 65.7514 73.9954Z" fill="#F75B5B"/>
    <mask id="mask12" mask-type="alpha" maskUnits="userSpaceOnUse" x="62" y="67" width="8" height="7">
        <path d="M65.7514 73.9954C64.2808 73.9512 63.2211 73.2626 62.8751 72.9238L62.8075 72.7239C63.4847 71.2451 64.9138 68.2155 65.2124 67.928C65.5855 67.5687 66.0831 67.3337 66.6498 67.2784C67.2144 67.2233 68.1839 67.4719 68.944 68.1768C69.5981 68.7833 69.8515 69.6807 69.8148 70.3605C69.7871 70.8719 69.4778 71.6421 68.944 72.3922C68.4327 73.1109 67.5896 74.0507 65.7514 73.9954Z" fill="#F75B5B"/>
    </mask>
    <g mask="url(#mask12)">
        <path d="M64.5791 73.5585C64.053 73.54 62.9906 72.9892 62.5251 72.7161L62.7498 73.1271C63.6028 73.7285 65.8127 74.7187 67.8279 73.8688C70.3469 72.8064 69.8792 70.8487 69.8324 70.2607C69.7856 69.6727 69.4916 69.3052 69.0573 69.1716C68.623 69.0379 67.9601 69.0467 67.3139 69.4506C66.6677 69.8544 66.2869 70.5929 66.0907 71.7122C65.8946 72.8315 65.2369 73.5816 64.5791 73.5585Z" fill="#F62727"/>
    </g>
    <path d="M56.9689 67.4727C57.3376 69.6849 58.4197 71.1255 58.9147 71.5693L56.5848 76.5108C56.013 76.0329 54.6748 74.7595 53.8964 73.4896C52.9235 71.9022 52.0273 69.5722 51.6689 67.78C51.3104 65.9877 51.3104 63.5297 52.2834 61.4815C53.2563 59.4332 55.0742 58.2042 56.0215 57.8458C56.9688 57.4873 58.3258 57.1544 60.707 57.7689C63.0881 58.3834 65.5973 60.2269 67.4152 62.8128C69.233 65.3988 70.1547 67.9848 69.8731 70.4427C69.5915 72.9007 67.0823 74.0016 65.5717 73.8736C64.0611 73.7456 62.4992 72.4142 62.0896 72.0046C61.6799 71.5949 59.9133 69.2906 58.9915 67.1399C58.2542 65.4193 58.0015 63.47 57.9674 62.7105C57.8564 62.6763 57.5731 62.7156 57.3273 63.1457C57.02 63.6834 56.508 64.7075 56.9689 67.4727Z" fill="#F75B5B"/>
    <mask id="mask13" mask-type="alpha" maskUnits="userSpaceOnUse" x="51" y="57" width="19" height="20">
        <path d="M56.9689 67.4727C57.3376 69.6849 58.4197 71.1255 58.9147 71.5693L56.5848 76.5108C56.013 76.0329 54.6748 74.7595 53.8964 73.4896C52.9235 71.9022 52.0273 69.5722 51.6689 67.78C51.3104 65.9877 51.3104 63.5297 52.2834 61.4815C53.2563 59.4332 55.0742 58.2042 56.0215 57.8458C56.9688 57.4873 58.3258 57.1544 60.707 57.7689C63.0881 58.3834 65.5973 60.2269 67.4152 62.8128C69.233 65.3988 70.1547 67.9848 69.8731 70.4427C69.5915 72.9007 67.0823 74.0016 65.5717 73.8736C64.0611 73.7456 62.4992 72.4142 62.0896 72.0046C61.6799 71.5949 59.9133 69.2906 58.9915 67.1399C58.2542 65.4193 58.0015 63.47 57.9674 62.7105C57.8564 62.6763 57.5731 62.7156 57.3273 63.1457C57.02 63.6834 56.508 64.7075 56.9689 67.4727Z" fill="#F75B5B"/>
    </mask>
    <g mask="url(#mask13)">
        <path d="M57.2447 70.3664C58.099 69.996 56.0856 65.7075 57.0875 65.0964C57.1444 64.3789 57.3741 62.6372 57.9644 62.7071C58.5683 62.7786 59.9404 63.1519 60.4464 63.4099C60.0055 63.1211 57.4095 61.5126 55.6038 62.7474C54.1436 63.7459 53.9069 65.7149 54.5017 67.5141C55.0328 69.1208 56.326 70.7647 57.2447 70.3664Z" fill="#F62727"/>
        <path d="M66.201 67.4493C67.8879 70.4667 66.6641 71.6928 66.1185 72.3938C65.4248 73.2741 63.8429 73.2087 63.1111 73.2805C62.1963 73.3702 64.1634 74.7794 66.4413 75.4251C68.7193 76.0709 71.3919 73.0396 71.8044 69.4881C72.2169 65.9367 67.4817 61.7395 66.7283 61.0937C65.975 60.448 63.4639 58.762 63.0154 59.9458C62.567 61.1296 64.3866 64.2039 66.201 67.4493Z" fill="#F62727"/>
    </g>
    <path d="M63.3666 66.2788C62.5688 64.8613 60.9234 63.6871 60.2004 63.2772C60.4877 63.9324 61.2268 65.388 61.8271 66.0367C62.2725 66.5402 64.3639 68.0506 63.3666 66.2788Z" fill="#F62727"/>
    <path d="M59.4615 77.5752C57.9909 77.531 56.9312 76.8424 56.5851 76.5036L56.5176 76.3037C57.1948 74.8249 58.6239 71.7953 58.9224 71.5078C59.2956 71.1485 59.7932 70.9135 60.3598 70.8582C60.9245 70.8031 61.894 71.0517 62.6541 71.7566C63.3082 72.3631 63.5616 73.2606 63.5249 73.9403C63.4972 74.4517 63.1879 75.2219 62.6541 75.972C62.1428 76.6907 61.2997 77.6305 59.4615 77.5752Z" fill="#F75B5B"/>
    <mask id="mask14" mask-type="alpha" maskUnits="userSpaceOnUse" x="56" y="70" width="8" height="8">
        <path d="M59.4615 77.5752C57.9909 77.531 56.9312 76.8424 56.5851 76.5036L56.5176 76.3037C57.1948 74.8249 58.6239 71.7953 58.9224 71.5078C59.2956 71.1485 59.7932 70.9135 60.3598 70.8582C60.9245 70.8031 61.894 71.0517 62.6541 71.7566C63.3082 72.3631 63.5616 73.2606 63.5249 73.9403C63.4972 74.4517 63.1879 75.2219 62.6541 75.972C62.1428 76.6907 61.2997 77.6305 59.4615 77.5752Z" fill="#F75B5B"/>
    </mask>
    <g mask="url(#mask14)">
        <path d="M58.2892 77.1383C57.7631 77.1198 56.7007 76.569 56.2352 76.2959L56.4599 76.7069C57.3129 77.3083 59.5228 78.2985 61.538 77.4486C64.057 76.3862 63.5893 74.4285 63.5425 73.8405C63.4957 73.2525 63.2017 72.885 62.7674 72.7514C62.3331 72.6177 61.6702 72.6265 61.024 73.0304C60.3778 73.4342 59.997 74.1727 59.8008 75.292C59.6047 76.4113 58.9469 77.1614 58.2892 77.1383Z" fill="#F62727"/>
    </g>
    <path d="M50.631 71.1901C50.9997 73.4023 52.0818 74.8429 52.5768 75.2867L50.2469 80.2282C49.6751 79.7503 48.3369 78.4769 47.5585 77.207C46.5856 75.6196 45.6894 73.2896 45.331 71.4974C44.9725 69.7051 44.9725 67.2472 45.9455 65.1989C46.9184 63.1506 48.7363 61.9216 49.6836 61.5632C50.631 61.2047 51.988 60.8718 54.3691 61.4863C56.7502 62.1008 59.2594 63.9443 61.0773 66.5302C62.8951 69.1162 63.8169 71.7022 63.5352 74.1601C63.2536 76.6181 60.7444 77.7191 59.2338 77.591C57.7232 77.463 56.1614 76.1316 55.7517 75.722C55.342 75.3123 53.5754 73.008 52.6536 70.8573C51.9163 69.1367 51.6636 67.1874 51.6295 66.4279C51.5185 66.3937 51.2352 66.433 50.9894 66.8631C50.6821 67.4008 50.1701 68.4249 50.631 71.1901Z" fill="#F75B5B"/>
    <mask id="mask15" mask-type="alpha" maskUnits="userSpaceOnUse" x="45" y="61" width="19" height="20">
        <path d="M50.631 71.1901C50.9997 73.4023 52.0818 74.8429 52.5768 75.2867L50.2469 80.2282C49.6751 79.7503 48.3369 78.4769 47.5585 77.207C46.5856 75.6196 45.6894 73.2896 45.331 71.4974C44.9725 69.7051 44.9725 67.2472 45.9455 65.1989C46.9184 63.1506 48.7363 61.9216 49.6836 61.5632C50.631 61.2047 51.988 60.8718 54.3691 61.4863C56.7502 62.1008 59.2594 63.9443 61.0773 66.5302C62.8951 69.1162 63.8169 71.7022 63.5352 74.1601C63.2536 76.6181 60.7444 77.7191 59.2338 77.591C57.7232 77.463 56.1614 76.1316 55.7517 75.722C55.342 75.3123 53.5754 73.008 52.6536 70.8573C51.9163 69.1367 51.6636 67.1874 51.6295 66.4279C51.5185 66.3937 51.2352 66.433 50.9894 66.8631C50.6821 67.4008 50.1701 68.4249 50.631 71.1901Z" fill="#F75B5B"/>
    </mask>
    <g mask="url(#mask15)">
        <path d="M50.9069 74.0837C51.7611 73.7134 49.7477 69.4249 50.7496 68.8138C50.8065 68.0963 51.0362 66.3546 51.6265 66.4245C52.2304 66.496 53.6026 66.8693 54.1085 67.1273C53.6676 66.8385 51.0716 65.23 49.2659 66.4648C47.8058 67.4633 47.569 69.4323 48.1638 71.2315C48.695 72.8381 49.9882 74.4821 50.9069 74.0837Z" fill="#F62727"/>
        <path d="M59.8632 71.1667C61.5502 74.1841 60.3264 75.4102 59.7807 76.1112C59.087 76.9915 57.5051 76.9261 56.7733 76.9979C55.8585 77.0875 57.8256 78.4968 60.1036 79.1425C62.3815 79.7882 65.0541 76.7569 65.4666 73.2055C65.8792 69.654 61.1439 65.4568 60.3906 64.8111C59.6372 64.1654 57.1261 62.4794 56.6777 63.6632C56.2293 64.847 58.0488 67.9213 59.8632 71.1667Z" fill="#F62727"/>
    </g>
    <path d="M57.0288 69.9961C56.231 68.5786 54.5856 67.4045 53.8627 66.9946C54.1499 67.6498 54.889 69.1054 55.4893 69.7541C55.9347 70.2576 58.0261 71.768 57.0288 69.9961Z" fill="#F62727"/>
    <path d="M53.1236 81.2927C51.653 81.2484 50.5933 80.5598 50.2473 80.221L50.1797 80.0212C50.8569 78.5423 52.286 75.5127 52.5846 75.2252C52.9577 74.8659 53.4553 74.6309 54.0219 74.5756C54.5866 74.5205 55.5561 74.7691 56.3162 75.474C56.9703 76.0805 57.2237 76.978 57.187 77.6577C57.1593 78.1691 56.85 78.9393 56.3162 79.6894C55.8049 80.4081 54.9618 81.348 53.1236 81.2927Z" fill="#F75B5B"/>
    <mask id="mask16" mask-type="alpha" maskUnits="userSpaceOnUse" x="50" y="74" width="8" height="8">
        <path d="M53.1236 81.2927C51.653 81.2484 50.5933 80.5598 50.2473 80.221L50.1797 80.0212C50.8569 78.5423 52.286 75.5127 52.5846 75.2252C52.9577 74.8659 53.4553 74.6309 54.0219 74.5756C54.5866 74.5205 55.5561 74.7691 56.3162 75.474C56.9703 76.0805 57.2237 76.978 57.187 77.6577C57.1593 78.1691 56.85 78.9393 56.3162 79.6894C55.8049 80.4081 54.9618 81.348 53.1236 81.2927Z" fill="#F75B5B"/>
    </mask>
    <g mask="url(#mask16)">
        <path d="M51.9513 80.8557C51.4252 80.8372 50.3628 80.2864 49.8973 80.0133L50.122 80.4243C50.975 81.0257 53.1849 82.0159 55.2001 81.166C57.7191 80.1036 57.2514 78.1459 57.2046 77.5579C57.1578 76.9699 56.8638 76.6024 56.4295 76.4688C55.9952 76.3351 55.3323 76.3439 54.6861 76.7478C54.0399 77.1517 53.6591 77.8901 53.4629 79.0094C53.2668 80.1287 52.609 80.8788 51.9513 80.8557Z" fill="#F62727"/>
    </g>
    <path d="M44.199 74.9139C44.5677 77.1261 45.6498 78.5667 46.1448 79.0105L43.8149 83.952C43.2431 83.4741 41.9049 82.2007 41.1265 80.9308C40.1536 79.3433 39.2574 77.0134 38.899 75.2212C38.5405 73.4289 38.5405 70.9709 39.5135 68.9226C40.4864 66.8744 42.3043 65.6454 43.2516 65.287C44.199 64.9285 45.5559 64.5956 47.9371 65.2101C50.3182 65.8246 52.8274 67.6681 54.6453 70.254C56.4631 72.84 57.3849 75.426 57.1032 77.8839C56.8216 80.3419 54.3124 81.4428 52.8018 81.3148C51.2912 81.1868 49.7293 79.8554 49.3197 79.4458C48.91 79.0361 47.1434 76.7318 46.2216 74.5811C45.4843 72.8605 45.2316 70.9112 45.1975 70.1516C45.0865 70.1175 44.8032 70.1568 44.5574 70.5869C44.2501 71.1246 43.7381 72.1487 44.199 74.9139Z" fill="#F75B5B"/>
    <mask id="mask17" mask-type="alpha" maskUnits="userSpaceOnUse" x="38" y="64" width="20" height="20">
        <path d="M44.199 74.9139C44.5677 77.1261 45.6498 78.5667 46.1448 79.0105L43.8149 83.952C43.2431 83.4741 41.9049 82.2007 41.1265 80.9308C40.1536 79.3433 39.2574 77.0134 38.899 75.2212C38.5405 73.4289 38.5405 70.9709 39.5135 68.9226C40.4864 66.8744 42.3043 65.6454 43.2516 65.287C44.199 64.9285 45.5559 64.5956 47.9371 65.2101C50.3182 65.8246 52.8274 67.6681 54.6453 70.254C56.4631 72.84 57.3849 75.426 57.1032 77.8839C56.8216 80.3419 54.3124 81.4428 52.8018 81.3148C51.2912 81.1868 49.7293 79.8554 49.3197 79.4458C48.91 79.0361 47.1434 76.7318 46.2216 74.5811C45.4843 72.8605 45.2316 70.9112 45.1975 70.1516C45.0865 70.1175 44.8032 70.1568 44.5574 70.5869C44.2501 71.1246 43.7381 72.1487 44.199 74.9139Z" fill="#F75B5B"/>
    </mask>
    <g mask="url(#mask17)">
        <path d="M44.4748 77.8076C45.3291 77.4372 43.3157 73.1487 44.3176 72.5377C44.3745 71.8201 44.6042 70.0784 45.1945 70.1483C45.7984 70.2198 47.1705 70.5931 47.6765 70.8511C47.2356 70.5623 44.6396 68.9538 42.8339 70.1886C41.3737 71.1871 41.137 73.1561 41.7318 74.9554C42.2629 76.562 43.5561 78.2059 44.4748 77.8076Z" fill="#F62727"/>
        <path d="M53.4311 74.8905C55.118 77.9079 53.8942 79.134 53.3486 79.835C52.6549 80.7153 51.073 80.6499 50.3412 80.7217C49.4264 80.8114 51.3935 82.2206 53.6714 82.8663C55.9494 83.5121 58.622 80.4808 59.0345 76.9293C59.4471 73.3779 54.7118 69.1807 53.9584 68.5349C53.2051 67.8892 50.694 66.2032 50.2455 67.387C49.7971 68.5708 51.6167 71.6451 53.4311 74.8905Z" fill="#F62727"/>
    </g>
    <path d="M50.5967 73.7199C49.7989 72.3025 48.1535 71.1283 47.4305 70.7184C47.7178 71.3736 48.4569 72.8292 49.0572 73.4779C49.5026 73.9814 51.594 75.4918 50.5967 73.7199Z" fill="#F62727"/>
    <path d="M46.6916 85.0164C45.221 84.9722 44.1613 84.2836 43.8152 83.9448L43.7477 83.7449C44.4249 82.2661 45.854 79.2365 46.1525 78.949C46.5257 78.5897 47.0233 78.3547 47.5899 78.2994C48.1546 78.2443 49.1241 78.4929 49.8842 79.1978C50.5383 79.8043 50.7917 80.7018 50.755 81.3815C50.7273 81.8929 50.418 82.6631 49.8842 83.4132C49.3729 84.1319 48.5298 85.0717 46.6916 85.0164Z" fill="#F75B5B"/>
    <mask id="mask18" mask-type="alpha" maskUnits="userSpaceOnUse" x="43" y="78" width="8" height="8">
        <path d="M46.6916 85.0164C45.221 84.9722 44.1613 84.2836 43.8152 83.9448L43.7477 83.7449C44.4249 82.2661 45.854 79.2365 46.1525 78.949C46.5257 78.5897 47.0233 78.3547 47.5899 78.2994C48.1546 78.2443 49.1241 78.4929 49.8842 79.1978C50.5383 79.8043 50.7917 80.7018 50.755 81.3815C50.7273 81.8929 50.418 82.6631 49.8842 83.4132C49.3729 84.1319 48.5298 85.0717 46.6916 85.0164Z" fill="#F75B5B"/>
    </mask>
    <g mask="url(#mask18)">
        <path d="M45.5193 84.5795C44.9932 84.561 43.9308 84.0102 43.4653 83.7371L43.69 84.1481C44.543 84.7495 46.7529 85.7397 48.7681 84.8898C51.2871 83.8274 50.8194 81.8697 50.7726 81.2817C50.7258 80.6937 50.4318 80.3262 49.9975 80.1926C49.5632 80.059 48.9003 80.0677 48.2541 80.4716C47.6079 80.8755 47.2271 81.6139 47.0309 82.7332C46.8348 83.8525 46.177 84.6026 45.5193 84.5795Z" fill="#F62727"/>
    </g>
    <path d="M37.7669 78.57C38.1357 80.7822 39.2178 82.2228 39.7128 82.6666L37.3829 87.6081C36.8111 87.1302 35.4729 85.8568 34.6945 84.5869C33.7216 82.9994 32.8254 80.6695 32.4669 78.8773C32.1085 77.085 32.1085 74.627 33.0815 72.5787C34.0544 70.5304 35.8723 69.3015 36.8196 68.9431C37.7669 68.5846 39.1239 68.2517 41.5051 68.8662C43.8862 69.4807 46.3954 71.3242 48.2133 73.9101C50.0311 76.4961 50.9528 79.0821 50.6712 81.54C50.3896 83.998 47.8804 85.0989 46.3698 84.9709C44.8592 84.8429 43.2973 83.5115 42.8877 83.1018C42.478 82.6922 40.7114 80.3879 39.7896 78.2371C39.0522 76.5166 38.7996 74.5673 38.7655 73.8077C38.6545 73.7736 38.3712 73.8129 38.1254 74.243C37.8181 74.7807 37.3061 75.8048 37.7669 78.57Z" fill="#F75B5B"/>
    <mask id="mask19" mask-type="alpha" maskUnits="userSpaceOnUse" x="32" y="68" width="19" height="20">
        <path d="M37.7669 78.57C38.1357 80.7822 39.2178 82.2228 39.7128 82.6666L37.3829 87.6081C36.8111 87.1302 35.4729 85.8568 34.6945 84.5869C33.7216 82.9994 32.8254 80.6695 32.4669 78.8773C32.1085 77.085 32.1085 74.627 33.0815 72.5787C34.0544 70.5304 35.8723 69.3015 36.8196 68.9431C37.7669 68.5846 39.1239 68.2517 41.5051 68.8662C43.8862 69.4807 46.3954 71.3242 48.2133 73.9101C50.0311 76.4961 50.9528 79.0821 50.6712 81.54C50.3896 83.998 47.8804 85.0989 46.3698 84.9709C44.8592 84.8429 43.2973 83.5115 42.8877 83.1018C42.478 82.6922 40.7114 80.3879 39.7896 78.2371C39.0522 76.5166 38.7996 74.5673 38.7655 73.8077C38.6545 73.7736 38.3712 73.8129 38.1254 74.243C37.8181 74.7807 37.3061 75.8048 37.7669 78.57Z" fill="#F75B5B"/>
    </mask>
    <g mask="url(#mask19)">
        <path d="M38.0427 81.4637C38.897 81.0933 36.8835 76.8048 37.8854 76.1937C37.9424 75.4762 38.1721 73.7345 38.7623 73.8044C39.3663 73.8759 40.7384 74.2492 41.2443 74.5072C40.8035 74.2184 38.2075 72.6099 36.4018 73.8447C34.9416 74.8432 34.7049 76.8122 35.2997 78.6114C35.8308 80.2181 37.124 81.862 38.0427 81.4637Z" fill="#F62727"/>
        <path d="M46.9991 78.5466C48.686 81.564 47.4622 82.7901 46.9166 83.4911C46.2229 84.3714 44.641 84.306 43.9092 84.3778C42.9944 84.4675 44.9615 85.8767 47.2394 86.5224C49.5174 87.1682 52.19 84.1369 52.6025 80.5854C53.015 77.0339 48.2798 72.8368 47.5264 72.191C46.7731 71.5453 44.262 69.8593 43.8135 71.0431C43.3651 72.2269 45.1847 75.3012 46.9991 78.5466Z" fill="#F62727"/>
    </g>
    <path d="M44.1647 77.376C43.3669 75.9585 41.7215 74.7844 40.9985 74.3745C41.2858 75.0297 42.0249 76.4853 42.6252 77.134C43.0706 77.6375 45.162 79.1479 44.1647 77.376Z" fill="#F62727"/>
    <path d="M40.2596 88.6725C38.789 88.6283 37.7293 87.9397 37.3832 87.6009L37.3157 87.401C37.9929 85.9222 39.422 82.8926 39.7205 82.6051C40.0937 82.2458 40.5913 82.0108 41.1579 81.9555C41.7226 81.9004 42.6921 82.149 43.4522 82.8539C44.1063 83.4604 44.3597 84.3579 44.323 85.0376C44.2953 85.549 43.986 86.3192 43.4522 87.0693C42.9409 87.788 42.0978 88.7278 40.2596 88.6725Z" fill="#F75B5B"/>
    <mask id="mask20" mask-type="alpha" maskUnits="userSpaceOnUse" x="37" y="81" width="8" height="8">
        <path d="M40.2596 88.6725C38.789 88.6283 37.7293 87.9397 37.3832 87.6009L37.3157 87.401C37.9929 85.9222 39.422 82.8926 39.7205 82.6051C40.0937 82.2458 40.5913 82.0108 41.1579 81.9555C41.7226 81.9004 42.6921 82.149 43.4522 82.8539C44.1063 83.4604 44.3597 84.3579 44.323 85.0376C44.2953 85.549 43.986 86.3192 43.4522 87.0693C42.9409 87.788 42.0978 88.7278 40.2596 88.6725Z" fill="#F75B5B"/>
    </mask>
    <g mask="url(#mask20)">
        <path d="M39.0873 88.2356C38.5612 88.2171 37.4988 87.6663 37.0333 87.3932L37.258 87.8042C38.111 88.4056 40.3209 89.3958 42.3361 88.5459C44.8551 87.4835 44.3874 85.5258 44.3406 84.9378C44.2938 84.3498 43.9998 83.9823 43.5655 83.8487C43.1312 83.7151 42.4683 83.7238 41.8221 84.1277C41.1759 84.5316 40.7951 85.27 40.5989 86.3893C40.4028 87.5086 39.745 88.2587 39.0873 88.2356Z" fill="#F62727"/>
    </g>
    <path d="M31.3349 82.2938C31.7036 84.506 32.7858 85.9466 33.2808 86.3904L30.9509 91.3319C30.3791 90.854 29.0409 89.5806 28.2625 88.3107C27.2896 86.7233 26.3934 84.3933 26.0349 82.6011C25.6765 80.8088 25.6765 78.3509 26.6495 76.3026C27.6224 74.2543 29.4403 73.0253 30.3876 72.6669C31.3349 72.3084 32.6919 71.9755 35.0731 72.59C37.4542 73.2045 39.9634 75.048 41.7812 77.6339C43.5991 80.2199 44.5208 82.8059 44.2392 85.2638C43.9576 87.7218 41.4484 88.8228 39.9378 88.6947C38.4272 88.5667 36.8653 87.2353 36.4557 86.8257C36.046 86.416 34.2794 84.1117 33.3576 81.961C32.6202 80.2404 32.3676 78.2911 32.3335 77.5316C32.2225 77.4974 31.9392 77.5367 31.6934 77.9668C31.3861 78.5045 30.8741 79.5286 31.3349 82.2938Z" fill="#F75B5B"/>
    <mask id="mask21" mask-type="alpha" maskUnits="userSpaceOnUse" x="25" y="72" width="20" height="20">
        <path d="M31.3349 82.2938C31.7036 84.506 32.7858 85.9466 33.2808 86.3904L30.9509 91.3319C30.3791 90.854 29.0409 89.5806 28.2625 88.3107C27.2896 86.7233 26.3934 84.3933 26.0349 82.6011C25.6765 80.8088 25.6765 78.3509 26.6495 76.3026C27.6224 74.2543 29.4403 73.0253 30.3876 72.6669C31.3349 72.3084 32.6919 71.9755 35.0731 72.59C37.4542 73.2045 39.9634 75.048 41.7812 77.6339C43.5991 80.2199 44.5208 82.8059 44.2392 85.2638C43.9576 87.7218 41.4484 88.8228 39.9378 88.6947C38.4272 88.5667 36.8653 87.2353 36.4557 86.8257C36.046 86.416 34.2794 84.1117 33.3576 81.961C32.6202 80.2404 32.3676 78.2911 32.3335 77.5316C32.2225 77.4974 31.9392 77.5367 31.6934 77.9668C31.3861 78.5045 30.8741 79.5286 31.3349 82.2938Z" fill="#F75B5B"/>
    </mask>
    <g mask="url(#mask21)">
        <path d="M31.6107 85.1874C32.465 84.8171 30.4515 80.5286 31.4534 79.9175C31.5104 79.2 31.7401 77.4583 32.3303 77.5282C32.9342 77.5997 34.3064 77.973 34.8123 78.231C34.3715 77.9422 31.7755 76.3336 29.9698 77.5685C28.5096 78.567 28.2729 80.536 28.8677 82.3352C29.3988 83.9418 30.692 85.5858 31.6107 85.1874Z" fill="#F62727"/>
        <path d="M40.5671 82.2704C42.254 85.2878 41.0302 86.5139 40.4846 87.2149C39.7909 88.0951 38.209 88.0298 37.4771 88.1015C36.5624 88.1912 38.5295 89.6005 40.8074 90.2462C43.0854 90.8919 45.758 87.8606 46.1705 84.3092C46.583 80.7577 41.8478 76.5605 41.0944 75.9148C40.3411 75.2691 37.8299 73.5831 37.3815 74.7669C36.9331 75.9507 38.7526 79.025 40.5671 82.2704Z" fill="#F62727"/>
    </g>
    <path d="M37.7327 81.0998C36.9349 79.6823 35.2895 78.5082 34.5665 78.0983C34.8538 78.7534 35.5929 80.209 36.1932 80.8577C36.6386 81.3612 38.7299 82.8717 37.7327 81.0998Z" fill="#F62727"/>
    <path d="M33.8276 92.3963C32.357 92.3521 31.2973 91.6635 30.9512 91.3247L30.8837 91.1248C31.5609 89.646 32.99 86.6164 33.2885 86.3289C33.6617 85.9696 34.1593 85.7346 34.7259 85.6793C35.2906 85.6242 36.2601 85.8728 37.0202 86.5777C37.6743 87.1842 37.9277 88.0817 37.8909 88.7614C37.8633 89.2728 37.5539 90.043 37.0202 90.7931C36.5089 91.5118 35.6658 92.4516 33.8276 92.3963Z" fill="#F75B5B"/>
    <mask id="mask22" mask-type="alpha" maskUnits="userSpaceOnUse" x="30" y="85" width="8" height="8">
        <path d="M33.8276 92.3963C32.357 92.3521 31.2973 91.6635 30.9512 91.3247L30.8837 91.1248C31.5609 89.646 32.99 86.6164 33.2885 86.3289C33.6617 85.9696 34.1593 85.7346 34.7259 85.6793C35.2906 85.6242 36.2601 85.8728 37.0202 86.5777C37.6743 87.1842 37.9277 88.0817 37.8909 88.7614C37.8633 89.2728 37.5539 90.043 37.0202 90.7931C36.5089 91.5118 35.6658 92.4516 33.8276 92.3963Z" fill="#F75B5B"/>
    </mask>
    <g mask="url(#mask22)">
        <path d="M32.6552 91.9594C32.129 91.941 31.0666 91.3901 30.6012 91.117L30.8258 91.5281C31.6789 92.1294 33.8887 93.1196 35.904 92.2697C38.423 91.2073 37.9552 89.2496 37.9085 88.6616C37.8617 88.0736 37.5677 87.7061 37.1334 87.5725C36.6991 87.4389 36.0361 87.4476 35.3899 87.8515C34.7438 88.2554 34.363 88.9939 34.1668 90.1132C33.9706 91.2325 33.3129 91.9825 32.6552 91.9594Z" fill="#F62727"/>
    </g>
    <path d="M24.8982 85.9613C25.2669 88.1734 26.349 89.614 26.844 90.0578L24.5141 94.9993C23.9423 94.5214 22.6041 93.2481 21.8257 91.9781C20.8528 90.3907 19.9566 88.0607 19.5982 86.2685C19.2397 84.4762 19.2398 82.0183 20.2127 79.97C21.1856 77.9217 23.0035 76.6927 23.9508 76.3343C24.8982 75.9758 26.2552 75.6429 28.6363 76.2574C31.0175 76.8719 33.5266 78.7154 35.3445 81.3014C37.1623 83.8873 38.0841 86.4733 37.8024 88.9313C37.5208 91.3892 35.0116 92.4902 33.501 92.3622C31.9904 92.2341 30.4286 90.9027 30.0189 90.4931C29.6092 90.0834 27.8426 87.7791 26.9209 85.6284C26.1835 83.9078 25.9309 81.9585 25.8967 81.199C25.7858 81.1648 25.5024 81.2041 25.2566 81.6342C24.9494 82.1719 24.4373 83.1961 24.8982 85.9613Z" fill="#F75B5B"/>
    <mask id="mask23" mask-type="alpha" maskUnits="userSpaceOnUse" x="19" y="75" width="19" height="20">
        <path d="M24.8982 85.9613C25.2669 88.1734 26.349 89.614 26.844 90.0578L24.5141 94.9993C23.9423 94.5214 22.6041 93.2481 21.8257 91.9781C20.8528 90.3907 19.9566 88.0607 19.5982 86.2685C19.2397 84.4762 19.2398 82.0183 20.2127 79.97C21.1856 77.9217 23.0035 76.6927 23.9508 76.3343C24.8982 75.9758 26.2552 75.6429 28.6363 76.2574C31.0175 76.8719 33.5266 78.7154 35.3445 81.3014C37.1623 83.8873 38.0841 86.4733 37.8024 88.9313C37.5208 91.3892 35.0116 92.4902 33.501 92.3622C31.9904 92.2341 30.4286 90.9027 30.0189 90.4931C29.6092 90.0834 27.8426 87.7791 26.9209 85.6284C26.1835 83.9078 25.9309 81.9585 25.8967 81.199C25.7858 81.1648 25.5024 81.2041 25.2566 81.6342C24.9494 82.1719 24.4373 83.1961 24.8982 85.9613Z" fill="#F75B5B"/>
    </mask>
    <g mask="url(#mask23)">
        <path d="M25.1741 88.8549C26.0283 88.4845 24.0149 84.196 25.0168 83.585C25.0737 82.8674 25.3034 81.1257 25.8937 81.1956C26.4976 81.2671 27.8698 81.6404 28.3757 81.8984C27.9348 81.6096 25.3389 80.0011 23.5331 81.2359C22.073 82.2344 21.8363 84.2034 22.431 86.0027C22.9622 87.6093 24.2554 89.2532 25.1741 88.8549Z" fill="#F62727"/>
        <path d="M34.1304 85.9378C35.8174 88.9552 34.5936 90.1813 34.0479 90.8823C33.3542 91.7626 31.7723 91.6972 31.0405 91.769C30.1257 91.8586 32.0928 93.2679 34.3708 93.9136C36.6487 94.5593 39.3213 91.528 39.7338 87.9766C40.1464 84.4251 35.4111 80.2279 34.6578 79.5822C33.9044 78.9365 31.3933 77.2505 30.9449 78.4343C30.4965 79.6181 32.316 82.6924 34.1304 85.9378Z" fill="#F62727"/>
    </g>
    <path d="M31.296 84.7672C30.4982 83.3498 28.8528 82.1756 28.1299 81.7657C28.4171 82.4209 29.1562 83.8765 29.7565 84.5252C30.2019 85.0287 32.2933 86.5391 31.296 84.7672Z" fill="#F62727"/>
    <path d="M27.3909 96.0637C25.9204 96.0195 24.8606 95.3309 24.5146 94.9921L24.447 94.7922C25.1243 93.3134 26.5534 90.2838 26.8519 89.9963C27.2251 89.637 27.7226 89.402 28.2893 89.3467C28.8539 89.2916 29.8234 89.5402 30.5836 90.2451C31.2376 90.8516 31.491 91.7491 31.4543 92.4288C31.4267 92.9402 31.1173 93.7104 30.5836 94.4605C30.0722 95.1792 29.2291 96.1191 27.3909 96.0637Z" fill="#F75B5B"/>
    <mask id="mask24" mask-type="alpha" maskUnits="userSpaceOnUse" x="24" y="89" width="8" height="8">
        <path d="M27.3909 96.0637C25.9204 96.0195 24.8606 95.3309 24.5146 94.9921L24.447 94.7922C25.1243 93.3134 26.5534 90.2838 26.8519 89.9963C27.2251 89.637 27.7226 89.402 28.2893 89.3467C28.8539 89.2916 29.8234 89.5402 30.5836 90.2451C31.2376 90.8516 31.491 91.7491 31.4543 92.4288C31.4267 92.9402 31.1173 93.7104 30.5836 94.4605C30.0722 95.1792 29.2291 96.1191 27.3909 96.0637Z" fill="#F75B5B"/>
    </mask>
    <g mask="url(#mask24)">
        <path d="M26.2185 95.6268C25.6924 95.6083 24.63 95.0575 24.1646 94.7844L24.3892 95.1955C25.2422 95.7968 27.4521 96.787 29.4673 95.9371C31.9863 94.8747 31.5186 92.917 31.4718 92.329C31.425 91.741 31.1311 91.3735 30.6967 91.2399C30.2624 91.1063 29.5995 91.115 28.9533 91.5189C28.3071 91.9228 27.9263 92.6613 27.7301 93.7805C27.534 94.8998 26.8763 95.6499 26.2185 95.6268Z" fill="#F62727"/>
    </g>
</svg>
