<svg width="128" height="128" viewBox="0 0 128 128" fill="none" 
    xmlns="http://www.w3.org/2000/svg">
    <path fill-rule="evenodd" clip-rule="evenodd" d="M90.8497 46.0551L105.485 37.6075L108.028 41.9444L92.728 50.7746L90.8497 46.0551ZM35.6067 77.9417L20.5449 86.6354L23.1435 90.9351L30.4054 86.7439L35.6067 77.9417Z" fill="#C94F12"/>
    <path d="M82.9766 51.1415C82.9766 51.1415 81.7474 44.2009 83.7959 43.8952L80.3612 41.388L79.5734 48.726C80.3612 48.726 82.9766 51.1415 82.9766 51.1415Z" fill="#963708"/>
    <path fill-rule="evenodd" clip-rule="evenodd" d="M93.2447 51.1843C93.2362 46.7586 90.0194 41.3903 86.0598 39.1937C82.1001 36.9972 78.8971 38.8042 78.9056 43.2299C78.9063 43.6243 78.8703 44.1148 78.8287 44.6807C78.6217 47.4994 78.2771 52.1898 81.6552 56.2095C84.1535 59.5954 85.3335 55.3103 85.8014 52.6118C85.3677 52.5835 84.8882 52.4354 84.3839 52.1556C82.4298 51.0716 81.5628 48.5862 81.5586 46.4021C81.5544 44.2181 82.4147 43.1624 84.3688 44.2464C86.3229 45.3304 87.9104 47.9797 87.9145 50.1638C87.917 51.471 87.3518 52.3153 86.4786 52.55C88.0758 56.5872 93.2522 55.1088 93.2447 51.1843Z" fill="#C94F12"/>
    <path fill-rule="evenodd" clip-rule="evenodd" d="M84.3574 44.2363C84.7035 46.8079 85.5346 49.4425 87.3362 50.7923C87.5084 50.9214 87.6671 51.0192 87.8133 51.0883C87.885 50.8133 87.9228 50.5044 87.9222 50.1641C87.918 47.98 86.3305 45.3307 84.3764 44.2467C84.3701 44.2432 84.3637 44.2397 84.3574 44.2363Z" fill="#963708"/>
    <path d="M77.4023 54.4372C77.4023 54.4372 76.1731 47.4966 78.2216 47.1909L74.7869 44.6837L73.999 52.0218C74.7869 52.0218 77.4023 54.4372 77.4023 54.4372Z" fill="#963708"/>
    <path fill-rule="evenodd" clip-rule="evenodd" d="M87.6704 54.48C87.6619 50.0544 84.4451 44.686 80.4854 42.4894C76.5258 40.2929 73.3227 42.0999 73.3312 46.5256C73.332 46.92 73.2959 47.4105 73.2544 47.9764C73.0473 50.7951 72.7028 55.4855 76.0809 59.5053C78.5792 62.8911 79.7591 58.606 80.2271 55.9076C79.7933 55.8792 79.3139 55.7311 78.8096 55.4513C76.8555 54.3673 75.9884 51.8819 75.9842 49.6979C75.9801 47.5138 76.8404 46.4581 78.7945 47.5421C80.7485 48.6261 82.336 51.2754 82.3402 53.4595C82.3427 54.7667 81.7775 55.611 80.9042 55.8458C82.5014 59.883 87.6779 58.4046 87.6704 54.48Z" fill="#C94F12"/>
    <path fill-rule="evenodd" clip-rule="evenodd" d="M78.7831 47.532C79.1292 50.1036 79.9602 52.7382 81.7618 54.088C81.9341 54.2171 82.0927 54.3149 82.2389 54.384C82.3106 54.1091 82.3485 53.8001 82.3478 53.4598C82.3436 51.2757 80.7562 48.6265 78.8021 47.5425C78.7957 47.5389 78.7894 47.5355 78.7831 47.532Z" fill="#963708"/>
    <path d="M71.8278 57.7331C71.8278 57.7331 70.5986 50.7925 72.6471 50.4868L69.2124 47.9796L68.4246 55.3177C69.2124 55.3177 71.8278 57.7331 71.8278 57.7331Z" fill="#963708"/>
    <path fill-rule="evenodd" clip-rule="evenodd" d="M82.0959 57.7759C82.0874 53.3503 78.8706 47.9819 74.911 45.7853C70.9513 43.5888 67.7483 45.3958 67.7567 49.8215C67.7575 50.2159 67.7215 50.7064 67.6799 51.2723C67.4729 54.091 67.1283 58.7814 70.5064 62.8012C73.0047 66.187 74.1847 61.9019 74.6526 59.2035C74.2189 59.1751 73.7394 59.027 73.2351 58.7472C71.281 57.6632 70.4139 55.1778 70.4098 52.9938C70.4056 50.8097 71.2659 49.754 73.22 50.838C75.1741 51.922 76.7616 54.5713 76.7657 56.7554C76.7682 58.0626 76.203 58.9069 75.3297 59.1417C76.927 63.1789 82.1034 61.7005 82.0959 57.7759Z" fill="#C94F12"/>
    <path fill-rule="evenodd" clip-rule="evenodd" d="M73.2086 50.8279C73.5547 53.3995 74.3858 56.0341 76.1874 57.3839C76.3596 57.513 76.5183 57.6108 76.6645 57.6799C76.7362 57.405 76.774 57.096 76.7734 56.7557C76.7692 54.5716 75.1817 51.9224 73.2276 50.8384C73.2213 50.8348 73.2149 50.8314 73.2086 50.8279Z" fill="#963708"/>
    <path d="M66.2536 61.0289C66.2536 61.0289 65.0244 54.0883 67.0729 53.7825L63.6382 51.2754L62.8503 58.6134C63.6382 58.6134 66.2536 61.0289 66.2536 61.0289Z" fill="#963708"/>
    <path fill-rule="evenodd" clip-rule="evenodd" d="M76.5217 61.0717C76.5132 56.646 73.2964 51.2777 69.3368 49.0811C65.3771 46.8846 62.1741 48.6916 62.1825 53.1172C62.1833 53.5117 62.1473 54.0022 62.1057 54.5681C61.8986 57.3868 61.5541 62.0772 64.9322 66.0969C67.4305 69.4828 68.6104 65.1977 69.0784 62.4992C68.6446 62.4709 68.1652 62.3228 67.6609 62.043C65.7068 60.959 64.8397 58.4736 64.8356 56.2895C64.8314 54.1055 65.6917 53.0498 67.6458 54.1338C69.5999 55.2178 71.1873 57.8671 71.1915 60.0512C71.194 61.3584 70.6288 62.2026 69.7555 62.4374C71.3528 66.4746 76.5292 64.9962 76.5217 61.0717Z" fill="#C94F12"/>
    <path fill-rule="evenodd" clip-rule="evenodd" d="M67.6344 54.1237C67.9805 56.6953 68.8115 59.3299 70.6132 60.6797C70.7854 60.8087 70.9441 60.9066 71.0902 60.9757C71.162 60.7007 71.1998 60.3918 71.1991 60.0515C71.195 57.8674 69.6075 55.2181 67.6534 54.1341C67.6471 54.1306 67.6407 54.1271 67.6344 54.1237Z" fill="#963708"/>
    <path d="M60.6791 64.3248C60.6791 64.3248 59.4499 57.3842 61.4984 57.0784L58.0637 54.5713L57.2759 61.9093C58.0637 61.9093 60.6791 64.3248 60.6791 64.3248Z" fill="#963708"/>
    <path fill-rule="evenodd" clip-rule="evenodd" d="M70.9472 64.3676C70.9388 59.9419 67.722 54.5736 63.7623 52.377C59.8027 50.1805 56.5996 51.9875 56.6081 56.4131C56.6088 56.8076 56.5728 57.2981 56.5312 57.864C56.3242 60.6827 55.9796 65.3731 59.3577 69.3928C61.856 72.7787 63.036 68.4936 63.5039 65.7951C63.0702 65.7668 62.5907 65.6187 62.0864 65.3389C60.1324 64.2549 59.2653 61.7695 59.2611 59.5854C59.2569 57.4014 60.1172 56.3457 62.0713 57.4297C64.0254 58.5137 65.6129 61.163 65.6171 63.3471C65.6196 64.6543 65.0543 65.4985 64.1811 65.7333C65.7783 69.7705 70.9547 68.2921 70.9472 64.3676Z" fill="#C94F12"/>
    <path fill-rule="evenodd" clip-rule="evenodd" d="M62.0599 57.4196C62.406 59.9912 63.2371 62.6258 65.0387 63.9756C65.2109 64.1046 65.3696 64.2025 65.5158 64.2716C65.5875 63.9966 65.6253 63.6877 65.6247 63.3474C65.6205 61.1633 64.033 58.514 62.0789 57.43C62.0726 57.4265 62.0663 57.423 62.0599 57.4196Z" fill="#963708"/>
    <path d="M55.3033 67.6205C55.3033 67.6205 54.0741 60.6799 56.1226 60.3742L52.6879 57.867L51.9 65.205C52.6879 65.205 55.3033 67.6205 55.3033 67.6205Z" fill="#963708"/>
    <path fill-rule="evenodd" clip-rule="evenodd" d="M65.5714 67.6633C65.5629 63.2376 62.3461 57.8693 58.3864 55.6727C54.4268 53.4762 51.2237 55.2832 51.2322 59.7089C51.233 60.1033 51.1969 60.5938 51.1554 61.1597C50.9483 63.9784 50.6038 68.6688 53.9819 72.6885C56.4802 76.0744 57.6601 71.7893 58.1281 69.0908C57.6943 69.0625 57.2149 68.9144 56.7106 68.6346C54.7565 67.5506 53.8894 65.0652 53.8852 62.8811C53.8811 60.6971 54.7414 59.6414 56.6955 60.7254C58.6495 61.8094 60.237 64.4587 60.2412 66.6428C60.2437 67.95 59.6785 68.7943 58.8052 69.0291C60.4025 73.0662 65.5789 71.5878 65.5714 67.6633Z" fill="#C94F12"/>
    <path fill-rule="evenodd" clip-rule="evenodd" d="M56.6841 60.7153C57.0302 63.2869 57.8612 65.9215 59.6628 67.2713C59.8351 67.4004 59.9937 67.4982 60.1399 67.5673C60.2116 67.2924 60.2495 66.9834 60.2488 66.6431C60.2446 64.459 58.6572 61.8097 56.7031 60.7257C56.6967 60.7222 56.6904 60.7187 56.6841 60.7153Z" fill="#963708"/>
    <path d="M49.7288 70.9163C49.7288 70.9163 48.4996 63.9757 50.5481 63.6699L47.1134 61.1628L46.3256 68.5008C47.1134 68.5008 49.7288 70.9163 49.7288 70.9163Z" fill="#963708"/>
    <path fill-rule="evenodd" clip-rule="evenodd" d="M59.9969 70.9591C59.9884 66.5334 56.7716 61.1651 52.812 58.9685C48.8523 56.772 45.6493 58.579 45.6578 63.0046C45.6585 63.3991 45.6225 63.8895 45.5809 64.4555C45.3739 67.2741 45.0293 71.9646 48.4074 75.9843C50.9057 79.3702 52.0857 75.0851 52.5536 72.3866C52.1199 72.3583 51.6404 72.2101 51.1361 71.9304C49.182 70.8464 48.315 68.361 48.3108 66.1769C48.3066 63.9929 49.1669 62.9372 51.121 64.0212C53.0751 65.1052 54.6626 67.7545 54.6667 69.9386C54.6692 71.2458 54.104 72.09 53.2307 72.3248C54.828 76.362 60.0044 74.8836 59.9969 70.9591Z" fill="#C94F12"/>
    <path fill-rule="evenodd" clip-rule="evenodd" d="M51.1096 64.011C51.4557 66.5827 52.2868 69.2173 54.0884 70.5671C54.2606 70.6961 54.4193 70.794 54.5655 70.8631C54.6372 70.5881 54.675 70.2792 54.6744 69.9389C54.6702 67.7548 53.0827 65.1055 51.1286 64.0215C51.1223 64.018 51.1159 64.0145 51.1096 64.011Z" fill="#963708"/>
    <path d="M44.1545 74.2121C44.1545 74.2121 42.9253 67.2716 44.9738 66.9658L41.5391 64.4587L40.7512 71.7967C41.5391 71.7967 44.1545 74.2121 44.1545 74.2121Z" fill="#963708"/>
    <path fill-rule="evenodd" clip-rule="evenodd" d="M54.4226 74.255C54.4141 69.8293 51.1973 64.461 47.2376 62.2644C43.278 60.0678 40.0749 61.8749 40.0834 66.3005C40.0842 66.695 40.0481 67.1854 40.0066 67.7514C39.7995 70.57 39.455 75.2605 42.8331 79.2802C45.3314 82.6661 46.5113 78.381 46.9793 75.6825C46.5455 75.6542 46.0661 75.506 45.5618 75.2263C43.6077 74.1423 42.7406 71.6569 42.7364 69.4728C42.7322 67.2888 43.5926 66.2331 45.5467 67.3171C47.5007 68.4011 49.0882 71.0504 49.0924 73.2344C49.0949 74.5417 48.5297 75.3859 47.6564 75.6207C49.2536 79.6579 54.4301 78.1795 54.4226 74.255Z" fill="#C94F12"/>
    <path fill-rule="evenodd" clip-rule="evenodd" d="M45.5353 67.3069C45.8814 69.8786 46.7124 72.5132 48.514 73.863C48.6863 73.992 48.8449 74.0899 48.9911 74.159C49.0628 73.884 49.1007 73.5751 49.1 73.2348C49.0958 71.0507 47.5084 68.4014 45.5543 67.3174C45.5479 67.3139 45.5416 67.3104 45.5353 67.3069Z" fill="#963708"/>
    <path d="M30.9441 86.4722C40.8383 80.7653 38.0595 70.1357 39.3995 70.2615L35.9649 67.7544L37.2076 71.8207C37.0083 75.6627 38.1399 79.9265 30.9441 86.4722Z" fill="#963708"/>
    <path fill-rule="evenodd" clip-rule="evenodd" d="M48.8484 77.5508C48.8399 73.1252 45.6231 67.7568 41.6635 65.5602C37.7038 63.3637 34.5007 65.1707 34.5092 69.5964C34.3908 74.6689 34.0086 78.7308 30.6359 80.8699L30.1406 86.9303C36.0693 83.5589 37.1767 77.7376 37.3107 74.3344C37.2118 73.8106 37.1632 73.2814 37.1623 72.7688C37.1615 72.3659 37.1901 72.0014 37.2496 71.6816C37.2496 71.6815 37.2496 71.6814 37.2496 71.6813L37.2497 71.6813C37.5128 70.268 38.379 69.7291 39.9725 70.613C41.9266 71.697 43.5141 74.3463 43.5182 76.5304C43.5208 77.8726 42.9248 78.7268 42.0114 78.9342C44.5695 83.197 48.8556 81.3192 48.8484 77.5508Z" fill="#C94F12"/>
    <path fill-rule="evenodd" clip-rule="evenodd" d="M39.76 70.4987C39.8171 72.5638 40.3612 74.925 42.1985 77.5764C42.7275 78.311 43.0689 78.2987 43.2986 77.808C43.4463 77.4538 43.5267 77.0253 43.5257 76.5305C43.5215 74.3465 41.9341 71.6972 39.98 70.6132C39.9061 70.5722 39.8328 70.534 39.76 70.4987Z" fill="#963708"/>
    <circle r="2.05236" transform="matrix(-0.0018571 -0.999998 0.868138 0.496323 21.7757 88.8)" fill="#963708"/>
    <circle r="2.05236" transform="matrix(-0.0018571 -0.999998 0.868138 0.496323 106.673 39.8225)" fill="#C94F12"/>
</svg>
