<svg width="128" height="128" viewBox="0 0 128 128" fill="none" 
    xmlns="http://www.w3.org/2000/svg">
    <path d="M88.9258 28.6663C84.8893 30.2929 83.2526 33.2098 82.9388 34.4649C85.1249 35.5283 89.5891 37.5854 89.9576 37.3063C90.4182 36.9574 92.7907 36.2735 94.0608 36.455C95.3308 36.6364 96.8241 37.0411 99.5875 39.6231C102.351 42.205 102.379 44.5078 104.123 46.35C105.868 48.1923 108.296 48.6808 110.808 46.992C113.321 45.3033 112.384 43.5393 111.744 41.732C111.104 39.9246 109.324 37.1764 106.82 34.2389C105.065 32.1794 101.577 29.7205 99.9205 29.0051C98.2638 28.2897 93.9713 26.633 88.9258 28.6663Z" fill="#F75B5B"/>
    <mask id="mask0" mask-type="alpha" maskUnits="userSpaceOnUse" x="82" y="27" width="31" height="22">
        <path d="M88.9258 28.6663C84.8893 30.2929 83.2526 33.2098 82.9388 34.4649C85.1249 35.5283 89.5891 37.5854 89.9576 37.3063C90.4182 36.9574 92.7907 36.2735 94.0608 36.455C95.3308 36.6364 96.8241 37.0411 99.5875 39.6231C102.351 42.205 102.379 44.5078 104.123 46.35C105.868 48.1923 108.296 48.6808 110.808 46.992C113.321 45.3033 112.384 43.5393 111.744 41.732C111.104 39.9246 108.091 35.7074 106.811 34.0883C105.531 32.4693 101.577 29.7205 99.9205 29.0051C98.2638 28.2897 93.9713 26.633 88.9258 28.6663Z" fill="#F75B5B"/>
    </mask>
    <g mask="url(#mask0)">
        <path d="M103.816 31.8633C105.254 32.8403 105.547 33.1194 109.622 37.4877C110.985 38.4228 113.725 40.3739 113.781 40.6977C113.837 41.0215 114.698 44.7683 115.121 46.6013C112.213 47.4526 106.367 49.1469 106.245 49.1134C106.091 49.0716 104.347 47.1316 105.142 46.5734C105.938 46.0151 107.124 46.7408 107.724 45.3173C108.324 43.8937 104.64 39.5533 102.155 35.0872C99.6711 30.6212 102.379 30.8864 103.816 31.8633Z" fill="#F62727"/>
        <path d="M93 35.6874C94.8758 36.0893 96.0983 37.1761 96.4752 37.6692C94.926 38.0553 91.7802 38.822 91.5904 38.7997C91.4006 38.7773 88.413 38.2693 86.9429 38.0181C86.6684 37.5482 86.3651 36.5108 87.3476 36.12C88.5758 35.6316 90.6553 35.1849 93 35.6874Z" fill="#F62727"/>
    </g>
    <path d="M80.4408 50.9453C81.0774 54.7646 82.9457 57.2518 83.8003 58.018L79.7777 66.5494C78.7905 65.7243 76.4801 63.5259 75.1363 61.3333C73.4565 58.5927 71.9093 54.5701 71.2905 51.4758C70.6716 48.3815 70.6716 44.1379 72.3514 40.6015C74.0312 37.0652 77.1697 34.9434 78.8052 34.3246C80.4408 33.7057 82.7836 33.131 86.8946 34.1919C91.0056 35.2528 95.3376 38.4355 98.4761 42.9001C101.615 47.3647 103.206 51.8294 102.72 56.073C102.234 60.3166 97.9015 62.2174 95.2934 61.9964C92.6854 61.7753 89.9889 59.4767 89.2817 58.7695C88.5744 58.0622 85.5243 54.0838 83.9329 50.3706C82.6598 47.4001 82.2237 44.0347 82.1648 42.7233C81.9732 42.6644 81.484 42.7322 81.0596 43.4748C80.5292 44.4031 79.6451 46.1713 80.4408 50.9453Z" fill="#F75B5B"/>
    <mask id="mask1" mask-type="alpha" maskUnits="userSpaceOnUse" x="70" y="33" width="33" height="34">
        <path d="M80.4408 50.9453C81.0774 54.7646 82.9457 57.2518 83.8003 58.018L79.7777 66.5494C78.7905 65.7243 76.4801 63.5259 75.1363 61.3333C73.4565 58.5927 71.9093 54.5701 71.2905 51.4758C70.6716 48.3815 70.6716 44.1379 72.3514 40.6015C74.0312 37.0652 77.1697 34.9434 78.8052 34.3246C80.4408 33.7057 82.7836 33.131 86.8946 34.1919C91.0056 35.2528 95.3376 38.4355 98.4761 42.9001C101.615 47.3647 103.206 51.8294 102.72 56.073C102.234 60.3166 97.9015 62.2174 95.2934 61.9964C92.6854 61.7753 89.9889 59.4767 89.2817 58.7695C88.5744 58.0622 85.5243 54.0838 83.9329 50.3706C82.6598 47.4001 82.2237 44.0347 82.1648 42.7233C81.9732 42.6644 81.484 42.7322 81.0596 43.4748C80.5292 44.4031 79.6451 46.1713 80.4408 50.9453Z" fill="#F75B5B"/>
    </mask>
    <g mask="url(#mask1)">
        <path d="M80.9169 55.9412C82.3918 55.3017 78.9156 47.8977 80.6454 46.8427C80.7437 45.6039 81.1403 42.5969 82.1593 42.7176C83.202 42.8411 85.571 43.4855 86.4445 43.931C85.6833 43.4323 81.2014 40.6553 78.0839 42.7872C75.5629 44.511 75.1543 47.9105 76.1812 51.0168C77.0981 53.7907 79.3308 56.6289 80.9169 55.9412Z" fill="#F62727"/>
        <path d="M96.3799 50.9049C99.2924 56.1144 97.1796 58.2312 96.2375 59.4415C95.0398 60.9612 92.3087 60.8484 91.0452 60.9723C89.4659 61.1271 92.8621 63.5602 96.7949 64.675C100.728 65.7898 105.342 60.5563 106.054 54.4248C106.766 48.2933 98.591 41.0469 97.2904 39.9321C95.9898 38.8173 91.6544 35.9064 90.8802 37.9502C90.106 39.9941 93.2474 45.3018 96.3799 50.9049Z" fill="#F62727"/>
    </g>
    <path d="M91.4864 48.8839C90.109 46.4367 87.2683 44.4095 86.0201 43.7018C86.5161 44.833 87.7921 47.346 88.8285 48.466C89.5975 49.3353 93.2082 51.943 91.4864 48.8839Z" fill="#F62727"/>
    <path d="M84.7442 68.3872C82.2053 68.3108 80.3757 67.1219 79.7783 66.537L79.6616 66.1919C80.8309 63.6387 83.2982 58.4082 83.8136 57.9119C84.4578 57.2915 85.3169 56.8858 86.2952 56.7903C87.2701 56.6952 88.9439 57.1244 90.2563 58.3414C91.3855 59.3885 91.823 60.938 91.7596 62.1115C91.7119 62.9945 91.1777 64.3242 90.2563 65.6192C89.3734 66.8601 87.9178 68.4827 84.7442 68.3872Z" fill="#F75B5B"/>
    <mask id="mask2" mask-type="alpha" maskUnits="userSpaceOnUse" x="79" y="56" width="13" height="13">
        <path d="M84.7442 68.3872C82.2053 68.3108 80.3757 67.1219 79.7783 66.537L79.6616 66.1919C80.8309 63.6387 83.2982 58.4082 83.8136 57.9119C84.4578 57.2915 85.3169 56.8858 86.2952 56.7903C87.2701 56.6952 88.9439 57.1244 90.2563 58.3414C91.3855 59.3885 91.823 60.938 91.7596 62.1115C91.7119 62.9945 91.1777 64.3242 90.2563 65.6192C89.3734 66.8601 87.9178 68.4827 84.7442 68.3872Z" fill="#F75B5B"/>
    </mask>
    <g mask="url(#mask2)">
        <path d="M82.7204 67.6328C81.812 67.6009 79.9778 66.65 79.1742 66.1785L79.562 66.8881C81.0348 67.9263 84.8501 69.6359 88.3293 68.1686C92.6783 66.3344 91.8708 62.9544 91.7901 61.9392C91.7093 60.9241 91.2017 60.2896 90.4519 60.0589C89.7021 59.8282 88.5575 59.8433 87.4419 60.5406C86.3262 61.2379 85.6688 62.5128 85.3301 64.4453C84.9915 66.3777 83.8559 67.6727 82.7204 67.6328Z" fill="#F62727"/>
    </g>
    <path d="M69.4987 57.3634C70.1352 61.1826 72.0035 63.6698 72.8581 64.436L68.8356 72.9675C67.8484 72.1423 65.538 69.9439 64.1941 67.7514C62.5144 65.0107 60.9672 60.9881 60.3483 57.8938C59.7295 54.7995 59.7295 50.5559 61.4093 47.0195C63.089 43.4832 66.2275 41.3614 67.8631 40.7426C69.4987 40.1237 71.8415 39.549 75.9525 40.6099C80.0635 41.6708 84.3955 44.8535 87.534 49.3181C90.6725 53.7828 92.2639 58.2474 91.7776 62.491C91.2914 66.7346 86.9594 68.6354 84.3513 68.4144C81.7432 68.1934 79.0468 65.8948 78.3395 65.1875C77.6322 64.4802 74.5821 60.5018 72.9908 56.7887C71.7177 53.8181 71.2816 50.4528 71.2226 49.1414C71.0311 49.0824 70.5419 49.1502 70.1175 49.8928C69.587 50.8211 68.703 52.5893 69.4987 57.3634Z" fill="#F75B5B"/>
    <mask id="mask3" mask-type="alpha" maskUnits="userSpaceOnUse" x="59" y="40" width="33" height="33">
        <path d="M69.4987 57.3634C70.1352 61.1826 72.0035 63.6698 72.8581 64.436L68.8356 72.9675C67.8484 72.1423 65.538 69.9439 64.1941 67.7514C62.5144 65.0107 60.9672 60.9881 60.3483 57.8938C59.7295 54.7995 59.7295 50.5559 61.4093 47.0195C63.089 43.4832 66.2275 41.3614 67.8631 40.7426C69.4987 40.1237 71.8415 39.549 75.9525 40.6099C80.0635 41.6708 84.3955 44.8535 87.534 49.3181C90.6725 53.7828 92.2639 58.2474 91.7776 62.491C91.2914 66.7346 86.9594 68.6354 84.3513 68.4144C81.7432 68.1934 79.0468 65.8948 78.3395 65.1875C77.6322 64.4802 74.5821 60.5018 72.9908 56.7887C71.7177 53.8181 71.2816 50.4528 71.2226 49.1414C71.0311 49.0824 70.5419 49.1502 70.1175 49.8928C69.587 50.8211 68.703 52.5893 69.4987 57.3634Z" fill="#F75B5B"/>
    </mask>
    <g mask="url(#mask3)">
        <path d="M69.9749 62.3592C71.4498 61.7198 67.9736 54.3157 69.7034 53.2608C69.8017 52.022 70.1983 49.015 71.2173 49.1356C72.26 49.2591 74.629 49.9036 75.5024 50.349C74.7413 49.8503 70.2594 47.0733 67.1418 49.2052C64.6209 50.9291 64.2122 54.3285 65.2391 57.4349C66.1561 60.2087 68.3888 63.0469 69.9749 62.3592Z" fill="#F62727"/>
        <path d="M85.4377 57.3229C88.3502 62.5324 86.2373 64.6493 85.2952 65.8595C84.0976 67.3793 81.3665 67.2664 80.103 67.3903C78.5237 67.5451 81.9198 69.9782 85.8527 71.093C89.7855 72.2078 94.3996 66.9744 95.1119 60.8428C95.8241 54.7113 87.6488 47.4649 86.3481 46.3501C85.0475 45.2353 80.7121 42.3244 79.9379 44.3683C79.1637 46.4121 82.3051 51.7198 85.4377 57.3229Z" fill="#F62727"/>
    </g>
    <path d="M80.5443 55.302C79.1669 52.8547 76.3262 50.8275 75.078 50.1199C75.5739 51.251 76.85 53.7641 77.8864 54.8841C78.6553 55.7533 82.2661 58.3611 80.5443 55.302Z" fill="#F62727"/>
    <path d="M73.8022 74.8052C71.2633 74.7288 69.4337 73.5399 68.8363 72.9551L68.7196 72.61C69.8888 70.0568 72.3561 64.8262 72.8716 64.3299C73.5158 63.7095 74.3749 63.3038 75.3532 63.2084C76.3281 63.1133 78.0019 63.5424 79.3143 64.7594C80.4434 65.8065 80.8809 67.356 80.8175 68.5296C80.7698 69.4125 80.2357 70.7422 79.3143 72.0373C78.4314 73.2781 76.9758 74.9007 73.8022 74.8052Z" fill="#F75B5B"/>
    <mask id="mask4" mask-type="alpha" maskUnits="userSpaceOnUse" x="68" y="63" width="13" height="12">
        <path d="M73.8022 74.8052C71.2633 74.7288 69.4337 73.5399 68.8363 72.9551L68.7196 72.61C69.8888 70.0568 72.3561 64.8262 72.8716 64.3299C73.5158 63.7095 74.3749 63.3038 75.3532 63.2084C76.3281 63.1133 78.0019 63.5424 79.3143 64.7594C80.4434 65.8065 80.8809 67.356 80.8175 68.5296C80.7698 69.4125 80.2357 70.7422 79.3143 72.0373C78.4314 73.2781 76.9758 74.9007 73.8022 74.8052Z" fill="#F75B5B"/>
    </mask>
    <g mask="url(#mask4)">
        <path d="M71.7781 74.0508C70.8697 74.019 69.0355 73.068 68.2319 72.5965L68.6198 73.3061C70.0925 74.3444 73.9078 76.054 77.387 74.5866C81.7361 72.7524 80.9286 69.3724 80.8478 68.3572C80.767 67.3421 80.2595 66.7077 79.5096 66.4769C78.7598 66.2462 77.6152 66.2614 76.4996 66.9586C75.384 67.6559 74.7265 68.9309 74.3879 70.8633C74.0492 72.7958 72.9136 74.0907 71.7781 74.0508Z" fill="#F62727"/>
    </g>
    <path d="M58.3938 63.7925C59.0304 67.6118 60.8987 70.099 61.7533 70.8652L57.7307 79.3966C56.7435 78.5715 54.4331 76.373 53.0893 74.1805C51.4095 71.4398 49.8623 67.4172 49.2435 64.3229C48.6246 61.2286 48.6246 56.985 50.3044 53.4487C51.9842 49.9123 55.1227 47.7906 56.7582 47.1717C58.3938 46.5529 60.7366 45.9781 64.8476 47.039C68.9586 48.0999 73.2906 51.2826 76.4292 55.7473C79.5677 60.2119 81.159 64.6765 80.6728 68.9202C80.1865 73.1638 75.8545 75.0646 73.2464 74.8435C70.6384 74.6225 67.9419 72.3239 67.2347 71.6166C66.5274 70.9094 63.4773 66.931 61.8859 63.2178C60.6129 60.2473 60.1767 56.8819 60.1178 55.5705C59.9262 55.5116 59.437 55.5793 59.0126 56.322C58.4822 57.2503 57.5981 59.0184 58.3938 63.7925Z" fill="#F75B5B"/>
    <mask id="mask5" mask-type="alpha" maskUnits="userSpaceOnUse" x="48" y="46" width="33" height="34">
        <path d="M58.3938 63.7925C59.0304 67.6118 60.8987 70.099 61.7533 70.8652L57.7307 79.3966C56.7435 78.5715 54.4331 76.373 53.0893 74.1805C51.4095 71.4398 49.8623 67.4172 49.2435 64.3229C48.6246 61.2286 48.6246 56.985 50.3044 53.4487C51.9842 49.9123 55.1227 47.7906 56.7582 47.1717C58.3938 46.5529 60.7366 45.9781 64.8476 47.039C68.9586 48.0999 73.2906 51.2826 76.4292 55.7473C79.5677 60.2119 81.159 64.6765 80.6728 68.9202C80.1865 73.1638 75.8545 75.0646 73.2464 74.8435C70.6384 74.6225 67.9419 72.3239 67.2347 71.6166C66.5274 70.9094 63.4773 66.931 61.8859 63.2178C60.6129 60.2473 60.1767 56.8819 60.1178 55.5705C59.9262 55.5116 59.437 55.5793 59.0126 56.322C58.4822 57.2503 57.5981 59.0184 58.3938 63.7925Z" fill="#F75B5B"/>
    </mask>
    <g mask="url(#mask5)">
        <path d="M58.8701 68.7883C60.3449 68.1488 56.8688 60.7448 58.5985 59.6898C58.6968 58.451 59.0934 55.444 60.1125 55.5647C61.1551 55.6882 63.5241 56.3327 64.3976 56.7781C63.6364 56.2794 59.1546 53.5024 56.037 55.6343C53.5161 57.3581 53.1074 60.7576 54.1343 63.8639C55.0513 66.6378 57.2839 69.476 58.8701 68.7883Z" fill="#F62727"/>
        <path d="M74.3329 63.752C77.2454 68.9615 75.1326 71.0783 74.1905 72.2886C72.9928 73.8083 70.2617 73.6955 68.9983 73.8194C67.4189 73.9742 70.8151 76.4073 74.7479 77.5221C78.6808 78.6369 83.2949 73.4034 84.0072 67.2719C84.7194 61.1404 76.544 53.894 75.2434 52.7792C73.9428 51.6644 69.6074 48.7535 68.8332 50.7973C68.059 52.8412 71.2004 58.1489 74.3329 63.752Z" fill="#F62727"/>
    </g>
    <path d="M69.4394 61.731C68.062 59.2838 65.2213 57.2566 63.9731 56.549C64.4691 57.6801 65.7451 60.1931 66.7815 61.3131C67.5505 62.1824 71.1612 64.7901 69.4394 61.731Z" fill="#F62727"/>
    <path d="M62.6973 81.2342C60.1584 81.1578 58.3288 79.969 57.7314 79.3841L57.6147 79.039C58.784 76.4858 61.2513 71.2553 61.7667 70.7589C62.411 70.1385 63.27 69.7328 64.2483 69.6374C65.2232 69.5423 66.897 69.9714 68.2094 71.1884C69.3386 72.2355 69.7761 73.785 69.7127 74.9586C69.665 75.8415 69.1309 77.1712 68.2094 78.4663C67.3265 79.7071 65.8709 81.3297 62.6973 81.2342Z" fill="#F75B5B"/>
    <mask id="mask6" mask-type="alpha" maskUnits="userSpaceOnUse" x="57" y="69" width="13" height="13">
        <path d="M62.6973 81.2342C60.1584 81.1578 58.3288 79.969 57.7314 79.3841L57.6147 79.039C58.784 76.4858 61.2513 71.2553 61.7667 70.7589C62.411 70.1385 63.27 69.7328 64.2483 69.6374C65.2232 69.5423 66.897 69.9714 68.2094 71.1884C69.3386 72.2355 69.7761 73.785 69.7127 74.9586C69.665 75.8415 69.1309 77.1712 68.2094 78.4663C67.3265 79.7071 65.8709 81.3297 62.6973 81.2342Z" fill="#F75B5B"/>
    </mask>
    <g mask="url(#mask6)">
        <path d="M60.6733 80.4799C59.7648 80.448 57.9306 79.497 57.1271 79.0255L57.5149 79.7351C58.9877 80.7734 62.803 82.483 66.2822 81.0156C70.6312 79.1814 69.8237 75.8014 69.7429 74.7863C69.6622 73.7711 69.1546 73.1367 68.4048 72.906C67.655 72.6752 66.5104 72.6904 65.3948 73.3876C64.2791 74.0849 63.6217 75.3599 63.283 77.2923C62.9443 79.2248 61.8088 80.5197 60.6733 80.4799Z" fill="#F62727"/>
    </g>
    <path d="M47.2889 70.1046C47.9255 73.9238 49.7938 76.411 50.6484 77.1772L46.6259 85.7087C45.6387 84.8835 43.3282 82.6851 41.9844 80.4926C40.3047 77.7519 38.7575 73.7293 38.1386 70.635C37.5197 67.5407 37.5198 63.2971 39.1996 59.7607C40.8793 56.2244 44.0178 54.1027 45.6534 53.4838C47.2889 52.8649 49.6318 52.2902 53.7428 53.3511C57.8538 54.412 62.1858 57.5947 65.3243 62.0594C68.4628 66.524 70.0542 70.9886 69.5679 75.2322C69.0817 79.4758 64.7496 81.3766 62.1416 81.1556C59.5335 80.9346 56.8371 78.636 56.1298 77.9287C55.4225 77.2214 52.3724 73.243 50.7811 69.5299C49.508 66.5593 49.0718 63.194 49.0129 61.8826C48.8213 61.8236 48.3321 61.8914 47.9078 62.634C47.3773 63.5623 46.4932 65.3305 47.2889 70.1046Z" fill="#F75B5B"/>
    <mask id="mask7" mask-type="alpha" maskUnits="userSpaceOnUse" x="37" y="52" width="33" height="34">
        <path d="M47.2889 70.1046C47.9255 73.9238 49.7938 76.411 50.6484 77.1772L46.6259 85.7087C45.6387 84.8835 43.3282 82.6851 41.9844 80.4926C40.3047 77.7519 38.7575 73.7293 38.1386 70.635C37.5197 67.5407 37.5198 63.2971 39.1996 59.7607C40.8793 56.2244 44.0178 54.1027 45.6534 53.4838C47.2889 52.8649 49.6318 52.2902 53.7428 53.3511C57.8538 54.412 62.1858 57.5947 65.3243 62.0594C68.4628 66.524 70.0542 70.9886 69.5679 75.2322C69.0817 79.4758 64.7496 81.3766 62.1416 81.1556C59.5335 80.9346 56.8371 78.636 56.1298 77.9287C55.4225 77.2214 52.3724 73.243 50.7811 69.5299C49.508 66.5593 49.0718 63.194 49.0129 61.8826C48.8213 61.8236 48.3321 61.8914 47.9078 62.634C47.3773 63.5623 46.4932 65.3305 47.2889 70.1046Z" fill="#F75B5B"/>
    </mask>
    <g mask="url(#mask7)">
        <path d="M47.7653 75.1005C49.2402 74.461 45.764 67.057 47.4938 66.002C47.5921 64.7632 47.9887 61.7562 49.0077 61.8769C50.0504 62.0004 52.4194 62.6448 53.2928 63.0903C52.5317 62.5916 48.0498 59.8146 44.9323 61.9465C42.4113 63.6703 42.0027 67.0698 43.0295 70.1761C43.9465 72.95 46.1792 75.7882 47.7653 75.1005Z" fill="#F62727"/>
        <path d="M63.2281 70.0642C66.1406 75.2737 64.0277 77.3905 63.0856 78.6008C61.888 80.1205 59.1569 80.0077 57.8934 80.1316C56.3141 80.2864 59.7102 82.7195 63.6431 83.8343C67.5759 84.9491 72.1901 79.7156 72.9023 73.5841C73.6145 67.4526 65.4392 60.2062 64.1386 59.0914C62.8379 57.9766 58.5025 55.0657 57.7283 57.1095C56.9541 59.1534 60.0955 64.4611 63.2281 70.0642Z" fill="#F62727"/>
    </g>
    <path d="M58.3347 68.0432C56.9573 65.596 54.1166 63.5688 52.8684 62.8611C53.3643 63.9923 54.6404 66.5053 55.6768 67.6253C56.4457 68.4946 60.0565 71.1023 58.3347 68.0432Z" fill="#F62727"/>
    <path d="M51.5926 87.5464C49.0537 87.47 47.2241 86.2812 46.6267 85.6963L46.51 85.3512C47.6792 82.798 50.1466 77.5675 50.662 77.0711C51.3062 76.4507 52.1653 76.045 53.1436 75.9496C54.1185 75.8545 55.7923 76.2836 57.1047 77.5006C58.2338 78.5477 58.6714 80.0972 58.6079 81.2708C58.5602 82.1537 58.0261 83.4834 57.1047 84.7785C56.2218 86.0193 54.7662 87.6419 51.5926 87.5464Z" fill="#F75B5B"/>
    <mask id="mask8" mask-type="alpha" maskUnits="userSpaceOnUse" x="46" y="75" width="13" height="13">
        <path d="M51.5926 87.5464C49.0537 87.47 47.2241 86.2812 46.6267 85.6963L46.51 85.3512C47.6792 82.798 50.1466 77.5675 50.662 77.0711C51.3062 76.4507 52.1653 76.045 53.1436 75.9496C54.1185 75.8545 55.7923 76.2836 57.1047 77.5006C58.2338 78.5477 58.6714 80.0972 58.6079 81.2708C58.5602 82.1537 58.0261 83.4834 57.1047 84.7785C56.2218 86.0193 54.7662 87.6419 51.5926 87.5464Z" fill="#F75B5B"/>
    </mask>
    <g mask="url(#mask8)">
        <path d="M49.5685 86.792C48.6601 86.7601 46.8259 85.8092 46.0223 85.3377L46.4102 86.0473C47.8829 87.0855 51.6982 88.7951 55.1774 87.3278C59.5265 85.4936 58.719 82.1135 58.6382 81.0984C58.5575 80.0832 58.0499 79.4488 57.3 79.2181C56.5502 78.9874 55.4057 79.0025 54.29 79.6998C53.1744 80.3971 52.517 81.672 52.1783 83.6045C51.8396 85.5369 50.704 86.8318 49.5685 86.792Z" fill="#F62727"/>
    </g>
    <path d="M36.1842 76.5337C36.8208 80.353 38.6891 82.8402 39.5437 83.6064L35.5211 92.1378C34.5339 91.3127 32.2235 89.1142 30.8797 86.9217C29.1999 84.181 27.6527 80.1584 27.0339 77.0641C26.415 73.9698 26.4151 69.7262 28.0948 66.1899C29.7746 62.6535 32.9131 60.5318 34.5486 59.9129C36.1842 59.2941 38.527 58.7193 42.638 59.7802C46.749 60.8411 51.0811 64.0239 54.2196 68.4885C57.3581 72.9531 58.9494 77.4178 58.4632 81.6614C57.9769 85.905 53.6449 87.8058 51.0368 87.5847C48.4288 87.3637 45.7323 85.0651 45.0251 84.3578C44.3178 83.6506 41.2677 79.6722 39.6763 75.959C38.4033 72.9885 37.9671 69.6231 37.9082 68.3117C37.7166 68.2528 37.2274 68.3205 36.803 69.0632C36.2726 69.9915 35.3885 71.7596 36.1842 76.5337Z" fill="#F75B5B"/>
    <mask id="mask9" mask-type="alpha" maskUnits="userSpaceOnUse" x="26" y="59" width="33" height="34">
        <path d="M36.1842 76.5337C36.8208 80.353 38.6891 82.8402 39.5437 83.6064L35.5211 92.1378C34.5339 91.3127 32.2235 89.1142 30.8797 86.9217C29.1999 84.181 27.6527 80.1584 27.0339 77.0641C26.415 73.9698 26.4151 69.7262 28.0948 66.1899C29.7746 62.6535 32.9131 60.5318 34.5486 59.9129C36.1842 59.2941 38.527 58.7193 42.638 59.7802C46.749 60.8411 51.0811 64.0239 54.2196 68.4885C57.3581 72.9531 58.9494 77.4178 58.4632 81.6614C57.9769 85.905 53.6449 87.8058 51.0368 87.5847C48.4288 87.3637 45.7323 85.0651 45.0251 84.3578C44.3178 83.6506 41.2677 79.6722 39.6763 75.959C38.4033 72.9885 37.9671 69.6231 37.9082 68.3117C37.7166 68.2528 37.2274 68.3205 36.803 69.0632C36.2726 69.9915 35.3885 71.7596 36.1842 76.5337Z" fill="#F75B5B"/>
    </mask>
    <g mask="url(#mask9)">
        <path d="M36.6605 81.5296C38.1353 80.8902 34.6592 73.4861 36.3889 72.4312C36.4872 71.1924 36.8838 68.1854 37.9029 68.306C38.9455 68.4295 41.3145 69.074 42.188 69.5194C41.4269 69.0208 36.945 66.2437 33.8274 68.3756C31.3065 70.0995 30.8978 73.4989 31.9247 76.6053C32.8417 79.3791 35.0743 82.2173 36.6605 81.5296Z" fill="#F62727"/>
        <path d="M52.1235 76.4933C55.036 81.7028 52.9231 83.8197 51.981 85.0299C50.7833 86.5497 48.0522 86.4368 46.7888 86.5607C45.2094 86.7156 48.6056 89.1486 52.5385 90.2634C56.4713 91.3782 61.0854 86.1448 61.7977 80.0133C62.5099 73.8817 54.3346 66.6354 53.0339 65.5205C51.7333 64.4057 47.3979 61.4948 46.6237 63.5387C45.8495 65.5825 48.9909 70.8902 52.1235 76.4933Z" fill="#F62727"/>
    </g>
    <path d="M47.2298 74.4724C45.8524 72.0251 43.0117 69.9979 41.7635 69.2903C42.2595 70.4214 43.5355 72.9345 44.5719 74.0545C45.3409 74.9237 48.9516 77.5315 47.2298 74.4724Z" fill="#F62727"/>
    <path d="M40.4877 93.9756C37.9488 93.8992 36.1192 92.7103 35.5218 92.1254L35.4052 91.7803C36.5744 89.2271 39.0417 83.9966 39.5571 83.5003C40.2014 82.8799 41.0604 82.4742 42.0387 82.3787C43.0136 82.2836 44.6874 82.7128 45.9998 83.9298C47.129 84.9769 47.5665 86.5264 47.5031 87.6999C47.4554 88.5828 46.9213 89.9125 45.9998 91.2076C45.1169 92.4485 43.6613 94.071 40.4877 93.9756Z" fill="#F75B5B"/>
    <mask id="mask10" mask-type="alpha" maskUnits="userSpaceOnUse" x="35" y="82" width="13" height="12">
        <path d="M40.4877 93.9756C37.9488 93.8992 36.1192 92.7103 35.5218 92.1254L35.4052 91.7803C36.5744 89.2271 39.0417 83.9966 39.5571 83.5003C40.2014 82.8799 41.0604 82.4742 42.0387 82.3787C43.0136 82.2836 44.6874 82.7128 45.9998 83.9298C47.129 84.9769 47.5665 86.5264 47.5031 87.6999C47.4554 88.5828 46.9213 89.9125 45.9998 91.2076C45.1169 92.4485 43.6613 94.071 40.4877 93.9756Z" fill="#F75B5B"/>
    </mask>
    <g mask="url(#mask10)">
        <path d="M38.4637 93.2212C37.5553 93.1893 35.721 92.2384 34.9175 91.7669L35.3053 92.4765C36.7781 93.5147 40.5934 95.2243 44.0726 93.757C48.4216 91.9228 47.6141 88.5427 47.5333 87.5276C47.4526 86.5124 46.945 85.878 46.1952 85.6473C45.4454 85.4166 44.3008 85.4317 43.1852 86.129C42.0695 86.8263 41.4121 88.1012 41.0734 90.0337C40.7347 91.9661 39.5992 93.261 38.4637 93.2212Z" fill="#F62727"/>
    </g>
    <path d="M25.0714 82.8654C25.708 86.6847 27.5763 89.1719 28.4309 89.9381L24.4084 98.4695C23.4211 97.6444 21.1107 95.446 19.7669 93.2534C18.0871 90.5128 16.5399 86.4902 15.9211 83.3959C15.3022 80.3016 15.3023 76.058 16.982 72.5216C18.6618 68.9853 21.8003 66.8635 23.4358 66.2447C25.0714 65.6258 27.4142 65.0511 31.5252 66.112C35.6362 67.1729 39.9683 70.3556 43.1068 74.8202C46.2453 79.2848 47.8366 83.7495 47.3504 87.9931C46.8641 92.2367 42.5321 94.1375 39.9241 93.9165C37.316 93.6955 34.6195 91.3968 33.9123 90.6896C33.205 89.9823 30.1549 86.0039 28.5635 82.2907C27.2905 79.3202 26.8543 75.9548 26.7954 74.6435C26.6038 74.5845 26.1146 74.6523 25.6902 75.3949C25.1598 76.3232 24.2757 78.0914 25.0714 82.8654Z" fill="#F75B5B"/>
    <mask id="mask11" mask-type="alpha" maskUnits="userSpaceOnUse" x="15" y="65" width="33" height="34">
        <path d="M25.0714 82.8654C25.708 86.6847 27.5763 89.1719 28.4309 89.9381L24.4084 98.4695C23.4211 97.6444 21.1107 95.446 19.7669 93.2534C18.0871 90.5128 16.5399 86.4902 15.9211 83.3959C15.3022 80.3016 15.3023 76.058 16.982 72.5216C18.6618 68.9853 21.8003 66.8635 23.4358 66.2447C25.0714 65.6258 27.4142 65.0511 31.5252 66.112C35.6362 67.1729 39.9683 70.3556 43.1068 74.8202C46.2453 79.2848 47.8366 83.7495 47.3504 87.9931C46.8641 92.2367 42.5321 94.1375 39.9241 93.9165C37.316 93.6955 34.6195 91.3968 33.9123 90.6896C33.205 89.9823 30.1549 86.0039 28.5635 82.2907C27.2905 79.3202 26.8543 75.9548 26.7954 74.6435C26.6038 74.5845 26.1146 74.6523 25.6902 75.3949C25.1598 76.3232 24.2757 78.0914 25.0714 82.8654Z" fill="#F75B5B"/>
    </mask>
    <g mask="url(#mask11)">
        <path d="M25.5475 87.8612C27.0224 87.2218 23.5462 79.8177 25.276 78.7628C25.3743 77.524 25.7709 74.517 26.7899 74.6376C27.8326 74.7611 30.2016 75.4056 31.0751 75.851C30.3139 75.3524 25.8321 72.5753 22.7145 74.7072C20.1936 76.4311 19.7849 79.8306 20.8118 82.9369C21.7287 85.7107 23.9614 88.5489 25.5475 87.8612Z" fill="#F62727"/>
        <path d="M41.0105 82.825C43.9231 88.0345 41.8102 90.1513 40.8681 91.3616C39.6704 92.8813 36.9393 92.7685 35.6759 92.8924C34.0965 93.0472 37.4927 95.4803 41.4255 96.5951C45.3584 97.7099 49.9725 92.4764 50.6848 86.3449C51.397 80.2134 43.2216 72.967 41.921 71.8522C40.6204 70.7374 36.285 67.8265 35.5108 69.8703C34.7366 71.9142 37.878 77.2219 41.0105 82.825Z" fill="#F62727"/>
    </g>
    <path d="M36.1171 80.804C34.7396 78.3567 31.8989 76.3296 30.6508 75.6219C31.1467 76.753 32.4227 79.2661 33.4591 80.3861C34.2281 81.2553 37.8388 83.8631 36.1171 80.804Z" fill="#F62727"/>
    <path d="M29.3749 100.307C26.836 100.231 25.0065 99.042 24.409 98.4571L24.2924 98.112C25.4616 95.5588 27.9289 90.3283 28.4443 89.8319C29.0886 89.2115 29.9476 88.8058 30.9259 88.7104C31.9008 88.6153 33.5746 89.0444 34.887 90.2614C36.0162 91.3085 36.4537 92.858 36.3903 94.0316C36.3426 94.9145 35.8085 96.2442 34.887 97.5393C34.0041 98.7801 32.5485 100.403 29.3749 100.307Z" fill="#F75B5B"/>
    <mask id="mask12" mask-type="alpha" maskUnits="userSpaceOnUse" x="24" y="88" width="13" height="13">
        <path d="M29.3749 100.307C26.836 100.231 25.0065 99.042 24.409 98.4571L24.2924 98.112C25.4616 95.5588 27.9289 90.3283 28.4443 89.8319C29.0886 89.2115 29.9476 88.8058 30.9259 88.7104C31.9008 88.6153 33.5746 89.0444 34.887 90.2614C36.0162 91.3085 36.4537 92.858 36.3903 94.0316C36.3426 94.9145 35.8085 96.2442 34.887 97.5393C34.0041 98.7801 32.5485 100.403 29.3749 100.307Z" fill="#F75B5B"/>
    </mask>
    <g mask="url(#mask12)">
        <path d="M27.351 99.5529C26.4426 99.521 24.6084 98.57 23.8048 98.0985L24.1927 98.8081C25.6654 99.8464 29.4807 101.556 32.9599 100.089C37.3089 98.2544 36.5014 94.8744 36.4207 93.8593C36.3399 92.8441 35.8323 92.2097 35.0825 91.9789C34.3327 91.7482 33.1881 91.7634 32.0725 92.4606C30.9569 93.1579 30.2994 94.4329 29.9608 96.3653C29.6221 98.2978 28.4865 99.5927 27.351 99.5529Z" fill="#F62727"/>
    </g>
</svg>
