<svg width="128" height="128" viewBox="0 0 128 128" fill="none" 
    xmlns="http://www.w3.org/2000/svg">
    <path d="M90.6275 33.0572C87.6275 34.2662 86.411 36.4341 86.1778 37.3669C87.8025 38.1573 91.1205 39.6862 91.3943 39.4787C91.7366 39.2194 93.5 38.7111 94.4439 38.846C95.3879 38.9808 96.4978 39.2816 98.5516 41.2006C100.605 43.1195 100.626 44.8311 101.923 46.2003C103.219 47.5695 105.024 47.9325 106.891 46.6774C108.758 45.4223 108.062 44.1113 107.586 42.768C107.111 41.4247 105.788 39.3821 103.927 37.1989C102.623 35.6682 100.03 33.8407 98.7991 33.309C97.5677 32.7773 94.3774 31.546 90.6275 33.0572Z" fill="#F75B5B"/>
    <mask id="mask0" mask-type="alpha" maskUnits="userSpaceOnUse" x="86" y="32" width="23" height="16">
        <path d="M90.6275 33.0572C87.6275 34.2662 86.411 36.4341 86.1778 37.3669C87.8025 38.1573 91.1205 39.6862 91.3943 39.4787C91.7366 39.2194 93.5 38.7111 94.4439 38.846C95.3879 38.9808 96.4978 39.2816 98.5516 41.2006C100.605 43.1195 100.626 44.8311 101.923 46.2003C103.219 47.5695 105.024 47.9325 106.891 46.6774C108.758 45.4223 108.062 44.1113 107.586 42.768C107.111 41.4247 104.872 38.2904 103.92 37.087C102.969 35.8837 100.03 33.8407 98.7991 33.309C97.5677 32.7773 94.3774 31.546 90.6275 33.0572Z" fill="#F75B5B"/>
    </mask>
    <g mask="url(#mask0)">
        <path d="M101.695 35.4333C102.763 36.1594 102.981 36.3669 106.01 39.6135C107.023 40.3085 109.059 41.7586 109.101 41.9993C109.142 42.2399 109.782 45.0247 110.096 46.387C107.935 47.0197 103.591 48.279 103.499 48.2541C103.385 48.223 102.089 46.7812 102.68 46.3662C103.271 45.9513 104.153 46.4907 104.599 45.4327C105.045 44.3747 102.306 41.1487 100.46 37.8294C98.6138 34.5101 100.626 34.7072 101.695 35.4333Z" fill="#F62727"/>
        <path d="M93.6556 38.2755C95.0497 38.5742 95.9584 39.3819 96.2384 39.7484C95.087 40.0354 92.749 40.6052 92.6079 40.5886C92.4669 40.572 90.2464 40.1944 89.1538 40.0077C88.9498 39.6585 88.7243 38.8875 89.4546 38.597C90.3674 38.234 91.913 37.902 93.6556 38.2755Z" fill="#F62727"/>
    </g>
    <path d="M84.3212 49.6156C84.7943 52.4542 86.1829 54.3028 86.818 54.8722L83.8284 61.213C83.0946 60.5998 81.3775 58.9658 80.3787 57.3363C79.1302 55.2993 77.9803 52.3096 77.5204 50.0098C77.0604 47.7101 77.0604 44.5561 78.3089 41.9278C79.5573 39.2995 81.89 37.7225 83.1056 37.2626C84.3212 36.8026 86.0624 36.3754 89.1178 37.1639C92.1732 37.9524 95.3929 40.3179 97.7256 43.6362C100.058 46.9544 101.241 50.2727 100.88 53.4266C100.518 56.5806 97.2985 57.9933 95.3601 57.8291C93.4217 57.6648 91.4176 55.9564 90.8919 55.4307C90.3663 54.9051 88.0994 51.9482 86.9166 49.1885C85.9704 46.9807 85.6463 44.4794 85.6025 43.5048C85.4601 43.461 85.0965 43.5113 84.7811 44.0633C84.3868 44.7532 83.7298 46.0674 84.3212 49.6156Z" fill="#F75B5B"/>
    <mask id="mask1" mask-type="alpha" maskUnits="userSpaceOnUse" x="77" y="36" width="24" height="26">
        <path d="M84.3212 49.6156C84.7943 52.4542 86.1829 54.3028 86.818 54.8722L83.8284 61.213C83.0946 60.5998 81.3775 58.9658 80.3787 57.3363C79.1302 55.2993 77.9803 52.3096 77.5204 50.0098C77.0604 47.7101 77.0604 44.5561 78.3089 41.9278C79.5573 39.2995 81.89 37.7225 83.1056 37.2626C84.3212 36.8026 86.0624 36.3754 89.1178 37.1639C92.1732 37.9524 95.3929 40.3179 97.7256 43.6362C100.058 46.9544 101.241 50.2727 100.88 53.4266C100.518 56.5806 97.2985 57.9933 95.3601 57.8291C93.4217 57.6648 91.4176 55.9564 90.8919 55.4307C90.3663 54.9051 88.0994 51.9482 86.9166 49.1885C85.9704 46.9807 85.6463 44.4794 85.6025 43.5048C85.4601 43.461 85.0965 43.5113 84.7811 44.0633C84.3868 44.7532 83.7298 46.0674 84.3212 49.6156Z" fill="#F75B5B"/>
    </mask>
    <g mask="url(#mask1)">
        <path d="M84.6751 53.3287C85.7713 52.8535 83.1877 47.3506 84.4733 46.5665C84.5464 45.6458 84.8411 43.4109 85.5985 43.5006C86.3735 43.5923 88.1342 44.0713 88.7834 44.4024C88.2177 44.0318 84.8866 41.9678 82.5695 43.5523C80.6959 44.8335 80.3921 47.3601 81.1554 49.6688C81.8369 51.7304 83.4963 53.8398 84.6751 53.3287Z" fill="#F62727"/>
        <path d="M96.1676 49.5856C98.3323 53.4574 96.7619 55.0307 96.0618 55.9302C95.1716 57.0598 93.1418 56.9759 92.2027 57.068C91.0289 57.183 93.5531 58.9913 96.4761 59.8199C99.3991 60.6485 102.828 56.7588 103.358 52.2017C103.887 47.6446 97.811 42.2588 96.8443 41.4303C95.8777 40.6017 92.6554 38.4382 92.08 39.9573C91.5046 41.4763 93.8394 45.4212 96.1676 49.5856Z" fill="#F62727"/>
    </g>
    <path d="M92.5306 48.0835C91.5069 46.2646 89.3956 44.758 88.4679 44.2321C88.8365 45.0728 89.7849 46.9405 90.5552 47.7729C91.1267 48.419 93.8103 50.3571 92.5306 48.0835Z" fill="#F62727"/>
    <path d="M87.5196 62.5789C85.6327 62.5221 84.2729 61.6385 83.8288 61.2038L83.7421 60.9473C84.6111 59.0497 86.4449 55.1622 86.828 54.7934C87.3068 54.3323 87.9453 54.0307 88.6724 53.9598C89.397 53.8891 90.641 54.2081 91.6164 55.1126C92.4556 55.8908 92.7808 57.0424 92.7337 57.9147C92.6982 58.5709 92.3012 59.5591 91.6164 60.5217C90.9602 61.4439 89.8784 62.6499 87.5196 62.5789Z" fill="#F75B5B"/>
    <mask id="mask2" mask-type="alpha" maskUnits="userSpaceOnUse" x="83" y="53" width="10" height="10">
        <path d="M87.5196 62.5789C85.6327 62.5221 84.2729 61.6385 83.8288 61.2038L83.7421 60.9473C84.6111 59.0497 86.4449 55.1622 86.828 54.7934C87.3068 54.3323 87.9453 54.0307 88.6724 53.9598C89.397 53.8891 90.641 54.2081 91.6164 55.1126C92.4556 55.8908 92.7808 57.0424 92.7337 57.9147C92.6982 58.5709 92.3012 59.5591 91.6164 60.5217C90.9602 61.4439 89.8784 62.6499 87.5196 62.5789Z" fill="#F75B5B"/>
    </mask>
    <g mask="url(#mask2)">
        <path d="M86.0154 62.0183C85.3402 61.9946 83.977 61.2878 83.3798 60.9374L83.668 61.4648C84.7626 62.2364 87.5982 63.5071 90.1841 62.4165C93.4164 61.0532 92.8163 58.5411 92.7562 57.7866C92.6962 57.0321 92.319 56.5606 91.7617 56.3891C91.2044 56.2177 90.3537 56.2289 89.5245 56.7471C88.6954 57.2654 88.2068 58.213 87.955 59.6492C87.7033 61.0855 86.8593 62.0479 86.0154 62.0183Z" fill="#F62727"/>
    </g>
    <path d="M76.1887 54.3858C76.6618 57.2243 78.0504 59.0729 78.6855 59.6424L75.6958 65.9832C74.9621 65.3699 73.2449 63.736 72.2462 62.1064C70.9977 60.0695 69.8478 57.0798 69.3878 54.78C68.9279 52.4802 68.9279 49.3262 70.1764 46.6979C71.4248 44.0696 73.7575 42.4927 74.9731 42.0327C76.1887 41.5727 77.9299 41.1456 80.9853 41.9341C84.0407 42.7226 87.2604 45.0881 89.5931 48.4063C91.9257 51.7246 93.1084 55.0428 92.747 58.1968C92.3856 61.3508 89.166 62.7635 87.2276 62.5992C85.2892 62.4349 83.2851 60.7265 82.7594 60.2009C82.2338 59.6752 79.9669 56.7183 78.7841 53.9586C77.8379 51.7508 77.5138 49.2496 77.47 48.2749C77.3276 48.2311 76.964 48.2815 76.6486 48.8334C76.2543 49.5234 75.5973 50.8375 76.1887 54.3858Z" fill="#F75B5B"/>
    <mask id="mask3" mask-type="alpha" maskUnits="userSpaceOnUse" x="69" y="41" width="24" height="25">
        <path d="M76.1887 54.3858C76.6618 57.2243 78.0504 59.0729 78.6855 59.6424L75.6958 65.9832C74.9621 65.3699 73.2449 63.736 72.2462 62.1064C70.9977 60.0695 69.8478 57.0798 69.3878 54.78C68.9279 52.4802 68.9279 49.3262 70.1764 46.6979C71.4248 44.0696 73.7575 42.4927 74.9731 42.0327C76.1887 41.5727 77.9299 41.1456 80.9853 41.9341C84.0407 42.7226 87.2604 45.0881 89.5931 48.4063C91.9257 51.7246 93.1084 55.0428 92.747 58.1968C92.3856 61.3508 89.166 62.7635 87.2276 62.5992C85.2892 62.4349 83.2851 60.7265 82.7594 60.2009C82.2338 59.6752 79.9669 56.7183 78.7841 53.9586C77.8379 51.7508 77.5138 49.2496 77.47 48.2749C77.3276 48.2311 76.964 48.2815 76.6486 48.8334C76.2543 49.5234 75.5973 50.8375 76.1887 54.3858Z" fill="#F75B5B"/>
    </mask>
    <g mask="url(#mask3)">
        <path d="M76.5425 58.0988C77.6387 57.6235 75.0551 52.1206 76.3407 51.3365C76.4137 50.4158 76.7085 48.1809 77.4659 48.2706C78.2408 48.3624 80.0016 48.8414 80.6507 49.1724C80.085 48.8018 76.754 46.7378 74.4369 48.3223C72.5633 49.6035 72.2595 52.1301 73.0227 54.4388C73.7043 56.5004 75.3637 58.6099 76.5425 58.0988Z" fill="#F62727"/>
        <path d="M88.035 54.3556C90.1997 58.2275 88.6293 59.8008 87.9291 60.7003C87.039 61.8298 85.0091 61.746 84.0701 61.838C82.8963 61.9531 85.4204 63.7614 88.3434 64.59C91.2664 65.4186 94.6958 61.5289 95.2252 56.9718C95.7545 52.4146 89.6784 47.0289 88.7117 46.2003C87.745 45.3718 84.5228 43.2083 83.9474 44.7274C83.372 46.2464 85.7068 50.1913 88.035 54.3556Z" fill="#F62727"/>
    </g>
    <path d="M84.398 52.8536C83.3743 51.0347 81.263 49.5281 80.3353 49.0021C80.7039 49.8428 81.6523 51.7106 82.4226 52.543C82.9941 53.1891 85.6777 55.1272 84.398 52.8536Z" fill="#F62727"/>
    <path d="M79.3871 67.3489C77.5002 67.2921 76.1404 66.4085 75.6963 65.9738L75.6096 65.7174C76.4786 63.8197 78.3124 59.9323 78.6955 59.5634C79.1743 59.1023 79.8128 58.8007 80.5399 58.7298C81.2645 58.6591 82.5085 58.9781 83.4839 59.8826C84.3231 60.6608 84.6483 61.8125 84.6012 62.6847C84.5657 63.3409 84.1687 64.3292 83.4839 65.2917C82.8277 66.2139 81.7459 67.4199 79.3871 67.3489Z" fill="#F75B5B"/>
    <mask id="mask4" mask-type="alpha" maskUnits="userSpaceOnUse" x="75" y="58" width="10" height="10">
        <path d="M79.3871 67.3489C77.5002 67.2921 76.1404 66.4085 75.6963 65.9738L75.6096 65.7174C76.4786 63.8197 78.3124 59.9323 78.6955 59.5634C79.1743 59.1023 79.8128 58.8007 80.5399 58.7298C81.2645 58.6591 82.5085 58.9781 83.4839 59.8826C84.3231 60.6608 84.6483 61.8125 84.6012 62.6847C84.5657 63.3409 84.1687 64.3292 83.4839 65.2917C82.8277 66.2139 81.7459 67.4199 79.3871 67.3489Z" fill="#F75B5B"/>
    </mask>
    <g mask="url(#mask4)">
        <path d="M77.8829 66.7882C77.2077 66.7646 75.8445 66.0578 75.2473 65.7073L75.5355 66.2347C76.6301 67.0064 79.4657 68.277 82.0516 67.1864C85.2839 65.8232 84.6838 63.3111 84.6237 62.5566C84.5637 61.8021 84.1865 61.3306 83.6292 61.1591C83.0719 60.9876 82.2212 60.9989 81.392 61.5171C80.5629 62.0353 80.0742 62.9829 79.8225 64.4192C79.5708 65.8554 78.7268 66.8179 77.8829 66.7882Z" fill="#F62727"/>
    </g>
    <path d="M67.9352 59.164C68.4084 62.0026 69.7969 63.8512 70.4321 64.4206L67.4424 70.7614C66.7087 70.1482 64.9915 68.5142 63.9928 66.8847C62.7443 64.8477 61.5944 61.858 61.1344 59.5582C60.6745 57.2585 60.6745 54.1045 61.923 51.4762C63.1714 48.8479 65.504 47.2709 66.7196 46.811C67.9352 46.351 69.6765 45.9238 72.7319 46.7123C75.7873 47.5008 79.007 49.8663 81.3396 53.1846C83.6723 56.5028 84.855 59.8211 84.4936 62.975C84.1322 66.129 80.9125 67.5417 78.9742 67.3775C77.0358 67.2132 75.0317 65.5048 74.506 64.9791C73.9804 64.4535 71.7134 61.4966 70.5307 58.7369C69.5845 56.5291 69.2603 54.0278 69.2165 53.0532C69.0742 53.0094 68.7106 53.0597 68.3952 53.6117C68.0009 54.3016 67.3438 55.6158 67.9352 59.164Z" fill="#F75B5B"/>
    <mask id="mask5" mask-type="alpha" maskUnits="userSpaceOnUse" x="60" y="46" width="25" height="25">
        <path d="M67.9352 59.164C68.4084 62.0026 69.7969 63.8512 70.4321 64.4206L67.4424 70.7614C66.7087 70.1482 64.9915 68.5142 63.9928 66.8847C62.7443 64.8477 61.5944 61.858 61.1344 59.5582C60.6745 57.2585 60.6745 54.1045 61.923 51.4762C63.1714 48.8479 65.504 47.2709 66.7196 46.811C67.9352 46.351 69.6765 45.9238 72.7319 46.7123C75.7873 47.5008 79.007 49.8663 81.3396 53.1846C83.6723 56.5028 84.855 59.8211 84.4936 62.975C84.1322 66.129 80.9125 67.5417 78.9742 67.3775C77.0358 67.2132 75.0317 65.5048 74.506 64.9791C73.9804 64.4535 71.7134 61.4966 70.5307 58.7369C69.5845 56.5291 69.2603 54.0278 69.2165 53.0532C69.0742 53.0094 68.7106 53.0597 68.3952 53.6117C68.0009 54.3016 67.3438 55.6158 67.9352 59.164Z" fill="#F75B5B"/>
    </mask>
    <g mask="url(#mask5)">
        <path d="M68.2891 62.877C69.3853 62.4018 66.8017 56.8988 68.0873 56.1148C68.1604 55.1941 68.4552 52.9592 69.2125 53.0489C69.9875 53.1406 71.7482 53.6196 72.3974 53.9507C71.8317 53.58 68.5006 51.5161 66.1835 53.1005C64.3099 54.3818 64.0062 56.9084 64.7694 59.2171C65.4509 61.2787 67.1103 63.3881 68.2891 62.877Z" fill="#F62727"/>
        <path d="M79.7816 59.1339C81.9462 63.0057 80.3759 64.5791 79.6757 65.4786C78.7856 66.6081 76.7557 66.5242 75.8167 66.6163C74.6429 66.7314 77.167 68.5397 80.09 69.3683C83.013 70.1968 86.4424 66.3072 86.9717 61.75C87.5011 57.1929 81.4249 51.8072 80.4583 50.9786C79.4916 50.15 76.2694 47.9866 75.694 49.5056C75.1186 51.0247 77.4534 54.9695 79.7816 59.1339Z" fill="#F62727"/>
    </g>
    <path d="M76.1446 57.6318C75.1209 55.8129 73.0096 54.3063 72.0819 53.7803C72.4505 54.621 73.3989 56.4888 74.1692 57.3212C74.7407 57.9673 77.4243 59.9054 76.1446 57.6318Z" fill="#F62727"/>
    <path d="M71.1337 72.1272C69.2467 72.0704 67.8869 71.1868 67.4429 70.7521L67.3562 70.4956C68.2252 68.598 70.059 64.7105 70.4421 64.3416C70.9209 63.8805 71.5594 63.579 72.2865 63.5081C73.011 63.4374 74.2551 63.7564 75.2305 64.6609C76.0697 65.4391 76.3949 66.5907 76.3477 67.4629C76.3123 68.1192 75.9153 69.1074 75.2305 70.07C74.5743 70.9922 73.4924 72.1981 71.1337 72.1272Z" fill="#F75B5B"/>
    <mask id="mask6" mask-type="alpha" maskUnits="userSpaceOnUse" x="67" y="63" width="10" height="10">
        <path d="M71.1337 72.1272C69.2467 72.0704 67.8869 71.1868 67.4429 70.7521L67.3562 70.4956C68.2252 68.598 70.059 64.7105 70.4421 64.3416C70.9209 63.8805 71.5594 63.579 72.2865 63.5081C73.011 63.4374 74.2551 63.7564 75.2305 64.6609C76.0697 65.4391 76.3949 66.5907 76.3477 67.4629C76.3123 68.1192 75.9153 69.1074 75.2305 70.07C74.5743 70.9922 73.4924 72.1981 71.1337 72.1272Z" fill="#F75B5B"/>
    </mask>
    <g mask="url(#mask6)">
        <path d="M69.6295 71.5666C68.9543 71.5429 67.5911 70.8362 66.9938 70.4857L67.2821 71.0131C68.3767 71.7848 71.2123 73.0554 73.7982 71.9648C77.0305 70.6016 76.4303 68.0895 76.3703 67.335C76.3103 66.5805 75.9331 66.1089 75.3758 65.9375C74.8185 65.766 73.9678 65.7772 73.1386 66.2955C72.3094 66.8137 71.8208 67.7613 71.5691 69.1976C71.3174 70.6338 70.4734 71.5962 69.6295 71.5666Z" fill="#F62727"/>
    </g>
    <path d="M59.6818 63.8554C60.1549 66.694 61.5435 68.5426 62.1787 69.112L59.189 75.4528C58.4553 74.8396 56.7381 73.2056 55.7393 71.5761C54.4909 69.5391 53.341 66.5494 52.881 64.2496C52.4211 61.9499 52.4211 58.7959 53.6695 56.1676C54.918 53.5393 57.2506 51.9623 58.4662 51.5024C59.6818 51.0424 61.4231 50.6152 64.4785 51.4037C67.5339 52.1922 70.7536 54.5577 73.0862 57.876C75.4188 61.1942 76.6016 64.5125 76.2402 67.6664C75.8788 70.8204 72.6591 72.2331 70.7207 72.0689C68.7824 71.9046 66.7783 70.1962 66.2526 69.6705C65.7269 69.1449 63.46 66.188 62.2773 63.4283C61.3311 61.2205 61.0069 58.7192 60.9631 57.7446C60.8207 57.7008 60.4571 57.7512 60.1418 58.3031C59.7475 58.993 59.0904 60.3072 59.6818 63.8554Z" fill="#F75B5B"/>
    <mask id="mask7" mask-type="alpha" maskUnits="userSpaceOnUse" x="52" y="50" width="25" height="26">
        <path d="M59.6818 63.8554C60.1549 66.694 61.5435 68.5426 62.1787 69.112L59.189 75.4528C58.4553 74.8396 56.7381 73.2056 55.7393 71.5761C54.4909 69.5391 53.341 66.5494 52.881 64.2496C52.4211 61.9499 52.4211 58.7959 53.6695 56.1676C54.918 53.5393 57.2506 51.9623 58.4662 51.5024C59.6818 51.0424 61.4231 50.6152 64.4785 51.4037C67.5339 52.1922 70.7536 54.5577 73.0862 57.876C75.4188 61.1942 76.6016 64.5125 76.2402 67.6664C75.8788 70.8204 72.6591 72.2331 70.7207 72.0689C68.7824 71.9046 66.7783 70.1962 66.2526 69.6705C65.7269 69.1449 63.46 66.188 62.2773 63.4283C61.3311 61.2205 61.0069 58.7192 60.9631 57.7446C60.8207 57.7008 60.4571 57.7512 60.1418 58.3031C59.7475 58.993 59.0904 60.3072 59.6818 63.8554Z" fill="#F75B5B"/>
    </mask>
    <g mask="url(#mask7)">
        <path d="M60.0357 67.5684C61.1319 67.0932 58.5483 61.5903 59.8339 60.8062C59.907 59.8855 60.2017 57.6506 60.9591 57.7403C61.734 57.832 63.4948 58.311 64.1439 58.6421C63.5782 58.2715 60.2472 56.2075 57.9301 57.792C56.0565 59.0732 55.7527 61.5998 56.516 63.9085C57.1975 65.9701 58.8569 68.0795 60.0357 67.5684Z" fill="#F62727"/>
        <path d="M71.5282 63.8254C73.6929 67.6972 72.1225 69.2705 71.4224 70.17C70.5322 71.2996 68.5024 71.2157 67.5633 71.3078C66.3895 71.4228 68.9137 73.2312 71.8367 74.0597C74.7597 74.8883 78.189 70.9986 78.7184 66.4415C79.2478 61.8844 73.1716 56.4986 72.2049 55.6701C71.2383 54.8415 68.016 52.6781 67.4406 54.1971C66.8652 55.7161 69.2 59.661 71.5282 63.8254Z" fill="#F62727"/>
    </g>
    <path d="M67.8912 62.3233C66.8675 60.5044 64.7562 58.9978 63.8285 58.4718C64.1971 59.3125 65.1455 61.1803 65.9158 62.0127C66.4873 62.6587 69.1709 64.5969 67.8912 62.3233Z" fill="#F62727"/>
    <path d="M62.8803 76.8187C60.9933 76.7619 59.6335 75.8783 59.1895 75.4436L59.1028 75.1871C59.9718 73.2895 61.8056 69.4021 62.1886 69.0332C62.6675 68.5721 63.3059 68.2705 64.0331 68.1996C64.7576 68.1289 66.0016 68.4479 66.977 69.3524C67.8163 70.1306 68.1415 71.2823 68.0943 72.1545C68.0589 72.8107 67.6619 73.799 66.977 74.7615C66.3209 75.6837 65.239 76.8897 62.8803 76.8187Z" fill="#F75B5B"/>
    <mask id="mask8" mask-type="alpha" maskUnits="userSpaceOnUse" x="59" y="68" width="10" height="9">
        <path d="M62.8803 76.8187C60.9933 76.7619 59.6335 75.8783 59.1895 75.4436L59.1028 75.1871C59.9718 73.2895 61.8056 69.4021 62.1886 69.0332C62.6675 68.5721 63.3059 68.2705 64.0331 68.1996C64.7576 68.1289 66.0016 68.4479 66.977 69.3524C67.8163 70.1306 68.1415 71.2823 68.0943 72.1545C68.0589 72.8107 67.6619 73.799 66.977 74.7615C66.3209 75.6837 65.239 76.8897 62.8803 76.8187Z" fill="#F75B5B"/>
    </mask>
    <g mask="url(#mask8)">
        <path d="M61.376 76.258C60.7009 76.2343 59.3376 75.5276 58.7404 75.1771L59.0287 75.7045C60.1233 76.4762 62.9589 77.7468 65.5448 76.6562C68.7771 75.293 68.1769 72.7809 68.1169 72.0264C68.0569 71.2719 67.6796 70.8004 67.1223 70.6289C66.565 70.4574 65.7144 70.4687 64.8852 70.9869C64.056 71.5051 63.5674 72.4527 63.3157 73.889C63.064 75.3252 62.22 76.2876 61.376 76.258Z" fill="#F62727"/>
    </g>
    <path d="M51.4283 68.6336C51.9015 71.4722 53.29 73.3208 53.9252 73.8902L50.9355 80.231C50.2018 79.6178 48.4846 77.9838 47.4859 76.3543C46.2374 74.3173 45.0875 71.3276 44.6275 69.0278C44.1676 66.7281 44.1676 63.5741 45.4161 60.9458C46.6645 58.3175 48.9971 56.7405 50.2127 56.2806C51.4283 55.8206 53.1696 55.3934 56.225 56.1819C59.2804 56.9704 62.5001 59.3359 64.8327 62.6542C67.1654 65.9724 68.3481 69.2907 67.9867 72.4446C67.6253 75.5986 64.4056 77.0113 62.4673 76.8471C60.5289 76.6828 58.5248 74.9744 57.9991 74.4487C57.4735 73.9231 55.2065 70.9662 54.0238 68.2065C53.0776 65.9987 52.7534 63.4974 52.7096 62.5228C52.5673 62.479 52.2037 62.5293 51.8883 63.0813C51.494 63.7712 50.8369 65.0854 51.4283 68.6336Z" fill="#F75B5B"/>
    <mask id="mask9" mask-type="alpha" maskUnits="userSpaceOnUse" x="44" y="55" width="25" height="26">
        <path d="M51.4283 68.6336C51.9015 71.4722 53.29 73.3208 53.9252 73.8902L50.9355 80.231C50.2018 79.6178 48.4846 77.9838 47.4859 76.3543C46.2374 74.3173 45.0875 71.3276 44.6275 69.0278C44.1676 66.7281 44.1676 63.5741 45.4161 60.9458C46.6645 58.3175 48.9971 56.7405 50.2127 56.2806C51.4283 55.8206 53.1696 55.3934 56.225 56.1819C59.2804 56.9704 62.5001 59.3359 64.8327 62.6542C67.1654 65.9724 68.3481 69.2907 67.9867 72.4446C67.6253 75.5986 64.4056 77.0113 62.4673 76.8471C60.5289 76.6828 58.5248 74.9744 57.9991 74.4487C57.4735 73.9231 55.2065 70.9662 54.0238 68.2065C53.0776 65.9987 52.7534 63.4974 52.7096 62.5228C52.5673 62.479 52.2037 62.5293 51.8883 63.0813C51.494 63.7712 50.8369 65.0854 51.4283 68.6336Z" fill="#F75B5B"/>
    </mask>
    <g mask="url(#mask9)">
        <path d="M51.7823 72.3467C52.8785 71.8715 50.2949 66.3686 51.5805 65.5845C51.6536 64.6638 51.9483 62.4289 52.7057 62.5186C53.4806 62.6103 55.2414 63.0893 55.8905 63.4204C55.3248 63.0498 51.9938 60.9858 49.6767 62.5703C47.8031 63.8515 47.4993 66.3781 48.2625 68.6868C48.9441 70.7484 50.6035 72.8578 51.7823 72.3467Z" fill="#F62727"/>
        <path d="M63.2748 68.6036C65.4395 72.4754 63.8691 74.0487 63.1689 74.9482C62.2788 76.0778 60.249 75.9939 59.3099 76.086C58.1361 76.201 60.6602 78.0094 63.5832 78.8379C66.5062 79.6665 69.9356 75.7768 70.465 71.2197C70.9943 66.6626 64.9182 61.2768 63.9515 60.4483C62.9848 59.6197 59.7626 57.4562 59.1872 58.9753C58.6118 60.4943 60.9466 64.4392 63.2748 68.6036Z" fill="#F62727"/>
    </g>
    <path d="M59.6378 67.1015C58.6141 65.2827 56.5028 63.776 55.5751 63.2501C55.9437 64.0908 56.892 65.9585 57.6623 66.7909C58.2338 67.437 60.9175 69.3752 59.6378 67.1015Z" fill="#F62727"/>
    <path d="M54.6268 81.5969C52.7398 81.5401 51.38 80.6565 50.936 80.2218L50.8493 79.9653C51.7183 78.0677 53.5521 74.1803 53.9352 73.8114C54.414 73.3503 55.0525 73.0487 55.7796 72.9778C56.5041 72.9071 57.7482 73.2261 58.7236 74.1306C59.5628 74.9088 59.888 76.0604 59.8408 76.9327C59.8054 77.5889 59.4084 78.5772 58.7236 79.5397C58.0674 80.4619 56.9855 81.6679 54.6268 81.5969Z" fill="#F75B5B"/>
    <mask id="mask10" mask-type="alpha" maskUnits="userSpaceOnUse" x="50" y="72" width="10" height="10">
        <path d="M54.6268 81.5969C52.7398 81.5401 51.38 80.6565 50.936 80.2218L50.8493 79.9653C51.7183 78.0677 53.5521 74.1803 53.9352 73.8114C54.414 73.3503 55.0525 73.0487 55.7796 72.9778C56.5041 72.9071 57.7482 73.2261 58.7236 74.1306C59.5628 74.9088 59.888 76.0604 59.8408 76.9327C59.8054 77.5889 59.4084 78.5772 58.7236 79.5397C58.0674 80.4619 56.9855 81.6679 54.6268 81.5969Z" fill="#F75B5B"/>
    </mask>
    <g mask="url(#mask10)">
        <path d="M53.1226 81.0362C52.4474 81.0125 51.0842 80.3058 50.4869 79.9553L50.7752 80.4827C51.8698 81.2544 54.7054 82.525 57.2913 81.4344C60.5236 80.0712 59.9234 77.5591 59.8634 76.8046C59.8034 76.0501 59.4262 75.5786 58.8689 75.4071C58.3116 75.2356 57.4609 75.2469 56.6317 75.7651C55.8025 76.2833 55.3139 77.2309 55.0622 78.6672C54.8105 80.1034 53.9665 81.0658 53.1226 81.0362Z" fill="#F62727"/>
    </g>
    <path d="M43.169 73.3396C43.6421 76.1782 45.0307 78.0268 45.6659 78.5962L42.6762 84.937C41.9425 84.3238 40.2253 82.6898 39.2265 81.0603C37.9781 79.0233 36.8281 76.0336 36.3682 73.7338C35.9082 71.4341 35.9083 68.2801 37.1567 65.6518C38.4052 63.0235 40.7378 61.4465 41.9534 60.9866C43.169 60.5266 44.9103 60.0994 47.9657 60.8879C51.0211 61.6764 54.2408 64.0419 56.5734 67.3602C58.906 70.6784 60.0888 73.9967 59.7274 77.1506C59.366 80.3046 56.1463 81.7173 54.2079 81.5531C52.2695 81.3888 50.2654 79.6804 49.7398 79.1547C49.2141 78.6291 46.9472 75.6722 45.7645 72.9125C44.8183 70.7047 44.4941 68.2034 44.4503 67.2288C44.3079 67.185 43.9443 67.2353 43.6289 67.7873C43.2347 68.4772 42.5776 69.7914 43.169 73.3396Z" fill="#F75B5B"/>
    <mask id="mask11" mask-type="alpha" maskUnits="userSpaceOnUse" x="36" y="60" width="24" height="25">
        <path d="M43.169 73.3396C43.6421 76.1782 45.0307 78.0268 45.6659 78.5962L42.6762 84.937C41.9425 84.3238 40.2253 82.6898 39.2265 81.0603C37.9781 79.0233 36.8281 76.0336 36.3682 73.7338C35.9082 71.4341 35.9083 68.2801 37.1567 65.6518C38.4052 63.0235 40.7378 61.4465 41.9534 60.9866C43.169 60.5266 44.9103 60.0994 47.9657 60.8879C51.0211 61.6764 54.2408 64.0419 56.5734 67.3602C58.906 70.6784 60.0888 73.9967 59.7274 77.1506C59.366 80.3046 56.1463 81.7173 54.2079 81.5531C52.2695 81.3888 50.2654 79.6804 49.7398 79.1547C49.2141 78.6291 46.9472 75.6722 45.7645 72.9125C44.8183 70.7047 44.4941 68.2034 44.4503 67.2288C44.3079 67.185 43.9443 67.2353 43.6289 67.7873C43.2347 68.4772 42.5776 69.7914 43.169 73.3396Z" fill="#F75B5B"/>
    </mask>
    <g mask="url(#mask11)">
        <path d="M43.5229 77.0527C44.6191 76.5774 42.0355 71.0745 43.3211 70.2904C43.3942 69.3697 43.6889 67.1348 44.4463 67.2245C45.2212 67.3163 46.982 67.7953 47.6311 68.1263C47.0654 67.7557 43.7344 65.6917 41.4173 67.2762C39.5437 68.5574 39.2399 71.084 40.0031 73.3928C40.6847 75.4543 42.3441 77.5638 43.5229 77.0527Z" fill="#F62727"/>
        <path d="M55.0154 73.3095C57.1801 77.1813 55.6097 78.7547 54.9095 79.6542C54.0194 80.7837 51.9896 80.6998 51.0505 80.7919C49.8767 80.907 52.4008 82.7153 55.3238 83.5439C58.2469 84.3724 61.6762 80.4828 62.2056 75.9256C62.7349 71.3685 56.6588 65.9828 55.6921 65.1542C54.7254 64.3256 51.5032 62.1622 50.9278 63.6812C50.3524 65.2003 52.6872 69.1451 55.0154 73.3095Z" fill="#F62727"/>
    </g>
    <path d="M51.3784 71.8075C50.3547 69.9886 48.2434 68.482 47.3157 67.9561C47.6843 68.7968 48.6327 70.6645 49.403 71.4969C49.9745 72.143 52.6581 74.0811 51.3784 71.8075Z" fill="#F62727"/>
    <path d="M46.3675 86.3028C44.4805 86.246 43.1207 85.3624 42.6767 84.9277L42.59 84.6712C43.459 82.7736 45.2927 78.8861 45.6758 78.5172C46.1547 78.0561 46.7931 77.7546 47.5202 77.6837C48.2448 77.613 49.4888 77.932 50.4642 78.8365C51.3035 79.6147 51.6286 80.7663 51.5815 81.6385C51.5461 82.2948 51.1491 83.283 50.4642 84.2456C49.808 85.1678 48.7262 86.3737 46.3675 86.3028Z" fill="#F75B5B"/>
    <mask id="mask12" mask-type="alpha" maskUnits="userSpaceOnUse" x="42" y="77" width="10" height="10">
        <path d="M46.3675 86.3028C44.4805 86.246 43.1207 85.3624 42.6767 84.9277L42.59 84.6712C43.459 82.7736 45.2927 78.8861 45.6758 78.5172C46.1547 78.0561 46.7931 77.7546 47.5202 77.6837C48.2448 77.613 49.4888 77.932 50.4642 78.8365C51.3035 79.6147 51.6286 80.7663 51.5815 81.6385C51.5461 82.2948 51.1491 83.283 50.4642 84.2456C49.808 85.1678 48.7262 86.3737 46.3675 86.3028Z" fill="#F75B5B"/>
    </mask>
    <g mask="url(#mask12)">
        <path d="M44.8632 85.7421C44.1881 85.7184 42.8248 85.0116 42.2276 84.6612L42.5159 85.1886C43.6104 85.9602 46.4461 87.2309 49.0319 86.1403C52.2643 84.7771 51.6641 82.2649 51.6041 81.5104C51.5441 80.756 51.1668 80.2844 50.6095 80.1129C50.0522 79.9415 49.2016 79.9527 48.3724 80.471C47.5432 80.9892 47.0546 81.9368 46.8029 83.373C46.5512 84.8093 45.7072 85.7717 44.8632 85.7421Z" fill="#F62727"/>
    </g>
    <path d="M35.0978 77.9331C35.571 80.7716 36.9595 82.6202 37.5947 83.1897L34.605 89.5305C33.8713 88.9172 32.1541 87.2833 31.1554 85.6537C29.9069 83.6168 28.757 80.6271 28.297 78.3273C27.8371 76.0275 27.8371 72.8735 29.0856 70.2452C30.334 67.6169 32.6666 66.04 33.8822 65.58C35.0978 65.12 36.8391 64.6929 39.8945 65.4814C42.9499 66.2699 46.1696 68.6354 48.5022 71.9536C50.8349 75.2719 52.0176 78.5901 51.6562 81.7441C51.2948 84.8981 48.0751 86.3108 46.1368 86.1465C44.1984 85.9822 42.1943 84.2738 41.6686 83.7482C41.143 83.2225 38.876 80.2657 37.6933 77.5059C36.7471 75.2981 36.4229 72.7969 36.3791 71.8222C36.2368 71.7784 35.8732 71.8288 35.5578 72.3807C35.1635 73.0707 34.5064 74.3848 35.0978 77.9331Z" fill="#F75B5B"/>
    <mask id="mask13" mask-type="alpha" maskUnits="userSpaceOnUse" x="28" y="65" width="24" height="25">
        <path d="M35.0978 77.9331C35.571 80.7716 36.9595 82.6202 37.5947 83.1897L34.605 89.5305C33.8713 88.9172 32.1541 87.2833 31.1554 85.6537C29.9069 83.6168 28.757 80.6271 28.297 78.3273C27.8371 76.0275 27.8371 72.8735 29.0856 70.2452C30.334 67.6169 32.6666 66.04 33.8822 65.58C35.0978 65.12 36.8391 64.6929 39.8945 65.4814C42.9499 66.2699 46.1696 68.6354 48.5022 71.9536C50.8349 75.2719 52.0176 78.5901 51.6562 81.7441C51.2948 84.8981 48.0751 86.3108 46.1368 86.1465C44.1984 85.9822 42.1943 84.2738 41.6686 83.7482C41.143 83.2225 38.876 80.2657 37.6933 77.5059C36.7471 75.2981 36.4229 72.7969 36.3791 71.8222C36.2368 71.7784 35.8732 71.8288 35.5578 72.3807C35.1635 73.0707 34.5064 74.3848 35.0978 77.9331Z" fill="#F75B5B"/>
    </mask>
    <g mask="url(#mask13)">
        <path d="M35.4518 81.6461C36.548 81.1709 33.9644 75.668 35.25 74.8839C35.323 73.9632 35.6178 71.7283 36.3752 71.818C37.1501 71.9097 38.9109 72.3887 39.56 72.7198C38.9943 72.3492 35.6633 70.2852 33.3462 71.8697C31.4726 73.1509 31.1688 75.6775 31.932 77.9862C32.6136 80.0478 34.273 82.1572 35.4518 81.6461Z" fill="#F62727"/>
        <path d="M46.9442 77.903C49.1089 81.7748 47.5385 83.3482 46.8384 84.2477C45.9482 85.3772 43.9184 85.2933 42.9793 85.3854C41.8055 85.5005 44.3297 87.3088 47.2527 88.1374C50.1757 88.9659 53.605 85.0763 54.1344 80.5191C54.6638 75.962 48.5876 70.5763 47.6209 69.7477C46.6543 68.9191 43.4321 66.7557 42.8567 68.2747C42.2813 69.7938 44.616 73.7386 46.9442 77.903Z" fill="#F62727"/>
    </g>
    <path d="M43.3073 76.401C42.2835 74.5821 40.1722 73.0755 39.2446 72.5495C39.6132 73.3902 40.5615 75.258 41.3318 76.0904C41.9033 76.7364 44.5869 78.6746 43.3073 76.401Z" fill="#F62727"/>
    <path d="M38.2963 90.8963C36.4093 90.8396 35.0495 89.956 34.6054 89.5213L34.5187 89.2648C35.3877 87.3672 37.2215 83.4797 37.6046 83.1108C38.0834 82.6497 38.7219 82.3482 39.449 82.2772C40.1736 82.2065 41.4176 82.5255 42.393 83.43C43.2322 84.2083 43.5574 85.3599 43.5103 86.2321C43.4748 86.8883 43.0779 87.8766 42.393 88.8391C41.7368 89.7614 40.655 90.9673 38.2963 90.8963Z" fill="#F75B5B"/>
    <mask id="mask14" mask-type="alpha" maskUnits="userSpaceOnUse" x="34" y="82" width="10" height="9">
        <path d="M38.2963 90.8963C36.4093 90.8396 35.0495 89.956 34.6054 89.5213L34.5187 89.2648C35.3877 87.3672 37.2215 83.4797 37.6046 83.1108C38.0834 82.6497 38.7219 82.3482 39.449 82.2772C40.1736 82.2065 41.4176 82.5255 42.393 83.43C43.2322 84.2083 43.5574 85.3599 43.5103 86.2321C43.4748 86.8883 43.0779 87.8766 42.393 88.8391C41.7368 89.7614 40.655 90.9673 38.2963 90.8963Z" fill="#F75B5B"/>
    </mask>
    <g mask="url(#mask14)">
        <path d="M36.7921 90.3357C36.1169 90.312 34.7537 89.6053 34.1564 89.2548L34.4447 89.7822C35.5393 90.5539 38.3749 91.8245 40.9608 90.7339C44.1931 89.3707 43.5929 86.8586 43.5329 86.1041C43.4729 85.3496 43.0957 84.8781 42.5384 84.7066C41.9811 84.5351 41.1304 84.5464 40.3012 85.0646C39.472 85.5828 38.9834 86.5304 38.7317 87.9667C38.48 89.4029 37.636 90.3653 36.7921 90.3357Z" fill="#F62727"/>
    </g>
    <path d="M26.9653 82.7032C27.4384 85.5418 28.827 87.3903 29.4621 87.9598L26.4725 94.3006C25.7387 93.6873 24.0216 92.0534 23.0228 90.4239C21.7743 88.3869 20.6244 85.3972 20.1645 83.0974C19.7045 80.7977 19.7045 77.6437 20.953 75.0154C22.2014 72.387 24.5341 70.8101 25.7497 70.3501C26.9653 69.8902 28.7065 69.463 31.7619 70.2515C34.8174 71.04 38.037 73.4055 40.3697 76.7237C42.7023 80.042 43.885 83.3602 43.5236 86.5142C43.1623 89.6682 39.9426 91.0809 38.0042 90.9166C36.0658 90.7524 34.0617 89.044 33.536 88.5183C33.0104 87.9926 30.7435 85.0358 29.5607 82.2761C28.6145 80.0683 28.2904 77.567 28.2466 76.5924C28.1042 76.5486 27.7406 76.5989 27.4252 77.1509C27.031 77.8408 26.3739 79.155 26.9653 82.7032Z" fill="#F75B5B"/>
    <mask id="mask15" mask-type="alpha" maskUnits="userSpaceOnUse" x="19" y="69" width="25" height="26">
        <path d="M26.9653 82.7032C27.4384 85.5418 28.827 87.3903 29.4621 87.9598L26.4725 94.3006C25.7387 93.6873 24.0216 92.0534 23.0228 90.4239C21.7743 88.3869 20.6244 85.3972 20.1645 83.0974C19.7045 80.7977 19.7045 77.6437 20.953 75.0154C22.2014 72.387 24.5341 70.8101 25.7497 70.3501C26.9653 69.8902 28.7065 69.463 31.7619 70.2515C34.8174 71.04 38.037 73.4055 40.3697 76.7237C42.7023 80.042 43.885 83.3602 43.5236 86.5142C43.1623 89.6682 39.9426 91.0809 38.0042 90.9166C36.0658 90.7524 34.0617 89.044 33.536 88.5183C33.0104 87.9926 30.7435 85.0358 29.5607 82.2761C28.6145 80.0683 28.2904 77.567 28.2466 76.5924C28.1042 76.5486 27.7406 76.5989 27.4252 77.1509C27.031 77.8408 26.3739 79.155 26.9653 82.7032Z" fill="#F75B5B"/>
    </mask>
    <g mask="url(#mask15)">
        <path d="M27.3192 86.4162C28.4154 85.9409 25.8318 80.438 27.1174 79.654C27.1905 78.7332 27.4852 76.4984 28.2426 76.588C29.0176 76.6798 30.7783 77.1588 31.4275 77.4899C30.8618 77.1192 27.5307 75.0552 25.2136 76.6397C23.34 77.921 23.0363 80.4476 23.7995 82.7563C24.481 84.8179 26.1404 86.9273 27.3192 86.4162Z" fill="#F62727"/>
        <path d="M38.8117 82.6731C40.9764 86.5449 39.406 88.1182 38.7059 89.0178C37.8157 90.1473 35.7859 90.0634 34.8468 90.1555C33.673 90.2706 36.1972 92.0789 39.1202 92.9074C42.0432 93.736 45.4725 89.8463 46.0019 85.2892C46.5313 80.7321 40.4551 75.3464 39.4884 74.5178C38.5218 73.6892 35.2995 71.5258 34.7241 73.0448C34.1488 74.5639 36.4835 78.5087 38.8117 82.6731Z" fill="#F62727"/>
    </g>
    <path d="M35.1748 81.1711C34.151 79.3522 32.0397 77.8455 31.1121 77.3196C31.4806 78.1603 32.429 80.028 33.1993 80.8605C33.7708 81.5065 36.4544 83.4447 35.1748 81.1711Z" fill="#F62727"/>
    <path d="M30.1638 95.6664C28.2768 95.6097 26.917 94.7261 26.4729 94.2913L26.3862 94.0349C27.2552 92.1372 29.089 88.2498 29.4721 87.8809C29.9509 87.4198 30.5894 87.1183 31.3165 87.0473C32.0411 86.9766 33.2851 87.2956 34.2605 88.2001C35.0997 88.9783 35.4249 90.13 35.3778 91.0022C35.3423 91.6584 34.9453 92.6467 34.2605 93.6092C33.6043 94.5314 32.5225 95.7374 30.1638 95.6664Z" fill="#F75B5B"/>
    <mask id="mask16" mask-type="alpha" maskUnits="userSpaceOnUse" x="26" y="87" width="10" height="9">
        <path d="M30.1638 95.6664C28.2768 95.6097 26.917 94.7261 26.4729 94.2913L26.3862 94.0349C27.2552 92.1372 29.089 88.2498 29.4721 87.8809C29.9509 87.4198 30.5894 87.1183 31.3165 87.0473C32.0411 86.9766 33.2851 87.2956 34.2605 88.2001C35.0997 88.9783 35.4249 90.13 35.3778 91.0022C35.3423 91.6584 34.9453 92.6467 34.2605 93.6092C33.6043 94.5314 32.5225 95.7374 30.1638 95.6664Z" fill="#F75B5B"/>
    </mask>
    <g mask="url(#mask16)">
        <path d="M28.6594 95.1058C27.9843 95.0821 26.621 94.3753 26.0238 94.0249L26.3121 94.5523C27.4067 95.324 30.2423 96.5946 32.8281 95.504C36.0605 94.1408 35.4603 91.6286 35.4003 90.8742C35.3403 90.1197 34.963 89.6481 34.4057 89.4767C33.8484 89.3052 32.9978 89.3164 32.1686 89.8347C31.3394 90.3529 30.8508 91.3005 30.5991 92.7367C30.3474 94.173 29.5034 95.1354 28.6594 95.1058Z" fill="#F62727"/>
    </g>
</svg>
