<svg width="128" height="128" viewBox="0 0 128 128" fill="none" xmlns="http://www.w3.org/2000/svg">
    <rect x="88.0416" y="31.4731" width="12" height="80" rx="2" transform="rotate(45 88.0416 31.4731)" fill="#F62727" />
    <path d="M95.1127 86.6274C95.8938 87.4085 95.8938 88.6748 95.1127 89.4558L89.4558 95.1127C88.6748 95.8937 87.4085 95.8937 86.6274 95.1127L32.8873 41.3726C32.1063 40.5915 32.1063 39.3252 32.8873 38.5441L35.7157 35.7157L38.5442 32.8873C39.3252 32.1062 40.5915 32.1062 41.3726 32.8873L95.1127 86.6274Z" fill="#F62727" />
    <rect x="88.0416" y="28.9647" width="12" height="80" rx="2" transform="rotate(45 88.0416 28.9647)" fill="#F75B5B" />
    <rect x="96.5269" y="85.5332" width="12" height="80" rx="2" transform="rotate(135 96.5269 85.5332)" fill="#F75B5B" />
</svg>