<svg width="128" height="128" viewBox="0 0 128 128" fill="none" xmlns="http://www.w3.org/2000/svg">
    <path d="M103.595 67.085V53.9314L86.7165 44.1561H75.3328L69.6048 47.454L103.595 67.085Z" fill="#B8AD7A" />
    <path fill-rule="evenodd" clip-rule="evenodd" d="M18.7734 75.6211V63.7169L73.8529 32.0194C74.5196 31.6358 75.3517 32.117 75.3517 32.8861V44.1378L69.7347 47.4197L92.3113 60.4624L107.725 51.5061C108.392 51.1187 109.228 51.5997 109.228 52.3707V63.2262C109.228 63.5832 109.037 63.9131 108.728 64.0919L53.8189 95.8467C53.2 96.2046 52.4371 96.2049 51.8179 95.8476L19.7736 77.3533C19.1547 76.9961 18.7734 76.3357 18.7734 75.6211ZM106.347 61.6996V56.5126C106.347 56.1267 105.928 55.8863 105.595 56.0807L102.807 57.7069C102.5 57.8861 102.311 58.215 102.311 58.5707V63.6997C102.311 64.0821 102.723 64.323 103.056 64.1355L105.837 62.5712C106.152 62.3941 106.347 62.0609 106.347 61.6996ZM72.4501 36.8645V42.0515C72.4501 42.4128 72.2552 42.746 71.9403 42.9231L69.1593 44.4874C68.826 44.6749 68.4141 44.4341 68.4141 44.0516V38.9226C68.4141 38.567 68.603 38.2381 68.9103 38.0588L71.6981 36.4326C72.0314 36.2382 72.4501 36.4786 72.4501 36.8645Z" fill="#E0D185" />
    <path d="M20.2512 67.3621V71.4409L24.6766 69.007L20.9972 66.9269C20.6639 66.7384 20.2512 66.9792 20.2512 67.3621Z" fill="#1F1D14" />
    <path d="M20.2429 75.0877L20.2429 71.4479L51.0297 89.0619L51.0297 92.676C51.0297 93.0615 50.6119 93.302 50.2786 93.1084L20.7407 75.9525C20.4325 75.7735 20.2429 75.4441 20.2429 75.0877Z" fill="#1289C9" />
    <path d="M58.3746 40.8495L18.7723 63.7169L51.7513 82.8055C52.3715 83.1644 53.1363 83.1642 53.7563 82.8047L92.368 60.4183L58.3746 40.8495Z" fill="#FAF3D1" />
    <path d="M50.531 83.8015L24.6767 68.9984L20.2442 71.4456L51.0341 89.0861L51.0341 84.6693C51.0341 84.3108 50.8421 83.9797 50.531 83.8015Z" fill="#086496" />
    <mask id="usbagold0" mask-type="alpha" maskUnits="userSpaceOnUse" x="55" y="64" width="14" height="8">
        <path d="M60.224 64.2402L55.8339 66.7925C55.5012 66.986 55.5026 67.4672 55.8366 67.6586L63.0954 71.8193C63.4034 71.9958 63.7818 71.9958 64.0898 71.8194L68.4959 69.2951C68.8307 69.1033 68.8313 68.6206 68.497 68.428L61.2259 64.2382C60.9157 64.0595 60.5336 64.0602 60.224 64.2402Z" fill="#C2CFD6" />
    </mask>
    <g mask="url(#usbagold0)">
        <path d="M60.224 64.2402L55.8339 66.7925C55.5012 66.986 55.5026 67.4672 55.8366 67.6586L63.0954 71.8193C63.4034 71.9958 63.7818 71.9958 64.0898 71.8194L68.4959 69.2951C68.8307 69.1033 68.8313 68.6206 68.497 68.428L61.2259 64.2382C60.9157 64.0595 60.5336 64.0602 60.224 64.2402Z" fill="#E0D185" />
        <path d="M60.224 66.2402L55.8339 68.7925C55.5012 68.986 55.5026 69.4672 55.8366 69.6586L63.0954 73.8193C63.4034 73.9958 63.7818 73.9958 64.0898 73.8194L68.4959 71.2951C68.8307 71.1033 68.8313 70.6206 68.497 70.428L61.2259 66.2382C60.9157 66.0595 60.5336 66.0602 60.224 66.2402Z" fill="#B8AD7A" />
    </g>
    <mask id="usbagold1" mask-type="alpha" maskUnits="userSpaceOnUse" x="38" y="54" width="14" height="8">
        <path d="M43.0812 54.2444L38.6911 56.7968C38.3583 56.9903 38.3598 57.4714 38.6938 57.6629L45.9526 61.8235C46.2606 62.0001 46.639 62.0001 46.947 61.8236L51.3531 59.2993C51.6879 59.1075 51.6885 58.6249 51.3542 58.4323L44.0831 54.2425C43.7729 54.0637 43.3907 54.0645 43.0812 54.2444Z" fill="#C2CFD6" />
    </mask>
    <g mask="url(#usbagold1)">
        <path d="M43.0812 54.2444L38.6911 56.7968C38.3583 56.9903 38.3598 57.4714 38.6938 57.6629L45.9526 61.8235C46.2606 62.0001 46.639 62.0001 46.947 61.8236L51.3531 59.2993C51.6879 59.1075 51.6885 58.6249 51.3542 58.4323L44.0831 54.2425C43.7729 54.0637 43.3907 54.0645 43.0812 54.2444Z" fill="#E0D185" />
        <path d="M43.0812 56.2444L38.6911 58.7968C38.3583 58.9903 38.3598 59.4714 38.6938 59.6629L45.9526 63.8235C46.2606 64.0001 46.639 64.0001 46.947 63.8236L51.3531 61.2993C51.6879 61.1075 51.6885 60.6249 51.3542 60.4323L44.0831 56.2425C43.7729 56.0637 43.3907 56.0645 43.0812 56.2444Z" fill="#B8AD7A" />
    </g>
    <path d="M74.456 50.0993L34.868 72.9874L36.2805 73.7972L75.699 50.8243L74.456 50.0993Z" fill="#E0D185" />
</svg>