<svg width="128" height="128" viewBox="0 0 128 128" fill="none" xmlns="http://www.w3.org/2000/svg">
    <mask id="usbcsilver0" mask-type="alpha" maskUnits="userSpaceOnUse" x="45" y="45" width="46" height="32">
        <path fill-rule="evenodd" clip-rule="evenodd" d="M67.5384 46.5467L45.107 59.4383L66.2105 76.711L88.4665 63.9643C89.6578 64.2225 90.8835 63.3256 90.8835 62.0057V59.8919C90.8835 58.0915 89.9155 56.4302 88.3493 55.5423L70.4404 45.3897C69.2859 44.7351 67.8915 45.3696 67.5384 46.5467Z" fill="#28363E" />
    </mask>
    <g mask="url(#usbcsilver0)">
        <path fill-rule="evenodd" clip-rule="evenodd" d="M68.5394 46.0221L68.4956 45.9968L45.107 59.4385L66.2105 76.7112L89.5629 63.3366V63.2596C90.3315 62.8293 90.8835 62.0138 90.8835 61.0078V60.4747C90.8835 58.3143 89.7219 56.3206 87.8425 55.2551L71.3065 45.8808C70.3694 45.3495 69.3098 45.4766 68.5394 46.0221Z" fill="#28363E" />
    </g>
    <mask id="usbcsilver1" mask-type="alpha" maskUnits="userSpaceOnUse" x="38" y="49" width="46" height="32">
        <path fill-rule="evenodd" clip-rule="evenodd" d="M60.6303 50.4899L38.1989 63.3815L59.3023 80.6542L81.5584 67.9075C82.7496 68.1657 83.9753 67.2688 83.9753 65.9489V63.8351C83.9753 62.0347 83.0074 60.3733 81.4412 59.4854L63.5323 49.3328C62.3777 48.6783 60.9833 49.3128 60.6303 50.4899Z" fill="#E0E7EB" />
    </mask>
    <g mask="url(#usbcsilver1)">
        <path fill-rule="evenodd" clip-rule="evenodd" d="M61.6312 49.9653L61.5875 49.94L38.1989 63.3817L59.3023 80.6543L82.6547 67.2798V67.2027C83.4234 66.7725 83.9753 65.957 83.9753 64.951V64.4179C83.9753 62.2574 82.8138 60.2638 80.9343 59.1983L64.3983 49.824C63.4612 49.2927 62.4016 49.4198 61.6312 49.9653Z" fill="#E0E7EB" />
        <path d="M55.4454 79.6748L84.5204 62.9975L85.3587 64.8505L57.5631 80.9984L55.4454 79.6748Z" fill="#C3D0D7" />
    </g>
    <path d="M37.1165 65.551V66.0351C37.1165 68.1907 38.2729 70.1807 40.1458 71.248L56.6885 80.6752C58.4084 81.6553 60.5459 80.4132 60.5459 78.4336V77.9005C60.5459 75.74 59.3844 73.7464 57.5049 72.6809L40.9689 63.3065C39.249 62.3315 37.1165 63.5739 37.1165 65.551Z" fill="#C3D0D7" />
    <mask id="usbcsilver2" mask-type="alpha" maskUnits="userSpaceOnUse" x="38" y="64" width="22" height="17">
        <path d="M38.0305 66.0938V66.3669C38.0305 68.1519 38.9821 69.8015 40.5273 70.6952L56.5066 79.9366C57.8399 80.7078 59.5079 79.7456 59.5079 78.2053V77.8916C59.5079 76.1031 58.5527 74.4509 57.0028 73.5585L41.0285 64.3606C39.6952 63.5929 38.0305 64.5553 38.0305 66.0938Z" fill="#141B1F" />
    </mask>
    <g mask="url(#usbcsilver2)">
        <path d="M38.0925 66.0938V66.3669C38.0925 68.1519 39.0441 69.8015 40.5893 70.6952L56.5685 79.9366C57.9019 80.7078 59.5698 79.7456 59.5698 78.2053V77.8916C59.5698 76.1031 58.6146 74.4509 57.0648 73.5585L41.0904 64.3606C39.7571 63.5929 38.0925 64.5553 38.0925 66.0938Z" fill="#141B1F" />
        <path d="M43.7551 64.3378L40.6411 66.2284L57.2213 77.631L62.022 74.8475L43.7551 64.3378Z" fill="#3E515C" />
        <path d="M56.4199 74.548L41.8264 66.1151C41.15 65.7243 40.3042 66.2124 40.3042 66.9936C40.3042 67.8976 40.7853 68.7332 41.5671 69.1871L56.1601 77.6594C56.8448 78.057 57.7029 77.5629 57.7029 76.7712C57.7028 75.8542 57.2138 75.0068 56.4199 74.548Z" fill="#678799" />
    </g>
    <path d="M71.709 50.3144L68.2963 52.2639L79.5868 58.4763L82.5895 56.673C82.915 56.4775 82.9124 56.0049 82.5848 55.813L73.2112 50.3225C72.748 50.0512 72.1751 50.0481 71.709 50.3144Z" fill="#E0E7EB" />
    <path d="M73.1934 51.63L72.2132 52.1973C72.0803 52.2742 72.08 52.466 72.2127 52.5432L74.3579 53.7926C74.514 53.8835 74.707 53.8832 74.8628 53.7917L75.8253 53.2264C75.9569 53.1491 75.9569 52.9587 75.8253 52.8814L73.6971 51.6316C73.5417 51.5403 73.3493 51.5397 73.1934 51.63Z" fill="#28363E" />
    <path d="M77.7401 54.2353L76.7599 54.8027C76.6271 54.8796 76.6268 55.0713 76.7595 55.1486L78.9047 56.398C79.0608 56.4889 79.2538 56.4885 79.4095 56.397L80.3721 55.8317C80.5037 55.7544 80.5037 55.5641 80.3721 55.4868L78.2438 54.2369C78.0885 54.1457 77.896 54.1451 77.7401 54.2353Z" fill="#28363E" />
    <path d="M80.5582 57.8681L69.5086 51.6035L68.5013 52.1387L79.6139 58.4663L80.5582 57.8681Z" fill="#C3D0D7" />
</svg>