<svg width="128" height="128" viewBox="0 0 128 128" fill="none" xmlns="http://www.w3.org/2000/svg">
    <path d="M97.034 61.326L74.3571 74.3273L53.1468 62.093L75.832 49.037L97.034 61.326Z" fill="#678799" />
    <path fill-rule="evenodd" clip-rule="evenodd" d="M75.3132 64.6149V73.7595L97.0129 61.3541V53.247C97.0129 52.4773 96.1798 51.9961 95.5131 52.3808L75.8134 63.7488C75.5039 63.9274 75.3132 64.2576 75.3132 64.6149ZM78.476 67.094V66.1157C78.476 65.7582 78.6669 65.4279 78.9767 65.2493L81.8567 63.5894C82.19 63.3973 82.6064 63.6379 82.6064 64.0226V64.9728C82.6064 65.3277 82.4182 65.6561 82.112 65.8355L79.2288 67.5254C78.8955 67.7208 78.476 67.4804 78.476 67.094ZM90.0959 59.3944V60.3742C90.0959 60.7606 90.5154 61.0009 90.8487 60.8056L93.7344 59.1142C94.0406 58.9347 94.2288 58.6064 94.2288 58.2515V57.2998C94.2288 56.9151 93.8124 56.6745 93.4791 56.8666L90.5965 58.528C90.2868 58.7065 90.0959 59.0369 90.0959 59.3944Z" fill="#C3D0D7" />
    <path fill-rule="evenodd" clip-rule="evenodd" d="M54.1199 52.3117V61.4562L75.8197 49.0509V40.9438C75.8197 40.174 74.9865 39.6929 74.3199 40.0776L54.6201 51.4456C54.3106 51.6242 54.1199 51.9544 54.1199 52.3117ZM57.2828 54.7908V53.8125C57.2828 53.455 57.4737 53.1246 57.7834 52.9461L60.6635 51.2862C60.9968 51.0941 61.4131 51.3346 61.4131 51.7194V52.6696C61.4131 53.0245 61.225 53.3528 60.9188 53.5323L58.0356 55.2222C57.7023 55.4175 57.2828 55.1772 57.2828 54.7908ZM68.9026 47.0912V48.071C68.9026 48.4573 69.3222 48.6977 69.6555 48.5023L72.5412 46.811C72.8474 46.6315 73.0355 46.3032 73.0355 45.9483V44.9966C73.0355 44.6119 72.6192 44.3713 72.2858 44.5634L69.4033 46.2248C69.0935 46.4033 68.9026 46.7336 68.9026 47.0912Z" fill="#C3D0D7" />
    <mask id="usbminisilver0" mask-type="alpha" maskUnits="userSpaceOnUse" x="34" y="51" width="42" height="37">
        <path fill-rule="evenodd" clip-rule="evenodd" d="M56.5627 52.0349C56.8646 51.737 57.3479 51.637 57.7663 51.8772L70.9146 59.4277C71.8586 59.9698 72.4349 60.9808 72.4203 62.0694L72.4028 63.3778C72.401 63.5172 72.4283 63.6556 72.4831 63.7838L75.1641 70.0622C75.2171 70.1863 75.2444 70.3199 75.2444 70.4549V73.2873C75.2444 73.7305 74.9682 74.078 74.6067 74.2196L52.2592 87.1873L35.5798 71.9774L34.3124 64.9052L56.5627 52.0349Z" fill="#E0E7EB" />
    </mask>
    <g mask="url(#usbminisilver0)">
        <path fill-rule="evenodd" clip-rule="evenodd" d="M56.5627 52.0349C56.8646 51.737 57.3479 51.637 57.7663 51.8772L70.9146 59.4277C71.8586 59.9698 72.4349 60.9808 72.4203 62.0694L72.4028 63.3778C72.401 63.5172 72.4283 63.6556 72.4831 63.7838L75.1641 70.0622C75.2171 70.1863 75.2444 70.3199 75.2444 70.4549V73.2873C75.2444 73.7305 74.9682 74.078 74.6067 74.2196L52.2592 87.1873L35.5798 71.9774L34.3124 64.9052L56.5627 52.0349Z" fill="#E0E7EB" />
        <path d="M72.8878 60.4939L49.6461 73.8668V77.1276L75.1048 62.4317L72.8878 60.4939Z" fill="#C3D0D7" />
        <path d="M65.0269 54.6741L39.2301 69.6447L40.3542 70.4832L66.3352 55.428L65.0269 54.6741Z" fill="#C3D0D7" />
        <path d="M75.5164 70.426L52.2747 83.799L52.2747 87.7461L77.7333 73.0502L75.5164 70.426Z" fill="#C3D0D7" />
    </g>
    <path d="M51.272 87.1914L32.4657 76.3303C31.5377 75.7944 30.9661 74.8041 30.9661 73.7324V70.9706C30.9661 70.7304 31.0525 70.4982 31.2097 70.3165L33.5524 67.6078C33.7095 67.426 33.796 67.1938 33.796 66.9536V65.7826C33.796 65.0138 34.6273 64.5326 35.294 64.9154L48.4423 72.4659C49.3863 73.008 49.9626 74.019 49.948 75.1075L49.9306 76.4159C49.9287 76.5554 49.956 76.6937 50.0108 76.822L52.6918 83.1004C52.7448 83.2245 52.7721 83.3581 52.7721 83.4931V86.3255C52.7721 87.0953 51.9387 87.5764 51.272 87.1914Z" fill="#C3D0D7" />
    <mask id="usbminisilver1" mask-type="alpha" maskUnits="userSpaceOnUse" x="32" y="65" width="20" height="21">
        <path d="M50.5492 85.8465L33.2173 75.8979C32.5961 75.5413 32.213 74.8796 32.213 74.1633V71.3332C32.213 71.2131 32.2562 71.097 32.3348 71.0061L34.5188 68.4808C34.5974 68.3899 34.6406 68.2738 34.6406 68.1537V66.3942C34.6406 66.0106 35.0548 65.7698 35.3881 65.9597L47.8699 73.0697C48.5027 73.4302 48.8896 74.1061 48.8798 74.8343L48.8594 76.3649C48.8584 76.4346 48.8721 76.5038 48.8995 76.5679L51.2579 82.0909C51.2844 82.1529 51.2981 82.2197 51.2981 82.2872V85.4128C51.2981 85.7972 50.8825 86.0378 50.5492 85.8465Z" fill="#678799" />
    </mask>
    <g mask="url(#usbminisilver1)">
        <path d="M50.5491 85.8465L33.2172 75.8979C32.596 75.5413 32.2129 74.8796 32.2129 74.1633V71.3332C32.2129 71.2131 32.2561 71.097 32.3347 71.0061L34.5188 68.4808C34.5973 68.3899 34.6406 68.2738 34.6406 68.1537V66.3942C34.6406 66.0106 35.0547 65.7698 35.3881 65.9597L47.8699 73.0697C48.5027 73.4302 48.8895 74.1061 48.8798 74.8343L48.8593 76.3649C48.8584 76.4346 48.872 76.5038 48.8994 76.5679L51.2578 82.0909C51.2844 82.1529 51.298 82.2197 51.298 82.2872V85.4128C51.298 85.7972 50.8824 86.0378 50.5491 85.8465Z" fill="#141B1F" />
        <path d="M41.2841 67.3746L31.9843 72.7498L52.1886 85.6109L57.6898 78.7798L41.2841 67.3746Z" fill="#3E515C" />
        <path d="M52.5176 84.6865L31.7172 72.5966V75.2793L51.2285 86.7422L52.5176 84.6865Z" fill="#678799" />
    </g>
</svg>