<svg width="30" height="793" viewBox="0 0 30 793" fill="none" xmlns="http://www.w3.org/2000/svg">
    <g clip-path="url(#clip0)">
        <line y1="0.481934" x2="30.3463" y2="0.481934" stroke="#666666" stroke-opacity="0.5" />
        <line y1="17.2686" x2="21.2481" y2="17.2686" stroke="#666666" stroke-opacity="0.5" />
        <line y1="3.83926" x2="16.7867" y2="3.83926" stroke="#666666" stroke-opacity="0.5" />
        <line y1="10.554" x2="16.7867" y2="10.554" stroke="#666666" stroke-opacity="0.5" />
        <line y1="13.9113" x2="16.7867" y2="13.9113" stroke="#666666" stroke-opacity="0.5" />
        <line y1="7.19656" x2="16.7867" y2="7.19656" stroke="#666666" stroke-opacity="0.5" />
        <line y1="20.6259" x2="16.7867" y2="20.6259" stroke="#666666" stroke-opacity="0.5" />
        <line y1="27.3405" x2="16.7867" y2="27.3405" stroke="#666666" stroke-opacity="0.5" />
        <line y1="30.6979" x2="16.7867" y2="30.6979" stroke="#666666" stroke-opacity="0.5" />
        <line y1="23.9832" x2="16.7867" y2="23.9832" stroke="#666666" stroke-opacity="0.5" />
        <line y1="34.0552" x2="30.3463" y2="34.0552" stroke="#666666" stroke-opacity="0.5" />
        <line y1="50.8418" x2="21.2481" y2="50.8418" stroke="#666666" stroke-opacity="0.5" />
        <line y1="37.4126" x2="16.7867" y2="37.4126" stroke="#666666" stroke-opacity="0.5" />
        <line y1="44.1273" x2="16.7867" y2="44.1273" stroke="#666666" stroke-opacity="0.5" />
        <line y1="47.4845" x2="16.7867" y2="47.4845" stroke="#666666" stroke-opacity="0.5" />
        <line y1="40.7699" x2="16.7867" y2="40.7699" stroke="#666666" stroke-opacity="0.5" />
        <line y1="54.1992" x2="16.7867" y2="54.1992" stroke="#666666" stroke-opacity="0.5" />
        <line y1="60.9139" x2="16.7867" y2="60.9139" stroke="#666666" stroke-opacity="0.5" />
        <line y1="64.2712" x2="16.7867" y2="64.2712" stroke="#666666" stroke-opacity="0.5" />
        <line y1="57.5565" x2="16.7867" y2="57.5565" stroke="#666666" stroke-opacity="0.5" />
        <line y1="67.6286" x2="30.3463" y2="67.6286" stroke="#666666" stroke-opacity="0.5" />
        <line y1="84.4152" x2="21.2481" y2="84.4152" stroke="#666666" stroke-opacity="0.5" />
        <line y1="70.9859" x2="16.7867" y2="70.9859" stroke="#666666" stroke-opacity="0.5" />
        <line y1="77.7005" x2="16.7867" y2="77.7005" stroke="#666666" stroke-opacity="0.5" />
        <line y1="81.0579" x2="16.7867" y2="81.0579" stroke="#666666" stroke-opacity="0.5" />
        <line y1="74.3432" x2="16.7867" y2="74.3432" stroke="#666666" stroke-opacity="0.5" />
        <line y1="87.7726" x2="16.7867" y2="87.7726" stroke="#666666" stroke-opacity="0.5" />
        <line y1="94.4872" x2="16.7867" y2="94.4872" stroke="#666666" stroke-opacity="0.5" />
        <line y1="97.8445" x2="16.7867" y2="97.8445" stroke="#666666" stroke-opacity="0.5" />
        <line y1="91.1299" x2="16.7867" y2="91.1299" stroke="#666666" stroke-opacity="0.5" />
        <line y1="101.202" x2="30.3463" y2="101.202" stroke="#666666" stroke-opacity="0.5" />
        <line y1="117.988" x2="21.2481" y2="117.988" stroke="#666666" stroke-opacity="0.5" />
        <line y1="104.559" x2="16.7867" y2="104.559" stroke="#666666" stroke-opacity="0.5" />
        <line y1="111.274" x2="16.7867" y2="111.274" stroke="#666666" stroke-opacity="0.5" />
        <line y1="114.631" x2="16.7867" y2="114.631" stroke="#666666" stroke-opacity="0.5" />
        <line y1="107.917" x2="16.7867" y2="107.917" stroke="#666666" stroke-opacity="0.5" />
        <line y1="121.346" x2="16.7867" y2="121.346" stroke="#666666" stroke-opacity="0.5" />
        <line y1="128.06" x2="16.7867" y2="128.06" stroke="#666666" stroke-opacity="0.5" />
        <line y1="131.418" x2="16.7867" y2="131.418" stroke="#666666" stroke-opacity="0.5" />
        <line y1="124.703" x2="16.7867" y2="124.703" stroke="#666666" stroke-opacity="0.5" />
        <line y1="134.775" x2="30.3463" y2="134.775" stroke="#666666" stroke-opacity="0.5" />
        <line x1="-0.346313" y1="151.561" x2="20.9018" y2="151.561" stroke="#666666" stroke-opacity="0.5" />
        <line x1="-0.346313" y1="138.132" x2="16.4403" y2="138.132" stroke="#666666" stroke-opacity="0.5" />
        <line x1="-0.346313" y1="144.847" x2="16.4403" y2="144.847" stroke="#666666" stroke-opacity="0.5" />
        <line x1="-0.346313" y1="148.204" x2="16.4403" y2="148.204" stroke="#666666" stroke-opacity="0.5" />
        <line x1="-0.346313" y1="141.489" x2="16.4403" y2="141.489" stroke="#666666" stroke-opacity="0.5" />
        <line x1="-0.346313" y1="154.919" x2="16.4403" y2="154.919" stroke="#666666" stroke-opacity="0.5" />
        <line x1="-0.346313" y1="161.633" x2="16.4403" y2="161.633" stroke="#666666" stroke-opacity="0.5" />
        <line x1="-0.346313" y1="164.991" x2="16.4403" y2="164.991" stroke="#666666" stroke-opacity="0.5" />
        <line x1="-0.346313" y1="158.276" x2="16.4403" y2="158.276" stroke="#666666" stroke-opacity="0.5" />
        <line x1="-0.346313" y1="168.348" x2="30" y2="168.348" stroke="#666666" stroke-opacity="0.5" />
        <line x1="-0.346313" y1="185.135" x2="20.9018" y2="185.135" stroke="#666666" stroke-opacity="0.5" />
        <line x1="-0.346313" y1="171.705" x2="16.4403" y2="171.705" stroke="#666666" stroke-opacity="0.5" />
        <line x1="-0.346313" y1="178.42" x2="16.4403" y2="178.42" stroke="#666666" stroke-opacity="0.5" />
        <line x1="-0.346313" y1="181.777" x2="16.4403" y2="181.777" stroke="#666666" stroke-opacity="0.5" />
        <line x1="-0.346313" y1="175.063" x2="16.4403" y2="175.063" stroke="#666666" stroke-opacity="0.5" />
        <line x1="-0.346313" y1="188.492" x2="16.4403" y2="188.492" stroke="#666666" stroke-opacity="0.5" />
        <line x1="-0.346313" y1="195.207" x2="16.4403" y2="195.207" stroke="#666666" stroke-opacity="0.5" />
        <line x1="-0.346313" y1="198.564" x2="16.4403" y2="198.564" stroke="#666666" stroke-opacity="0.5" />
        <line x1="-0.346313" y1="191.849" x2="16.4403" y2="191.849" stroke="#666666" stroke-opacity="0.5" />
        <line x1="-0.346313" y1="201.921" x2="30" y2="201.921" stroke="#666666" stroke-opacity="0.5" />
        <line x1="-0.346313" y1="218.708" x2="20.9018" y2="218.708" stroke="#666666" stroke-opacity="0.5" />
        <line x1="-0.346313" y1="205.279" x2="16.4403" y2="205.279" stroke="#666666" stroke-opacity="0.5" />
        <line x1="-0.346313" y1="211.993" x2="16.4403" y2="211.993" stroke="#666666" stroke-opacity="0.5" />
        <line x1="-0.346313" y1="215.351" x2="16.4403" y2="215.351" stroke="#666666" stroke-opacity="0.5" />
        <line x1="-0.346313" y1="208.636" x2="16.4403" y2="208.636" stroke="#666666" stroke-opacity="0.5" />
        <line x1="-0.346313" y1="222.065" x2="16.4403" y2="222.065" stroke="#666666" stroke-opacity="0.5" />
        <line x1="-0.346313" y1="228.78" x2="16.4403" y2="228.78" stroke="#666666" stroke-opacity="0.5" />
        <line x1="-0.346313" y1="232.137" x2="16.4403" y2="232.137" stroke="#666666" stroke-opacity="0.5" />
        <line x1="-0.346313" y1="225.423" x2="16.4403" y2="225.423" stroke="#666666" stroke-opacity="0.5" />
        <line x1="-0.346313" y1="235.495" x2="30" y2="235.495" stroke="#666666" stroke-opacity="0.5" />
        <line x1="-0.346313" y1="252.281" x2="20.9018" y2="252.281" stroke="#666666" stroke-opacity="0.5" />
        <line x1="-0.346313" y1="238.852" x2="16.4403" y2="238.852" stroke="#666666" stroke-opacity="0.5" />
        <line x1="-0.346313" y1="245.567" x2="16.4403" y2="245.567" stroke="#666666" stroke-opacity="0.5" />
        <line x1="-0.346313" y1="248.924" x2="16.4403" y2="248.924" stroke="#666666" stroke-opacity="0.5" />
        <line x1="-0.346313" y1="242.209" x2="16.4403" y2="242.209" stroke="#666666" stroke-opacity="0.5" />
        <line x1="-0.346313" y1="255.639" x2="16.4403" y2="255.639" stroke="#666666" stroke-opacity="0.5" />
        <line x1="-0.346313" y1="262.353" x2="16.4403" y2="262.353" stroke="#666666" stroke-opacity="0.5" />
        <line x1="-0.346313" y1="265.711" x2="16.4403" y2="265.711" stroke="#666666" stroke-opacity="0.5" />
        <line x1="-0.346313" y1="258.996" x2="16.4403" y2="258.996" stroke="#666666" stroke-opacity="0.5" />
        <line x1="-0.346313" y1="269.068" x2="30" y2="269.068" stroke="#666666" stroke-opacity="0.5" />
        <line x1="-0.346313" y1="285.855" x2="20.9018" y2="285.855" stroke="#666666" stroke-opacity="0.5" />
        <line x1="-0.346313" y1="272.426" x2="16.4403" y2="272.426" stroke="#666666" stroke-opacity="0.5" />
        <line x1="-0.346313" y1="279.14" x2="16.4403" y2="279.14" stroke="#666666" stroke-opacity="0.5" />
        <line x1="-0.346313" y1="282.498" x2="16.4403" y2="282.498" stroke="#666666" stroke-opacity="0.5" />
        <line x1="-0.346313" y1="275.783" x2="16.4403" y2="275.783" stroke="#666666" stroke-opacity="0.5" />
        <line x1="-0.346313" y1="289.212" x2="16.4403" y2="289.212" stroke="#666666" stroke-opacity="0.5" />
        <line x1="-0.346313" y1="295.927" x2="16.4403" y2="295.927" stroke="#666666" stroke-opacity="0.5" />
        <line x1="-0.346313" y1="299.284" x2="16.4403" y2="299.284" stroke="#666666" stroke-opacity="0.5" />
        <line x1="-0.346313" y1="292.57" x2="16.4403" y2="292.57" stroke="#666666" stroke-opacity="0.5" />
        <line x1="-0.346313" y1="302.642" x2="30" y2="302.642" stroke="#666666" stroke-opacity="0.5" />
        <line x1="-0.346313" y1="319.428" x2="20.9018" y2="319.428" stroke="#666666" stroke-opacity="0.5" />
        <line x1="-0.346313" y1="305.999" x2="16.4403" y2="305.999" stroke="#666666" stroke-opacity="0.5" />
        <line x1="-0.346313" y1="312.714" x2="16.4403" y2="312.714" stroke="#666666" stroke-opacity="0.5" />
        <line x1="-0.346313" y1="316.071" x2="16.4403" y2="316.071" stroke="#666666" stroke-opacity="0.5" />
        <line x1="-0.346313" y1="309.356" x2="16.4403" y2="309.356" stroke="#666666" stroke-opacity="0.5" />
        <line x1="-0.346313" y1="322.786" x2="16.4403" y2="322.786" stroke="#666666" stroke-opacity="0.5" />
        <line x1="-0.346313" y1="329.5" x2="16.4403" y2="329.5" stroke="#666666" stroke-opacity="0.5" />
        <line x1="-0.346313" y1="332.858" x2="16.4403" y2="332.858" stroke="#666666" stroke-opacity="0.5" />
        <line x1="-0.346313" y1="326.143" x2="16.4403" y2="326.143" stroke="#666666" stroke-opacity="0.5" />
        <line x1="-0.346313" y1="336.215" x2="30" y2="336.215" stroke="#666666" stroke-opacity="0.5" />
        <line x1="-0.346313" y1="353.002" x2="20.9018" y2="353.002" stroke="#666666" stroke-opacity="0.5" />
        <line x1="-0.346313" y1="339.572" x2="16.4403" y2="339.572" stroke="#666666" stroke-opacity="0.5" />
        <line x1="-0.346313" y1="346.287" x2="16.4403" y2="346.287" stroke="#666666" stroke-opacity="0.5" />
        <line x1="-0.346313" y1="349.644" x2="16.4403" y2="349.644" stroke="#666666" stroke-opacity="0.5" />
        <line x1="-0.346313" y1="342.93" x2="16.4403" y2="342.93" stroke="#666666" stroke-opacity="0.5" />
        <line x1="-0.346313" y1="356.359" x2="16.4403" y2="356.359" stroke="#666666" stroke-opacity="0.5" />
        <line x1="-0.346313" y1="363.074" x2="16.4403" y2="363.074" stroke="#666666" stroke-opacity="0.5" />
        <line x1="-0.346313" y1="366.431" x2="16.4403" y2="366.431" stroke="#666666" stroke-opacity="0.5" />
        <line x1="-0.346313" y1="359.716" x2="16.4403" y2="359.716" stroke="#666666" stroke-opacity="0.5" />
        <line x1="-0.346313" y1="369.788" x2="30" y2="369.788" stroke="#666666" stroke-opacity="0.5" />
        <line x1="-0.346313" y1="386.575" x2="20.9018" y2="386.575" stroke="#666666" stroke-opacity="0.5" />
        <line x1="-0.346313" y1="373.146" x2="16.4403" y2="373.146" stroke="#666666" stroke-opacity="0.5" />
        <line x1="-0.346313" y1="379.86" x2="16.4403" y2="379.86" stroke="#666666" stroke-opacity="0.5" />
        <line x1="-0.346313" y1="383.218" x2="16.4403" y2="383.218" stroke="#666666" stroke-opacity="0.5" />
        <line x1="-0.346313" y1="376.503" x2="16.4403" y2="376.503" stroke="#666666" stroke-opacity="0.5" />
        <line x1="-0.346313" y1="389.932" x2="16.4403" y2="389.932" stroke="#666666" stroke-opacity="0.5" />
        <line x1="-0.346313" y1="396.647" x2="16.4403" y2="396.647" stroke="#666666" stroke-opacity="0.5" />
        <line x1="-0.346313" y1="400.004" x2="16.4403" y2="400.004" stroke="#666666" stroke-opacity="0.5" />
        <line x1="-0.346313" y1="393.29" x2="16.4403" y2="393.29" stroke="#666666" stroke-opacity="0.5" />
        <line x1="-0.346313" y1="403.362" x2="30" y2="403.362" stroke="#666666" stroke-opacity="0.5" />
        <line x1="-0.346313" y1="420.149" x2="20.9018" y2="420.149" stroke="#666666" stroke-opacity="0.5" />
        <line x1="-0.346313" y1="406.719" x2="16.4403" y2="406.719" stroke="#666666" stroke-opacity="0.5" />
        <line x1="-0.346313" y1="413.434" x2="16.4403" y2="413.434" stroke="#666666" stroke-opacity="0.5" />
        <line x1="-0.346313" y1="416.791" x2="16.4403" y2="416.791" stroke="#666666" stroke-opacity="0.5" />
        <line x1="-0.346313" y1="410.077" x2="16.4403" y2="410.077" stroke="#666666" stroke-opacity="0.5" />
        <line x1="-0.346313" y1="423.506" x2="16.4403" y2="423.506" stroke="#666666" stroke-opacity="0.5" />
        <line x1="-0.346313" y1="430.221" x2="16.4403" y2="430.221" stroke="#666666" stroke-opacity="0.5" />
        <line x1="-0.346313" y1="433.578" x2="16.4403" y2="433.578" stroke="#666666" stroke-opacity="0.5" />
        <line x1="-0.346313" y1="426.863" x2="16.4403" y2="426.863" stroke="#666666" stroke-opacity="0.5" />
        <line x1="-0.346313" y1="436.935" x2="30" y2="436.935" stroke="#666666" stroke-opacity="0.5" />
        <line x1="-0.346313" y1="453.722" x2="20.9018" y2="453.722" stroke="#666666" stroke-opacity="0.5" />
        <line x1="-0.346313" y1="440.293" x2="16.4403" y2="440.293" stroke="#666666" stroke-opacity="0.5" />
        <line x1="-0.346313" y1="447.007" x2="16.4403" y2="447.007" stroke="#666666" stroke-opacity="0.5" />
        <line x1="-0.346313" y1="450.365" x2="16.4403" y2="450.365" stroke="#666666" stroke-opacity="0.5" />
        <line x1="-0.346313" y1="443.65" x2="16.4403" y2="443.65" stroke="#666666" stroke-opacity="0.5" />
        <line x1="-0.346313" y1="457.079" x2="16.4403" y2="457.079" stroke="#666666" stroke-opacity="0.5" />
        <line x1="-0.346313" y1="463.794" x2="16.4403" y2="463.794" stroke="#666666" stroke-opacity="0.5" />
        <line x1="-0.346313" y1="467.151" x2="16.4403" y2="467.151" stroke="#666666" stroke-opacity="0.5" />
        <line x1="-0.346313" y1="460.437" x2="16.4403" y2="460.437" stroke="#666666" stroke-opacity="0.5" />
        <line x1="-0.346313" y1="470.509" x2="30" y2="470.509" stroke="#666666" stroke-opacity="0.5" />
        <line x1="-0.346313" y1="487.295" x2="20.9018" y2="487.295" stroke="#666666" stroke-opacity="0.5" />
        <line x1="-0.346313" y1="473.866" x2="16.4403" y2="473.866" stroke="#666666" stroke-opacity="0.5" />
        <line x1="-0.346313" y1="480.581" x2="16.4403" y2="480.581" stroke="#666666" stroke-opacity="0.5" />
        <line x1="-0.346313" y1="483.938" x2="16.4403" y2="483.938" stroke="#666666" stroke-opacity="0.5" />
        <line x1="-0.346313" y1="477.223" x2="16.4403" y2="477.223" stroke="#666666" stroke-opacity="0.5" />
        <line x1="-0.346313" y1="490.653" x2="16.4403" y2="490.653" stroke="#666666" stroke-opacity="0.5" />
        <line x1="-0.346313" y1="497.367" x2="16.4403" y2="497.367" stroke="#666666" stroke-opacity="0.5" />
        <line x1="-0.346313" y1="500.724" x2="16.4403" y2="500.724" stroke="#666666" stroke-opacity="0.5" />
        <line x1="-0.346313" y1="494.01" x2="16.4403" y2="494.01" stroke="#666666" stroke-opacity="0.5" />
        <line x1="-0.346313" y1="504.082" x2="30" y2="504.082" stroke="#666666" stroke-opacity="0.5" />
        <line x1="-0.346313" y1="520.868" x2="20.9018" y2="520.868" stroke="#666666" stroke-opacity="0.5" />
        <line x1="-0.346313" y1="507.439" x2="16.4403" y2="507.439" stroke="#666666" stroke-opacity="0.5" />
        <line x1="-0.346313" y1="514.154" x2="16.4403" y2="514.154" stroke="#666666" stroke-opacity="0.5" />
        <line x1="-0.346313" y1="517.511" x2="16.4403" y2="517.511" stroke="#666666" stroke-opacity="0.5" />
        <line x1="-0.346313" y1="510.796" x2="16.4403" y2="510.796" stroke="#666666" stroke-opacity="0.5" />
        <line x1="-0.346313" y1="524.226" x2="16.4403" y2="524.226" stroke="#666666" stroke-opacity="0.5" />
        <line x1="-0.346313" y1="530.94" x2="16.4403" y2="530.94" stroke="#666666" stroke-opacity="0.5" />
        <line x1="-0.346313" y1="534.298" x2="16.4403" y2="534.298" stroke="#666666" stroke-opacity="0.5" />
        <line x1="-0.346313" y1="527.583" x2="16.4403" y2="527.583" stroke="#666666" stroke-opacity="0.5" />
        <line x1="-0.346313" y1="537.655" x2="30" y2="537.655" stroke="#666666" stroke-opacity="0.5" />
        <line x1="-0.346313" y1="554.441" x2="20.9018" y2="554.441" stroke="#666666" stroke-opacity="0.5" />
        <line x1="-0.346313" y1="541.012" x2="16.4403" y2="541.012" stroke="#666666" stroke-opacity="0.5" />
        <line x1="-0.346313" y1="547.727" x2="16.4403" y2="547.727" stroke="#666666" stroke-opacity="0.5" />
        <line x1="-0.346313" y1="551.084" x2="16.4403" y2="551.084" stroke="#666666" stroke-opacity="0.5" />
        <line x1="-0.346313" y1="544.369" x2="16.4403" y2="544.369" stroke="#666666" stroke-opacity="0.5" />
        <line x1="-0.346313" y1="557.799" x2="16.4403" y2="557.799" stroke="#666666" stroke-opacity="0.5" />
        <line x1="-0.346313" y1="564.513" x2="16.4403" y2="564.513" stroke="#666666" stroke-opacity="0.5" />
        <line x1="-0.346313" y1="567.871" x2="16.4403" y2="567.871" stroke="#666666" stroke-opacity="0.5" />
        <line x1="-0.346313" y1="561.156" x2="16.4403" y2="561.156" stroke="#666666" stroke-opacity="0.5" />
        <line x1="-0.346313" y1="571.228" x2="30" y2="571.228" stroke="#666666" stroke-opacity="0.5" />
        <line x1="-0.346313" y1="588.015" x2="20.9018" y2="588.015" stroke="#666666" stroke-opacity="0.5" />
        <line x1="-0.346313" y1="574.585" x2="16.4403" y2="574.585" stroke="#666666" stroke-opacity="0.5" />
        <line x1="-0.346313" y1="581.3" x2="16.4403" y2="581.3" stroke="#666666" stroke-opacity="0.5" />
        <line x1="-0.346313" y1="584.657" x2="16.4403" y2="584.657" stroke="#666666" stroke-opacity="0.5" />
        <line x1="-0.346313" y1="577.943" x2="16.4403" y2="577.943" stroke="#666666" stroke-opacity="0.5" />
        <line x1="-0.346313" y1="591.372" x2="16.4403" y2="591.372" stroke="#666666" stroke-opacity="0.5" />
        <line x1="-0.346313" y1="598.087" x2="16.4403" y2="598.087" stroke="#666666" stroke-opacity="0.5" />
        <line x1="-0.346313" y1="601.444" x2="16.4403" y2="601.444" stroke="#666666" stroke-opacity="0.5" />
        <line x1="-0.346313" y1="594.729" x2="16.4403" y2="594.729" stroke="#666666" stroke-opacity="0.5" />
        <line x1="-0.346313" y1="604.801" x2="30" y2="604.801" stroke="#666666" stroke-opacity="0.5" />
        <line x1="-0.346313" y1="621.588" x2="20.9018" y2="621.588" stroke="#666666" stroke-opacity="0.5" />
        <line x1="-0.346313" y1="608.159" x2="16.4403" y2="608.159" stroke="#666666" stroke-opacity="0.5" />
        <line x1="-0.346313" y1="614.873" x2="16.4403" y2="614.873" stroke="#666666" stroke-opacity="0.5" />
        <line x1="-0.346313" y1="618.231" x2="16.4403" y2="618.231" stroke="#666666" stroke-opacity="0.5" />
        <line x1="-0.346313" y1="611.516" x2="16.4403" y2="611.516" stroke="#666666" stroke-opacity="0.5" />
        <line x1="-0.346313" y1="624.945" x2="16.4403" y2="624.945" stroke="#666666" stroke-opacity="0.5" />
        <line x1="-0.346313" y1="631.66" x2="16.4403" y2="631.66" stroke="#666666" stroke-opacity="0.5" />
        <line x1="-0.346313" y1="635.017" x2="16.4403" y2="635.017" stroke="#666666" stroke-opacity="0.5" />
        <line x1="-0.346313" y1="628.303" x2="16.4403" y2="628.303" stroke="#666666" stroke-opacity="0.5" />
        <line x1="-0.346313" y1="638.375" x2="30" y2="638.375" stroke="#666666" stroke-opacity="0.5" />
        <line x1="-0.346313" y1="655.161" x2="20.9018" y2="655.161" stroke="#666666" stroke-opacity="0.5" />
        <line x1="-0.346313" y1="641.732" x2="16.4403" y2="641.732" stroke="#666666" stroke-opacity="0.5" />
        <line x1="-0.346313" y1="648.447" x2="16.4403" y2="648.447" stroke="#666666" stroke-opacity="0.5" />
        <line x1="-0.346313" y1="651.804" x2="16.4403" y2="651.804" stroke="#666666" stroke-opacity="0.5" />
        <line x1="-0.346313" y1="645.089" x2="16.4403" y2="645.089" stroke="#666666" stroke-opacity="0.5" />
        <line x1="-0.346313" y1="658.519" x2="16.4403" y2="658.519" stroke="#666666" stroke-opacity="0.5" />
        <line x1="-0.346313" y1="665.233" x2="16.4403" y2="665.233" stroke="#666666" stroke-opacity="0.5" />
        <line x1="-0.346313" y1="668.591" x2="16.4403" y2="668.591" stroke="#666666" stroke-opacity="0.5" />
        <line x1="-0.346313" y1="661.876" x2="16.4403" y2="661.876" stroke="#666666" stroke-opacity="0.5" />
        <line x1="-0.346313" y1="671.948" x2="30" y2="671.948" stroke="#666666" stroke-opacity="0.5" />
        <line x1="-0.346313" y1="688.735" x2="20.9018" y2="688.735" stroke="#666666" stroke-opacity="0.5" />
        <line x1="-0.346313" y1="675.306" x2="16.4403" y2="675.306" stroke="#666666" stroke-opacity="0.5" />
        <line x1="-0.346313" y1="682.02" x2="16.4403" y2="682.02" stroke="#666666" stroke-opacity="0.5" />
        <line x1="-0.346313" y1="685.378" x2="16.4403" y2="685.378" stroke="#666666" stroke-opacity="0.5" />
        <line x1="-0.346313" y1="678.663" x2="16.4403" y2="678.663" stroke="#666666" stroke-opacity="0.5" />
        <line x1="-0.346313" y1="692.092" x2="16.4403" y2="692.092" stroke="#666666" stroke-opacity="0.5" />
        <line x1="-0.346313" y1="698.807" x2="16.4403" y2="698.807" stroke="#666666" stroke-opacity="0.5" />
        <line x1="-0.346313" y1="702.164" x2="16.4403" y2="702.164" stroke="#666666" stroke-opacity="0.5" />
        <line x1="-0.346313" y1="695.45" x2="16.4403" y2="695.45" stroke="#666666" stroke-opacity="0.5" />
        <line x1="-0.346313" y1="705.522" x2="30" y2="705.522" stroke="#666666" stroke-opacity="0.5" />
        <line x1="-0.346313" y1="722.308" x2="20.9018" y2="722.308" stroke="#666666" stroke-opacity="0.5" />
        <line x1="-0.346313" y1="708.879" x2="16.4403" y2="708.879" stroke="#666666" stroke-opacity="0.5" />
        <line x1="-0.346313" y1="715.594" x2="16.4403" y2="715.594" stroke="#666666" stroke-opacity="0.5" />
        <line x1="-0.346313" y1="718.951" x2="16.4403" y2="718.951" stroke="#666666" stroke-opacity="0.5" />
        <line x1="-0.346313" y1="712.236" x2="16.4403" y2="712.236" stroke="#666666" stroke-opacity="0.5" />
        <line x1="-0.346313" y1="725.666" x2="16.4403" y2="725.666" stroke="#666666" stroke-opacity="0.5" />
        <line x1="-0.346313" y1="732.38" x2="16.4403" y2="732.38" stroke="#666666" stroke-opacity="0.5" />
        <line x1="-0.346313" y1="735.738" x2="16.4403" y2="735.738" stroke="#666666" stroke-opacity="0.5" />
        <line x1="-0.346313" y1="729.023" x2="16.4403" y2="729.023" stroke="#666666" stroke-opacity="0.5" />
        <line x1="-0.346313" y1="739.095" x2="30" y2="739.095" stroke="#666666" stroke-opacity="0.5" />
        <line x1="-0.346313" y1="755.882" x2="20.9018" y2="755.882" stroke="#666666" stroke-opacity="0.5" />
        <line x1="-0.346313" y1="742.452" x2="16.4403" y2="742.452" stroke="#666666" stroke-opacity="0.5" />
        <line x1="-0.346313" y1="749.167" x2="16.4403" y2="749.167" stroke="#666666" stroke-opacity="0.5" />
        <line x1="-0.346313" y1="752.524" x2="16.4403" y2="752.524" stroke="#666666" stroke-opacity="0.5" />
        <line x1="-0.346313" y1="745.81" x2="16.4403" y2="745.81" stroke="#666666" stroke-opacity="0.5" />
        <line x1="-0.346313" y1="759.239" x2="16.4403" y2="759.239" stroke="#666666" stroke-opacity="0.5" />
        <line x1="-0.346313" y1="765.954" x2="16.4403" y2="765.954" stroke="#666666" stroke-opacity="0.5" />
        <line x1="-0.346313" y1="769.311" x2="16.4403" y2="769.311" stroke="#666666" stroke-opacity="0.5" />
        <line x1="-0.346313" y1="762.596" x2="16.4403" y2="762.596" stroke="#666666" stroke-opacity="0.5" />
        <line x1="-0.346313" y1="772.668" x2="30" y2="772.668" stroke="#666666" stroke-opacity="0.5" />
        <line x1="-0.346313" y1="789.455" x2="20.9018" y2="789.455" stroke="#666666" stroke-opacity="0.5" />
        <line x1="-0.346313" y1="776.026" x2="16.4403" y2="776.026" stroke="#666666" stroke-opacity="0.5" />
        <line x1="-0.346313" y1="782.74" x2="16.4403" y2="782.74" stroke="#666666" stroke-opacity="0.5" />
        <line x1="-0.346313" y1="786.098" x2="16.4403" y2="786.098" stroke="#666666" stroke-opacity="0.5" />
        <line x1="-0.346313" y1="779.383" x2="16.4403" y2="779.383" stroke="#666666" stroke-opacity="0.5" />
        <line x1="-0.346313" y1="792.812" x2="16.4403" y2="792.812" stroke="#666666" stroke-opacity="0.5" />
    </g>
    <defs>
        <clipPath id="clip0">
            <rect width="30" height="793" fill="white" />
        </clipPath>
    </defs>
</svg>